<?xml version="1.0" standalone="no"?>
<!DOCTYPE svg PUBLIC "-//W3C//DTD SVG 20010904//EN"
 "http://www.w3.org/TR/2001/REC-SVG-20010904/DTD/svg10.dtd">
<svg version="1.0" xmlns="http://www.w3.org/2000/svg"
 width="439.000000pt" height="388.000000pt" viewBox="0 0 439.000000 388.000000"
 preserveAspectRatio="xMidYMid meet">

<g transform="translate(0.000000,388.000000) scale(0.100000,-0.100000)"
fill="#000000" stroke="none">
<path d="M2180 3506 c-67 -25 -167 -80 -535 -294 -577 -335 -621 -362 -679
-414 -80 -71 -95 -110 -106 -270 -12 -172 -12 -1004 0 -1176 11 -160 26 -199
106 -270 58 -52 98 -76 679 -414 524 -305 498 -293 620 -293 122 0 96 -12 620
293 602 350 626 365 686 420 71 65 86 102 99 247 12 128 12 891 1 1145 -9 195
-16 223 -77 289 -86 95 -463 309 -583 331 -112 21 -169 -5 -703 -319 -480
-281 -632 -375 -690 -423 l-48 -40 0 -378 0 -379 59 -48 c68 -55 348 -226 496
-303 133 -70 157 -68 321 22 170 93 414 244 468 291 l47 39 -3 358 c-2 197 -6
362 -10 365 -9 9 -58 -16 -304 -156 -240 -136 -309 -186 -334 -242 -24 -52
-26 -146 -4 -188 8 -17 13 -33 11 -36 -15 -15 -244 131 -280 179 -51 66 -44
181 14 251 40 49 114 96 474 302 394 227 400 229 481 222 34 -3 78 -13 98 -21
50 -21 123 -92 138 -134 10 -28 13 -148 13 -517 0 -515 -1 -525 -51 -585 -32
-38 -196 -141 -506 -319 -396 -227 -414 -233 -526 -187 -75 31 -732 413 -800
466 -35 27 -61 57 -75 88 -22 46 -22 56 -22 532 0 473 1 486 21 531 12 25 41
62 66 82 25 20 227 143 449 273 222 130 464 272 539 317 170 101 242 135 305
143 28 4 56 10 62 13 17 9 -273 170 -357 198 -73 25 -128 28 -180 9z"/>
</g>
</svg>
