<?xml version="1.0" standalone="no"?>
<!DOCTYPE svg PUBLIC "-//W3C//DTD SVG 20010904//EN"
 "http://www.w3.org/TR/2001/REC-SVG-20010904/DTD/svg10.dtd">
<svg version="1.0" xmlns="http://www.w3.org/2000/svg"
 width="800.000000pt" height="600.000000pt" viewBox="0 0 800.000000 600.000000"
 preserveAspectRatio="xMidYMid meet">

<g transform="translate(0.000000,600.000000) scale(0.100000,-0.100000)"
fill="#000000" stroke="none">
<path d="M3950 3941 c-38 -12 -81 -35 -250 -136 -85 -50 -222 -130 -305 -176
-178 -100 -218 -136 -234 -208 -15 -70 -15 -772 0 -842 16 -72 56 -108 234
-208 83 -46 220 -126 305 -176 222 -132 236 -139 300 -139 64 0 78 7 300 139
85 50 222 130 305 176 82 46 166 100 186 121 57 56 61 88 57 540 -3 374 -4
395 -24 433 -24 47 -109 108 -257 184 -151 79 -176 74 -412 -69 -66 -40 -210
-124 -320 -187 -110 -63 -212 -128 -227 -144 l-28 -29 0 -220 0 -220 28 -29
c23 -25 205 -136 332 -203 43 -23 77 -23 120 0 127 67 309 178 333 203 l27 29
0 215 c0 179 -2 215 -14 215 -8 0 -63 -29 -123 -64 -59 -35 -135 -79 -167 -97
-32 -19 -68 -46 -78 -60 -28 -37 -35 -102 -14 -134 9 -14 13 -25 9 -25 -5 0
-43 20 -86 45 -88 52 -112 86 -104 147 10 74 26 88 262 222 61 34 151 86 200
115 84 49 94 52 143 48 56 -4 91 -24 126 -71 20 -26 21 -43 24 -289 4 -309 0
-356 -34 -397 -14 -16 -83 -62 -152 -101 -70 -39 -174 -100 -232 -134 -58 -34
-122 -68 -142 -75 -51 -16 -86 -4 -218 75 -58 34 -161 94 -230 133 -140 79
-168 103 -181 159 -5 21 -9 153 -9 293 0 140 4 272 9 293 13 56 41 80 181 159
69 39 222 128 340 198 272 161 257 153 310 160 l45 5 -83 48 c-132 78 -191 96
-252 78z"/>
</g>
</svg>
