<?xml version="1.0" encoding="UTF-8"?>
<svg id="Layer_2" data-name="Layer 2" xmlns="http://www.w3.org/2000/svg" viewBox="0 0 733.69 706.72">
  <defs>
    <style>
      .cls-1 {
        fill: none;
        stroke: #000;
        stroke-linejoin: round;
        stroke-width: 3px;
      }
    </style>
  </defs>
  <g id="Layer_2-2" data-name="Layer 2">
    <g id="Layer_1-2" data-name="Layer 1-2">
      <g id="ViewLayer_LineSet" data-name="ViewLayer LineSet">
        <g id="strokes">
          <path class="cls-1" d="M391.1,78.32l1.09-.13,.09-1.27,.06-1.52,.18-.43,.13-.31,1.4-3.82,.47-1.71,.04-.15,.35-1.27,.13-.47,.03-.14,.22-.92,.23-.98,.03-.11,.12-.5,.34-1.46v-.05l.03-.09,.13-.57,.06-.5,.1-.83,.03-.28,.02-.18,.17-1.51,.16-1.4v-.05h0v-.14l.04-.32,.03-.28,.03-.3,.02-.13,.02-.17v-.09l.06-.42v-.06l.03-.61v-.34l.02-.14v-.21l.02-.23v-.38l.06-1.16v-.16h0l.02-.44v-.1l.03-.56,.07-1.74v-.35l-.05-1.13v-.29l-.04-1.17-.05-1.29-.03-.79-.06-1.75"/>
          <path class="cls-1" d="M399.77,45.25l.02-2.9,.33-3.82-.34-5.47-.77-5.18-2.03-6.45-4.6-7.99-6.94-6.43-7.91-3.9"/>
          <path class="cls-1" d="M395.61,103.39l-1.5-.59-.57-.71-.53-.82h0l-.07-.19-.16-.23-.36-.32-.14-.56-.32-3.83-.08-5.76,.13-6.31,.2-6.56,.31-2.54"/>
          <path class="cls-1" d="M385.19,7.36l-.85-.47-6.82-3.79-.6-.33-8.61-1.27-8.38,1.47-7.94,4.26-.7,.66-6.87,5.94-4.66,7.49-2.17,6.73-.53,1.81-.55,4.94,.12,4.48,.09,1.28,.33,3.44-.06,1.84"/>
          <path class="cls-1" d="M394.53,69.13l1.16-1.81,.85-1.5,1.09-.25,1.06-.25,.35-.08"/>
          <path class="cls-1" d="M401.04,46.03l-.07-.02-.93-.31-.11-.04-.16-.05h-.02l-.09-.04-.36-.12h-.04l-.02-.02h0l.2-1.73"/>
          <path class="cls-1" d="M398.44,52.95l.22-.26h0l.17-.19,.16-.18,.14-.16h0l.24-.29,.1-.42,.06-.24,.03-.12,.17-.46,.15-.4v-.02l.03-.09,.06-.25,.25-.29,.38-.44,.08-.09,.23-.27h0l.13-.24,.12-.21,.39-.68,.03-.06,.11-.22,.17-.34,.06-.11,.2-.56"/>
          <path class="cls-1" d="M400.87,45.12h-.02l-.92,.11-.16,.02h-.05l-.18,.03h-.08"/>
          <path class="cls-1" d="M399.94,64.31l1.21-1.89,1.19-1.71,.84-2.46,.59-2.7,.7-2.75,.23-2.85-.24-2.3-.5-1.54-1.11-.58-1.44-.75-1.49,.44"/>
          <path class="cls-1" d="M397.82,58.99l-.29-.74-.04-.1,.02-.04,.04-.11v-.04l.19-.46,.12-.31,.25-.67,.07-.97,.02-.31,.02-.24v-.18l.02-.16,.02-.32v-.42l.02-.28v-.61h0v-.16h0v-.17h0l.3-.43,.11-.15,.02-.03,.02-.03"/>
          <path class="cls-1" d="M397.63,65.58l2.02,.54,.3-1.8,.24-1.43"/>
          <path class="cls-1" d="M436.25,316.37l-.26-4.14-1.26-9.38-2.3-7.58-1.95-7.04-1.24-6.62,.14-5.77,.25-3.96,.07-2.32-.47-4.73-1.04-7.14-1.06-7.01-.25-7.22,.83-7.37,1.25-7.76,1.1-7.78,1.05-7.62,.06-.26,.91-4.04,.07-.3,.38-1.7"/>
          <path class="cls-1" d="M431.17,212.67l1.08-4.34,1.35-6.27,1.18-6.66,1.18-5.16,1.43-3.74,.04-.1,.15-.4"/>
          <path class="cls-1" d="M414.25,108.87l-2.56-.78-3.7-1.05-3.11-.67-3.56-.96-3.25-1.18-2.82-.96-1.62-1.18"/>
          <path class="cls-1" d="M727.78,140.33l.17-.11,.11-.07,.16-.1,.23-.15,.43-.4,.43-.4,.06-.05,.07-.07,.03-.06,.04-.08,.07-.14,.34-.7,.12-.24-.02-.08v-.07l-.05-.22-.07-.39-.06-.34v-.06l-.04-.14-.34-.11-.26-.08-.61-.2-.42-.13-.51-.07-.35-.05-.6-.08h-.07l-.52-.08-.21-.03-.22-.03-.15-.02-.24-.03-1.04-.13-.08-.02-.23-.05-.39-.08-.15-.03-.74-.15-1.73-.24h-.03l-.09-.02h-.06l-.68-.11-2.39-.33-.18-.02-.39-.05-.45-.1-.07-.02-2.73-.62-.09-.02-.07-.02-.22-.05h0l-2.2-.55-.4-.06h-.07l-.25-.05h0l-2.43-.36-.74-.08h-.02l-.16-.02-4.42-.45-.91-.12-3.45-.45-3.95-1.05-4.82-.9-1.32-.07-6.06-.89-5.9-.62-5.63-.7-5.13-.74-4.1-.57-3.76-.64-4.92-.77-6.49,.05-8.23,.06-8.73-.52-7.98-1.06-8.59-.92-8.64-1.18-8.8-1.38-8.97-1.09-7.59-.85-9.3-1.47-9.35-.1-8.2,.53-6.44,.93-4.82,.5-5.04,.46-5.88,.93-8.86,.85-10,.25h-.12l-10-.05h-.36l-9.98-.64-.68-.04-9.54-1.26-7.96-1.71-7.36-1.91-6.39-1.36-5.6-1.13-3.82-.71-5.51-1.82-5.82-1.68-5.65-.62-5.79,.29-5.39,.27-4.57,.4-2.09,.45-2.62-.78"/>
          <path class="cls-1" d="M451.69,172.44l4.37-4.69,6.59-3.23,6.9-2.13,7.06-.61,8.28-.32,9.05-1.51,8.81-1.35,9.84-1.33,9.91-1.36,.18-.02,6.73-1.01,6.74,.07,5.88,.54,5.73,.2,6.41-.37,6.74,.19,7.74-.78,8.94-1,8.52-.64,8.32-.93,8.27-1.36,8.19-1.67,8.9-1.67h.07"/>
          <path class="cls-1" d="M416.87,644.09l.07-.31,.02-.11,2.11-9.78,.32-1.5,1.88-9.82,.64-3.36,1.61-9.87,.81-4.95,1.39-9.9,.88-6.27,1.41-9.9,.8-5.66,1.13-9.94,.56-4.9,.21-10,.08-3.93-1.04-9.95-.3-2.85-1.88-9.82-.45-2.36-.89-9.96-.15-1.72-.22-10-.02-.91-.03-6.94,.07-10v-.78l-.21-10-.02-.96,1.09-6.47,2.03-9.79,.36-1.74,1.93-9.81,.41-2.07,2.05-9.79,.46-2.19,1.44-9.9,.59-4.04,.99-9.95,.43-4.33,1.13-9.94,1.05-9.23,.42-9.99,.19-4.48v-14.75s-1.29-9.91-1.29-9.91l-.43-3.28-.73-9.97-.02-.32-1.47-9.33-.19-1.18"/>
          <path class="cls-1" d="M365.75,395.85l.12,1.62,.22,2.95,1.68,9.86,.34,2.03,1.95,9.81,.92,4.65,1.44,9.9,.34,2.31,1,9.95,.19,1.9,.57,9.98,.09,1.52,.65,9.98,.09,1.33,1.15,9.93,.14,1.21,.43,2.83,1.73,9.85,.32,1.85,2.91,9.57,.41,1.36,2.47,9.69,.29,1.13,.47,7.8,.1,1.71,.03,.49,.1,1.71"/>
          <path class="cls-1" d="M385.68,528.86l-.03,2.31-.74,9.97-.22,3.01-.38,9.99-.19,4.98,1.08,9.94,.41,3.79,1.9,9.82,1.07,5.52,1.53,9.88,.95,6.09,1.45,9.9,.69,4.74,.06,.41"/>
          <path class="cls-1" d="M437.39,186.51l2.18-2.8,3.14-2.64,4.35-3.03,4.62-5.6,.02-.03,.21-.25"/>
          <path class="cls-1" d="M394.11,102.8l-.29-.42-.18-.27-1.33-1.95"/>
          <path class="cls-1" d="M619.79,147.47l8.17-1.04,8.02-1.24,7.54-1.37,6.29-.54h.07l2.08,.18,.86,.08,.34,.03,.7,.06"/>
          <path class="cls-1" d="M649.81,143.29l3.41,.57,3.44,1.54,4.83,1.06,1.67,.11"/>
          <path class="cls-1" d="M658.31,144.26l2.16,1.19,.27,.15,.15,.08,.42,.17,.2,.08h.04l.18,.08,.21,.08,.17,.07,.2,.08,.16,.06h0l.07,.03,.6,.23,1.8,.7,2.69,.7,3.64-.02,4.54-1.06,2.92-.79,1.32-.81"/>
          <path class="cls-1" d="M700.44,140.88h.88l.54-.02h.5l.11-.02h.57s.57-.03,.57-.03l.96-.03,.85-.02h.21l.32-.02,.69-.02h.69l.38-.02,2.07-.04h.3s1.08,.05,1.08,.05l.95,.04h.18l.23,.02,.47,.03,.54,.04,.85,.06,.33,.02,.41,.03,.34,.02h.09l1.19-.02h1.07l.65,.03,.45,.03h.22l.17,.02,.94,.06,.42,.03h.17s.8,.07,.8,.07h.14l1.96,.15,.61-.09,.37-.06,.2-.03,.13-.02,.34-.05,.5-.08,.31-.05,.81-.24,.33-.1,.41-.3,.13-.1"/>
          <path class="cls-1" d="M699.71,136.33h-.06l-.78-.15-.25-.04-.39-.07h-.02l-.15-.03-.18-.03-.55,.07-.2,.02-.14,.02h-.1l-.32,.05-.29,.03h-.08l-.16,.03-.44,.05-.44,.05h-.22l-2.17,.03h-.92s-.12,0-.12,0l-1.01,.02h-.78l-.98,.02h-2.02l-1.75-.27-.41-.07-.83-.14h-.11l-.03-.05-1.13-1.28"/>
          <path class="cls-1" d="M678.25,145.76l.63-.16,.3-.08,.5-.13,.38-.1h.01l.1-.03,.92-.24,1.32-.11,.22-.02,.24-.02h.13s1.82-.16,1.82-.16l2.93,.11,2.8,.23,3.85-.29,1.19-.35h0l.48-.14,.11-.03,.14-.04,.51-.15,.06-.02h.01l.05-.02,.47-.14,.26-.18,.1-.07,.21-.15,.43-.29,.13-.09,.19-.13,.07-.05,.51-.36,.14-.21,.31-.49,.08-.12,.1-.16,.02-.03,.03-.04h0l.02-.02,.08-.12"/>
          <path class="cls-1" d="M657.8,144.75l.7,.22,1.51,.48,1.09,.35,.42,.13h.05"/>
          <path class="cls-1" d="M730.71,139.49l.91-1.04,.57-1.34-.21-1.42-2.09-.16-2.31,.04-1.85-.06-1.81-.34-3.01-.37-3.36-.7-3.83-.68-2.89-.68-3.47-.4-5.5-.54"/>
          <path class="cls-1" d="M724.36,141.25l1.08,.07,2.64-.32,.41-.07,1.19-.48,.68-.52,.35-.44,.43-.55"/>
          <path class="cls-1" d="M699.95,141.58h1.16l.36-.02,.38-.02h.17s.09,0,.09,0l.68-.05,.64-.04h0l.33-.02h.24"/>
          <path class="cls-1" d="M703.43,141.46l.33,.04h.06l.27,.03,.21,.02,.71,.07h.08l.41,.05h0l.27,.03h.11l.59,.07,3.78,.27,2.24-.07,1.95,.13,2.84,.26,2.22-.15,1.42-.48,.18-.1,.66-.45"/>
          <path class="cls-1" d="M695.6,144.41h0l1.61,.02,1.39,.21,2.01,.36,2.15,.08,1.22-.23,.5-.14,.66-.41,.32-.25,.66-.8,.03-1.06-.25-.48"/>
          <path class="cls-1" d="M699.42,142.28l.34-.46,.07-.1,.11-.15,.02-.03,.03-.05h0l.02-.02,.09-.12,.03-.04h0l.14-.19,.05-.07,.04-.05,.1-.13h0l.04-.07,.08-.12h0l.04-.07,.06-.08h0l.03-.04,.02-.03,.02-.03,.04-.05,.06-.09,.05-.07v-.33h0v-.16l.02-.22,.02-.24,.03-.51v-.39s-.01-.14-.01-.14l-.05-.38v-.06l-.02-.14v-.02l-.05-.34v-.02"/>
          <path class="cls-1" d="M697.55,136.2h.26l.22,.03h.23s.15,0,.15,0h.07s.42,.03,.42,.03h.13l.02,.02,.44,.23,.28,.15h.02l.13,.08,.07,.04h0l.09,.05,.05,.02h0l.75,.45-.59-.48-.1-.08-.09-.07h-.01l-.35-.3-.04-.03h-.05l-.62-.05"/>
          <path class="cls-1" d="M680.16,145.26l2.66-.34,.18-.06"/>
          <path class="cls-1" d="M393.2,618.81l1.11,9.94,.25,2.25,.73,9.76"/>
          <path class="cls-1" d="M395.35,632.69v.68l-.03,3.06-.03,4.34-.03,4.38-2.4,9.71-.56,2.25v9.98l1.41,8.56-.14,8.55,1.53,4.09"/>
          <path class="cls-1" d="M421.89,678.81l-1.79-4.53-1.83-9.3-1.28-9.92-.06-.45,.03-10v-.96"/>
          <path class="cls-1" d="M404.27,701.45l.08,.37v.07l.02,.03,.05,.27,.09,.08,.72,.66,.21,.16,1.24,.95,1.04,.8,1.12,.38,2.15-.03,.62-.35,1.35-1.41h0l.02-.02,.02-.02,.21-.22,.17-.17,.05-.06,.04-.04,.02-.02,.27-.28-.03-.05-.17-.3-.39-.69-.02-.04h0l-.35-.63h0l-.1-.2-.19-.27-.36-.5-.02-.03-.22-.3-1.29-1.81"/>
          <path class="cls-1" d="M426.96,702.19l.54-.06,1.81-.24"/>
          <path class="cls-1" d="M420.12,701.32l.02,.05h0l.32,.8,.09,.22v.02l.02,.03,.55,1.4,.52,.26,1.69-.29h.06"/>
          <path class="cls-1" d="M396.4,694.06l-.27,.5-1.15,2.15-.14,.26-.86,1.6-.05,.1-.06,.11-.09,.18-.83,1.56v1.7l2.58,2.58,3.83-.16,1.61-.39,.73-.63,.5-.43,.26-.22,1.17-1,.12-.1,.17-.15,.18-.16,.16-.14,.02-.02,.02-.39h0l-.14-.2-.02-.03-.18-.26-.88-1.3-1.42-2.11-.18-.27"/>
          <path class="cls-1" d="M412.96,703.45l2.88,1.35h1.74l.85-.29,1.22-1.72,.24-.34,.07-.09,.03-.05,.12-.93h0v-.18l.02-.13v-.11l.07-.46,.04-.3,.17-.39,.04-.09,.03-.07,.02-.03h0v-.03s.08-.15,.08-.15l.16-.36"/>
          <path class="cls-1" d="M423.32,703.8l.97-.02,.91-1.36,.56-.84h0l.06-.17,.17-.46,.04-.1,.08-.21,.11-.3,.33-.89,.02-.05v-.04s.01-.02,.01-.02h0"/>
          <path class="cls-1" d="M426.58,699.75l.17,1.11v.03l.06,.33v.02l.03,.17h0v.02l.12,.76,3.04-.23,.81-1.46,.09-.16,.02-.03,.25-.45,.09-.16,.1-.17,.15-.3,.54-1.08"/>
          <path class="cls-1" d="M401.71,703.64l2.31-.5,2.66,.92"/>
          <path class="cls-1" d="M419.65,702.79l.78-.38,.13,.03"/>
          <path class="cls-1" d="M425.2,702.42l1.57-.99h.07"/>
          <path class="cls-1" d="M395.86,689.73l-.03,.07-.02,.04-.07,.17-.39,.96-.04,.1-.25,.76-1.95,5.93,.66,1.21"/>
          <path class="cls-1" d="M434.38,695l-1.68-2.13-.14-.17-.93-1.18-1.27-1.56-.18-.22-.5-.62-.15-.19"/>
          <path class="cls-1" d="M430.81,700.5l.3-.22,.6-.54,2.67-4.74-1.56-2.45-2.34-3.02-3.89-3.95-4.71-6.76-.62-1.6-.59-1.49"/>
          <path class="cls-1" d="M395.4,687.51v.39l-.39,.25v.38l.43,.39-.09,.22-.26,.33,.71-.72-.02,.03-.02,.08-.07,.3-.1,.43-.26,1.11-.27,1.15"/>
          <path class="cls-1" d="M393.83,685.11l1.09,1.21,.05,.51,.02,.23,.11,1.22,.23,2.41"/>
          <path class="cls-1" d="M340.18,65.82l.18,.45,.27,.69,.03,.07,1.29,3.26,.73,1.67,.14,.32,.06,.13,.03,.07,.92,2.1-.6,2.07,.16,2.08"/>
          <path class="cls-1" d="M342.69,71.96l.61,5.32,.39,6.54,.16,5.86,.04,2.49"/>
          <path class="cls-1" d="M344.01,90.29l-.13,1.88-.25,3.65-.18,2.11-.13,1.08-.11,.14-.11,.15-.25,.34,.31,.69,.5,.23"/>
          <path class="cls-1" d="M337.17,44.53v.18l.04,.63v.23s.03,.34,.03,.34v.06h0v.19"/>
          <path class="cls-1" d="M335.02,47.29l.03,.07,.13,.29,.11,.25,.07,.16,.03,.06,.42,.84,.03,.06,.05,.09,.09,.17,.3,.48,.02,.03,.2,.31,.28,.45,.07,.23,.02,.05,.03,.09,.02,.19,.1,.81v.06l.11,.63,.03,.17,.02,.12,.08,.14,.12,.21,.18,.31,.04,.08,.18,.36,.21,.42,.27,.54,.06,.11,.02,.02"/>
          <path class="cls-1" d="M336.84,45.79l-1.36-.61-1.68,.71-1.12,.53-.51,1.58-.16,2.29,.21,2.9,.48,2.9,.49,2.7,.69,2.44,1.15,1.8,1.31,2.09"/>
          <path class="cls-1" d="M339.48,59.73l-.03,.07-.03,.1-.05,.14-.06,.17-.06,.18-.36,1.05-.35,1.02-1.2,2.74"/>
          <path class="cls-1" d="M338.43,53.79h0v.12s-.01,.1-.01,.1l-.02,.09v.13l-.03,.16-.03,.33-.02,.16v.08l-.02,.15h0l-.02,.25v2.1l.13,.32,.06,.15,.27,.66,.04,.11,.14,.35-.02,.04-.06,.13-.03,.08h0l-.24,.59"/>
          <path class="cls-1" d="M339.18,65.2l.23,.29,.03,.03,.36,.45,.09,.12,.77,.95"/>
          <path class="cls-1" d="M335.96,63.49l.38,1.63,.3,1.29,1.02-.32"/>
          <path class="cls-1" d="M337.2,66.08h2.69"/>
          <path class="cls-1" d="M297.99,196.12l.05,.21,.3,1.28,1.17,5.05,1.44,5.95,1.33,5.72,1.36,6.22,1.16,6.72,1.11,7.2,.31,2.84"/>
          <path class="cls-1" d="M306.06,234.88l.15,2.43,.29,4.86-.51,7.1-1.41,6.98-1.14,5.27-.89,6.94,.19,6.7,.1,6.5-1.26,6.13-2.05,6.48-2.41,7.37-1.72,8.85-.43,5.44"/>
          <path class="cls-1" d="M275.02,168.96l.04,.04,4.96,5.2,4.67,5.33,4.61,3.1,3.15,2.35,1.99,2.76,2.1,3.72,1.35,4.68,.44,1.45"/>
          <path class="cls-1" d="M343.21,99.15l-1.6,2.27-2.87,1.87-3.17,1.3-3.09,1.3-3.23,1.17-3.29,1-3.53,1.23-2.35,.79"/>
          <path class="cls-1" d="M321.86,110.46l-1.79-.37-2.2-.45-4.51-.4-5.06-.25-5.26-.29-5.44,.41-5.7,1.08-3.72,.3-5.31,.91-5.97,1.3-6.76,1.8-7.93,2.43-8.4,2.38-9.85,1.69-9.99,.49-.77,.04-10,.02h-.57l-10-.24h-.37l-9.13-.92-5.86-.82-5.2-.44-5.07-.79-6.21-.78-8.03-.42-9.24,.43-9.08,1.58-7.21,1.22-8.83,1.35-8.74,1.53-8.64,1.4-8.57,1.12-7.97,.81-8.75,.63-8.28,.26-6.72,.11-4.98,.8-3.93,.65-4.26,.52-5.12,.8-5.77,.62-5.9,.49-6.03,.74-5.94,.94-3.36,.68-.67,.14-2.64,.22-.62,.05h-.17l-.96,.09-.9,.07-2.69,.21-.96,.07-.28,.02-.49,.04-1.63,.22h-.06l-.89,.13-.44,.06-.14,.02-1.26,.27-.17,.04-.82,.18-.35,.08-.2,.04-1.32,.26-.11,.02-1.73,.34h-.04l-.76,.09-.63,.07-.79,.09-.68,.08-.45,.06-.62,.08-.69,.09-.62,.08h-.1l-1.09,.25-.45,.1h0l-.38,.06-.17,.02-.33,.05-.36,.05-.51,.07-.59,.08-.12,.02-.45,.06-.39,.05-.33,.05-.22,.06-.58,.16-.45,.12-.39,.11-.04,.13-.12,.37h0l-.1,.34-.08,.26-.02,.07,.21,.47,.12,.26,.06,.13,.09,.2,.09,.2,.4,.44,.03,.03,.16,.17,.05,.06,.07,.08,.07,.07,.73,.43,.16,.09"/>
          <path class="cls-1" d="M79.49,146.61l.54-.03h.16l.76-.05,2.65-.16,6.44,.51,7.62,1.3,7.85,1.01,7.91,.93,8.77,1.42,7.96,1.49,8.02,1.3,8.13,.77,8.38,.34,8.76,.29,7.69,.87,6.9-.09,6.32-.27,5.89-.23,6.1-.64,7.17-.21,6.73,.63,9.87,1.59,.19,.03,9.92,1.27,9.2,1.64,8.51,1.21,7.96,1.11,6.56,1.21,6.43,2.58,6.2,2.55"/>
          <path class="cls-1" d="M295.32,314.17l-.35,1.77-1.65,8.32-.81,9.97-.02,.26-.6,9.98-.18,3.03-.38,9.99-.17,4.51,.7,9.97,.35,5.04,.96,9.95,.48,5.03,1.22,9.92,1.11,9.02,1.35,9.91,.53,3.88,1.98,9.8,.5,2.49,1.96,9.8,.47,2.33,2.12,9.77,.43,1.98,1.25,6.35v11.18l.43,9.99,.04,.86,.14,6.8-.37,9.99-.03,.85-1.19,9.93-.18,1.48-1.94,9.81-.45,2.27-.96,9.96-.26,2.72,.24,10,.09,3.78,1.28,9.92,.62,4.84,1.46,9.89,.85,5.78,1.48,9.89,.97,6.44,1.8,9.84,.9,4.93,2.09,9.78,.69,3.21,1.81,9.84,.36,1.94-.19,10-.03,1.41-1.41,9.15-.34,8.84"/>
          <path class="cls-1" d="M347.49,519.97l.43-1.71v-.05l2.27-8.9,3.11-9.5,.28-.86,1.85-9.83,.36-1.92,.85-9.96,.37-4.31,.43-9.99,.05-1.16,.35-9.99,.05-1.48,1.01-9.95,.18-1.81,1.57-9.88,.35-2.19,1.75-9.85,.83-4.64,1.68-9.86,.34-1.99,.26-2.67"/>
          <path class="cls-1" d="M340.02,643.01v-4.23l.49-10.45,.21-1.47,.9-9.96,.26-2.85,1.14-9.93,.64-5.6,1.57-9.88,.66-4.14,2.02-9.79,1.41-6.8,1.17-9.93,.48-4.06-.25-10-.09-3.48-.8-9.97-.23-2.92-2.1-7.57,1.11-4.36"/>
          <path class="cls-1" d="M58.3,150.14l3.96,.82h3.65l2.63-.87,1.62-.61,.57-.22,.16-.06,.5-.19,1.12-.42h.03l.18-.08,.19-.1,.15-.08,.12-.07,.23-.12,.31-.17,.38-.21,.78-.42,.32-.17"/>
          <path class="cls-1" d="M70.16,149.49l1.32-.12,4.95-1.24,3.56-1.49,.95-.11"/>
          <path class="cls-1" d="M5.31,141.92l.19,.15,.15,.12,.14,.11,.08,.06,.06,.02,.52,.18,.46,.16h.03l2.48,.54,2.26-.18h.13l.35-.04,.43-.04h.12l.63-.04,.45-.02,.48-.03h.19l.29-.03,.36-.02h.94l.46,.02h1.05l.58-.04,.67-.05h.03l.72-.05,1.09-.08h.1l.48-.03,.59-.04,1.22-.08h0l.44,.02,.48,.02,.44,.02,1.22,.06,.63,.03,1.05,.08,.27,.02,.77,.06h.04l1.18,.1h.07l.34,.03,1.05,.08,.65,.05h.31s.3,0,.3,0l.32,.02h.53"/>
          <path class="cls-1" d="M39.01,141.74h-.42s-.05,0-.05,0h-.82l-.27-.02h-.56s-.03,0-.03,0h-.55s-.06,0-.06,0h-.03s-.33,.07-.33,.07l-.13,.02-.16,.03-.42,.08-.36,.07-.42,.08-.2,.16-.03,.03h0l-.02,.02-.04,.03-.2,.16-.22,.18h0l-.07,.07h-.02l-.11,.1-.12,.1-.05,.04-.03,.02-.07,.05v.05l-.02,.06h0v.04l-.04,.19-.03,.14-.04,.16-.03,.14h0v.03h0l-.03,.16h0v.09l.03,.51,.02,.34,.02,.24v.18s0,.1,0,.1l.04,.48,.45,.57,.09,.11,.06,.08,.14,.18,.47,.6,.13,.16,.02,.02h0l.06,.08,.05,.07,.07,.08,.03,.04,.03,.04,1.91,1.16,3.15,.73,3.67,.07,2.88-.44,2.88-.55,3.67-.02,1.97,.28h.06l.67,.1,.93,.31,1.82,.6-3.39-.97-.09-.04"/>
          <path class="cls-1" d="M35.44,133.85l-4.01,.17-5.7,.46-3.39,.28-2.85,.52-3.83,.58-3.3,.56-2.89,.32-1.77,.34-1.73,.04-2.17-.07-2.04,.18-.26,1.33,.43,1.33,.92,1.12,.28,.26,.59,.49,1.65,.72,1.56,.24"/>
          <path class="cls-1" d="M11.69,143.07l.67,.52,1.34,.59,2.26,.19,2.72-.26,1.93-.11,2.17,.07h.68l3.85-.13,2.41-.39,.42,.04h.11s.09,0,.09,0l.39,.05,.22,.02,.57,.05h.13l.02,.02,.62,.03h.57l.12,.02"/>
          <path class="cls-1" d="M30.14,143.58l-.64,.22-.2,.07-.35,.07-.08,.02h-.06l-.59,.13-.15,.03"/>
          <path class="cls-1" d="M29.49,143.8l-.69,.09-1.66,.3-.42,.67,.08,1.08,.64,.81,.28,.31,.6,.46,.53,.24,1.23,.36,2.16,.09,2.03-.29,.38-.06"/>
          <path class="cls-1" d="M50.29,140.3l-.15,.04-.45,.12-.6,.15-.3,.08-.11,.03-.87,.22-.79,.2-.68,.17-.09,.02"/>
          <path class="cls-1" d="M47.4,141.25l-.31,.02-.74,.05h-.11l-.14,.02-1.21,.09h-.04l-.34,.03h-.09l-.8,.06"/>
          <path class="cls-1" d="M46.1,141.35l-1.25,.03h-.33l-.82,.02h-.6s-.36,0-.36,0l-.33,.02h-.23l-.46,.02h-.26l-.12,.02h-.3s-.31,0-.31,0l-.4,.03-.71,.03h-.22l-.81,.11h-.07l-.17,.02h0l-.11,.02"/>
          <path class="cls-1" d="M339.14,673.4l-.58-7.03,1.84-10.46-.32-9.73-.04-1.32-.02-.7v-3.78l.03-8.6"/>
          <path class="cls-1" d="M320.89,697.6l-1.08,1.49-.45,.62-.16,.22-.09,.12-.25,.35-.07,.09-.41,.57-.29,.4-.14,.19-.03,.05-.3,.41-.1,.14,.35,.36,.03,.03,.15,.15h0l.29,.3,.08,.08,.03,.03,.07,.07h0l1.44,1.46,.48,.43,2.11-.04,1.21-.44,1.19-.98,1.05-.87,.02-.02,.65-.83,.14-.18h0"/>
          <path class="cls-1" d="M303.05,701.94l.5,.09,1.13,.21,.52-.08,.14-.76v-.06s.1-.51,.1-.51v-.05l.02-.05v-.05l.09-.44"/>
          <path class="cls-1" d="M308.32,703.64l.41,.1,1.17,.27,.59-.25,.52-1.33,.06-.15,.04-.09,.32-.82,.04-.1,.05-.12,.04-.1"/>
          <path class="cls-1" d="M330.22,697.53l-1.88,1.71-.68,.62-.35,.32-.13,.12-.02,.02-.29,.26-.1,.09-.22,.2-.38,.34,.3,.27,.36,.31h0l.02,.02,.16,.14,.75,.66,.08,.07,.19,.17,.04,.03,.22,.19,1.44,1.26,1.61,.4,4.33,.11,2.84-2.74,.42-1.7-.17-1.44,1.37-1.39"/>
          <path class="cls-1" d="M329.96,696.47l-.7,.92-.85,1.12-1.03,1.36-.27,.35-.04,.06-.22,.3-.06,.08"/>
          <path class="cls-1" d="M311.52,700.74l-.14-.72-.08-.42-.03-.1-.13-.46,.15,.46,.12,.36,.02,.14,.09,.72,.03,.26v.04h0v.02l.03,.23v.09l.09,.63,.14,.19,.05,.07,.02,.02,.08,.12,1.48,2.03,.97,.34h1.59l2.53-1.51"/>
          <path class="cls-1" d="M304.97,698.75l.15,.33,.09,.19,.04,.08,.05,.15,.13,.36,.05,.14,.02,.06,.07,.19,.18,.5,.03,.08,.15,.43,.06,.17v.03l.03,.03,.37,.52,1.24,1.74,1.1,.02"/>
          <path class="cls-1" d="M307.49,685.47l-4.3,3.87-2.49,3.26-1.73,2.46,.87,1.94,.6,1.47,.63,1.26,1.42,2.21,1.08,.08"/>
          <path class="cls-1" d="M324.98,703.7l2.87-.84,.47,.21"/>
          <path class="cls-1" d="M311.01,702.44l.7-.16,.25,.13"/>
          <path class="cls-1" d="M305.35,701.4h.27l.76,.58"/>
          <path class="cls-1" d="M337.74,687.42l.18-.02,.58,.32-.15,1.82,1.11,5.55,.7,2.49-.71-2.46h0l-.08-.28-.3-1.03-.26-2.21-.19-.71-.27-1.35h0"/>
          <path class="cls-1" d="M314.71,666.37h0l-.1,2.7-.03,.66-.13,2.85-1.14,2.34-4.83,8.76-1.09,2.09,.1-.29"/>
          <path class="cls-1" d="M338.69,685.54l.82-2.45-.25-8.24-.12-1.45-.35-4.23-.23-2.8"/>
          <path class="cls-1" d="M73.18,148.27l.71-.21,.15-.05,.25-.07,1.23-.36"/>
          <path class="cls-1" d="M337.24,45.91l-.06-.02-.18-.06h0l-.16-.05-.84-.25"/>
          <path class="cls-1" d="M338.35,689.53l.34-3.99,.28-.85,.16-.48"/>
          <path class="cls-1" d="M343.45,97.93l-.24,1.23-.11,.14-.47,.64"/>
          <path class="cls-1" d="M398.28,53.65l.07-.18,.3-.78"/>
          <path class="cls-1" d="M420.47,699.73l-.03,.09-.22,.69"/>
        </g>
      </g>
    </g>
  </g>
</svg>