<?xml version="1.0" encoding="UTF-8"?>
<svg id="Layer_2" data-name="Layer 2" xmlns="http://www.w3.org/2000/svg" viewBox="0 0 135.23 704.75">
  <defs>
    <style>
      .cls-1 {
        fill: none;
        stroke: #000;
        stroke-linejoin: round;
        stroke-width: 3px;
      }
    </style>
  </defs>
  <g id="Layer_1-2" data-name="Layer 1">
    <g id="ViewLayer_LineSet" data-name="ViewLayer LineSet">
      <g id="strokes">
        <path class="cls-1" d="M37.27,37.76v.04"/>
        <path class="cls-1" d="M37.2,37.32l.08,.46h0s0,.03,0,.03l.06,.36,.04,.27,.02,.14,.03,.07,.02,.05,.09,.2,.04,.08,.04,.06,.04,.06,.38,.52"/>
        <path class="cls-1" d="M76.42,1.71l-1.94-.21-9.94,1.09-4.24,.46-9.23,3.85-2.29,.96-7.03,6.87-.65,.65-3.96,6.85-3.17,6.77-.25,2.65-.35,3.77"/>
        <path class="cls-1" d="M96.41,96.52l-1.29-4.46-.13-6.45,1.02-6.12,1.46-5.93,3.76-5.4,3.84-5.95,3.79-8.29,2.59-9.66,.24-.89-.03-10v-1.16s-2.6-9.66-2.6-9.66l-.66-2.44-5.7-8.22-1.57-2.26-8.76-4.83-3.48-1.92-9.96-.93-2.53-.24-1.82-.17"/>
        <path class="cls-1" d="M26.01,56.19l.59,.1h.1s.33,.07,.33,.07l.24,.04,.03,.02,.04,.02,.3,.16,.48,.26,.06,.03,.16,.09h.01s.28,.26,.28,.26l.13,.11,.09,.08,.05,.04,.13,.11"/>
        <path class="cls-1" d="M33.72,31.65l-.88,3.89-.25,3.98-1.91,2.85-2.43,2.56-2.34,2.56-2.45,2.57-2.21,3.09,.82,3.35,2.35,1.58,1.34,.73,1.04,.98,.37,1.38"/>
        <path class="cls-1" d="M27.17,61.17h0s-.21,1.39-.21,1.39l-.56,1.63-.17,1.54v.17s.34,.93,.34,.93l.22,.57"/>
        <path class="cls-1" d="M38.03,39.3v.02s0,0,0,0v.13s.02,.02,.02,.02v.03s.01,.07,.01,.07h0s0,.02,0,.02l.04,.43,.02,.16,.03,.32v.03s.05,.36,.05,.36l.08,.64v.18s.02,.63,.02,.63v.1s0,.03,0,.03l-.1,.18h0s-.4,.74-.4,.74l-.05,.33v.09s-.09,.52-.09,.52l-.03,.22-.03,.22-.3,.84-.1,.3-.29,.83"/>
        <path class="cls-1" d="M68.39,62.33l.84,.2,.2,.05,.66,.16,.61,.15h.03s.44-.25,.44-.25l.55-.32,.13-.08,.09-.05,.5-.3,.2-.12,.26-.15,.23-.13,.48-.28,.04-.02,.37-.41,.59-.67,.27-.3,.3-.34,.39-.43,.09-.1,.5-.56,.16-.17h0s.01-.02,.01-.02v-.02s.06-.11,.06-.11l.03-.06,.05-.11,.08-.17,.13-.28v-.02s.12-.25,.12-.25l.12-.27,.03-.06,.15-.33,.27-.6,.03-.06,.38-.82,.13-.28,.04-.08,.08-.17,.08-.29,.22-.78,.15-.51v-.02s.02-.04,.02-.04l.02-.05v-.04s.09-.28,.09-.28l.04-.13,.11-.38,.05-.17,.03-.09,.02-.07,.12-.41,.04-.4,.02-.17v-.13s.02-.07,.02-.07v-.1s.1-.77,.1-.77l.1-.91,.06-.57-.05-.47v-.1s-.18-1.69-.18-1.69l-.06-.61v-.1s-.21-.55-.21-.55l-.52-1.44-.09-.24-.16-.43-.29-.21-.9-.64-.59-.41-.08-.05-.29-.21-.38-.03-.8-.05h-.04s-.57-.04-.57-.04l-.24-.02-.5,.18-.3,.11-.88,.31h0s-.23,.2-.23,.2l-.48,.41-.51,.44"/>
        <path class="cls-1" d="M73.21,47.02l.33,.19,.33,.19h0s.13,.35,.13,.35l.03,.07,.29,.77,.02,.06h0s0,.02,0,.02l.02,.09,.07,.25h0s.03,.11,.03,.11h0s.03,.12,.03,.12l.03,.16,.04,.2,.03,.14,.08,.39,.02,.1,.02,.07v.07s.1,.4,.1,.4l.08,.39v.04s0,0,0,0l.09,.43"/>
        <path class="cls-1" d="M72.68,43.32l.23,.19,.05,.04,.25,.21,.04,.04,.04,.03,.03,.03,.13,.11,.3,.26"/>
        <path class="cls-1" d="M47.85,135.17l-1.17,1.89-.16,.25-.06,.1-.25,.41-2.71,4.38-.19,.33-.39,.67-.02,.03-.97,1.67-.96,1.65-.02,.04-.14,.24-.44,.75-.07,.12-.12,.21-.6,1.02-1.99,3.81-.77,1.48-.68,1.31"/>
        <path class="cls-1" d="M69.16,118.4l-.19,.41-.03,.06-.03,.08-.08,.17-.08,.19-.42,.92-.02,.11-.07,.41v.04s-.03,.15-.03,.15l-.02,.09-.05,.32v.03s-.02,.03-.02,.03l-.1,.29-.31,.85"/>
        <path class="cls-1" d="M37.61,152.75l-2.13,3.97-3.11,6.23-2.84,6.14-2.41,6.33-1.26,6.84-.14,4.03,.78,7.77,.56,6.47,.05,.61-.04,.31-.46,3.54-.51,3.87-.31,2.35-.02,.13"/>
        <path class="cls-1" d="M41.51,145.58l-.63,1.15-.06,.1"/>
        <path class="cls-1" d="M42.05,92.51l.07,.07,.02,.02,2.86,2.62,1.63,3.93,2.04,4.29,1.78,4.39,1.47,4.39,1.43,3.99,.83,2.94-.37,3.85-1.61,2.13-2.99,4.24-2.93,5.75-2.92,6.19-2.97,6.23-.2,.39"/>
        <path class="cls-1" d="M108.37,569.59l.5-3.53,.94-9.96,.48-5.1-.71-9.97-.3-4.19-2.48-9.69-.87-3.42-2.2-9.75-.57-2.52-2.99-9.54-.76-2.42-1.42-9.9-.21-1.49-1.24-9.92-.19-1.5,.06-10v-.99s.81-9.97,.81-9.97l.07-.8,1.6-9.87,.14-.88,1.06-9.94,.13-1.17,.58-9.98,.07-1.27,.35-9.99,.08-2.1,.7-9.98,.23-3.33,2.01-9.8,.78-3.83,2.89-9.17,3.83-6.87,4.91-6.66,3.66-5.92,2.05-6.65,1.61-8,.8-8.82-.63-9.12-1.79-8.73-2.3-8.24-3.43-7.66-3.08-7.12-3.07-5.79-2.86-6.62v-.02s-.03-.06-.03-.06l-.06-.91-.21-3.26-.1-1.48-.12-1.85-.09-1.31-.05-.73v-.18s-.01-.56-.01-.56v-1.53s-.04-6.2-.04-6.2v-.47s0-.59,0-.59l.31-2.78,.23-2.05,.24-2.14,.18-1.65,.06-.57v-.05s.59-2.99,.59-2.99l.51-2.61v-.07s.59-2.95,.59-2.95l.07-.34,.83-3.94,.14-.64,.19-.89,.74-3.5,.09-.44,.79-3.85,.14-.67h0s.92-4.52,.92-4.52l.04-.21,.11-.52,.49-2.34,.26-1.24,.33-1.56,.83-3.96,.03-.14,.11-.54,.71-3.89,.28-1.51,.24-1.33,.35-1.93,.16-.89,.83-5.12,.08-.49,.23-1.45"/>
        <path class="cls-1" d="M26.91,702.49l9.61,.76,9.26-.45,9.91-1.3,.68-.09,9.93-1.2,.83-.1,10.04-.77,7.2,.1,6.93-.17,2.41-.07,4.23-.23,2.93-.34,1.31-.35,2.49-.82,.87-.68,3.46-3.9,.65-7.27-1.03-2.95-.17-.48-.08-.23-.59-1.68-.11-.31-.16-.45-.64-1.83-.27-.77-.11-.47-.09-.36-.56-2.34-1.16-4.88-.12-.59-.14-.64-.29-1.35-.02-.08-.03-.14-1.12-5.3-.24-1.14-.04-.21-.05-.64-.07-1.02-.2-2.85-.29-4.18-.05-.73-.19-2.74,.02-1.37,.05-3.41,.05-3.34v-.95s.07-3.73,.07-3.73l.03-.58,.19-4,.17-3.52,.03-.69,.06-1.23,.17-3.61,.27-3.93,.29-4.3v-.11s.01-.09,.01-.09l.25-3.64,.21-3.15,.11-.88,.87-7.28h0s.46-3.84,.46-3.84l.5-4.19,.61-4.08,1.49-9.89,.3-2,.29-3.83,.13-1.74,.12-1.55,.02-.32,.56-7.45,.05-.66-.1-1.36-.16-2.19-.08-1.16-.05-.72-.13-1.78-.03-.45-.02-.26-.49-6.81-.43-1.93-.52-2.36-.17-.77-.51-2.29-.2-.9-1.2-5.4-.84-2.69-.29-.94-.89-2.84-1.18-3.77-.82-2.63-.6-1.68-.67-1.88-.68-1.91-1.58-4.45-.24-.69-.59-1.65-.43-3.15-.04-.28-.1-.77-.04-.29-.64-4.71-.3-2.24-.06-.93-.07-1.1-.11-1.73v-.12s-.05-.6-.05-.6l-.46-7.05v-1.43s.02-.25,.02-.25l.02-2.11v-.51s.08-7,.08-7l.03-.44,.18-2.39,.08-1.05v-.08s.05-.6,.05-.6l.47-6.13,.04-.52,.47-3.55,.02-.12,.79-5.93v-.06s.22-1.56,.22-1.56l.33-3.12,.04-.38,.72-6.76,.15-1.38,.02-.25,.19-2.29,.03-.43,.54-6.6,.18-2.25,.04-1.15,.02-.75,.02-.77,.21-6.96,.1-3.09,.08-1.01,.06-.86,.08-1.09,.46-6.2,.04-.53,.29-3.88,.03-.43,.51-2.82,.79-4.39,.25-1.38,.66-3.65,.21-1.16,.14-.76,.96-2.7,2.15-6.01,.17-.47,.11-.23,.76-1.55,.42-.86,2.3-4.7h0s1.63-2.06,1.63-2.06l.1-.12,.53-.67,.24-.3,1.66-2.09,.53-.67,.43-.54,1.21-1.8,1.46-2.16,.51-.75,.37-.55,.34-.51,.17-.26,.42-1.26,.98-2.91,.39-1.16,.4-1.19,.11-.32,.25-1.01,.58-2.39,.47-1.94,.62-2.54,.03-.12,.04-.36,.22-1.86,.43-3.68,.34-2.88v-.03s-.01-.15-.01-.15l-.35-6.82-.07-1.3-.05-.89h0s0-.05,0-.05l-.61-2.88-1.13-5.38-.06-.29-.06-.28-.04-.19-1.16-3.9-.21-.69-.52-1.73-.46-1.54"/>
        <path class="cls-1" d="M26.6,204.98l-2.13,7.25-2.62,8.39-2.21,8.57-1.73,9.18-1.24,9.4-.84,9.93-.85,9.96-.09,1.05-.8,9.97-.03,.35,.39,6.11,.44,3.74,1.68,7.2,.32,1.37,.02,.27,.63,7.67,.1,1.16,.65,7.21"/>
        <path class="cls-1" d="M17.65,306.54l.59,7.93,.03,8.39-.59,8.03-.14,1.93-.05,.33-1.41,8.83-.65,7.22,.66,4.67,.46,.81,3.5,4.85,.38,.38"/>
        <path class="cls-1" d="M20.66,364.99l-.31,3.28-.78,8.23,.27,10,.07,2.59,1.09,9.94,.31,2.85,1.61,9.87,.53,3.23,2.24,9.75,.72,3.11,2.65,9.64,.63,2.29,2.62,9.65,.54,1.97,2.81,9.6,.48,1.65,1.76,9.84,.45,2.52,.99,9.95,.05,.53,1.43,9.9,.08,.54,3.09,9.51,.1,.32,4.85,8.58,3.77,7.32,3.02,8.62,2.19,9.76,.15,.69,.99,7.95"/>
        <path class="cls-1" d="M58.37,539.88l.05,.63,.06,.75,.58,7.38,.32,4.12,1.13,9.93,.4,3.53,1.37,9.91,.65,4.71,1.7,9.86,.83,4.82,.63,3.56,1.76,9.84,.32,1.77,.1,.55,.03,.17"/>
        <path class="cls-1" d="M66.1,599.08l1.61,9.87,.38,2.32,.94,9.96,.54,5.77,.16,10,.06,3.74-1.15,7.47-.64,4.14-.02,.07-.09,.29-.56,1.76-.93,2.94-.65,2.05-.51,1.61-.02,.07-.41,1.3-.03,.05-2.31,3.32-2.2,3.17-.17,.24-.38,.55-1.98,1.29-2.61,1.71-2.65,1.73-.71,.45-1.68,1.07-1.66,1.05-.58,.37-.66,.42-2.52,1.61-.69,.44-1.45,.97-1.91,1.28-.15,.1-1.86,1.25-.52,.35-2.6,1.75-.08,.06"/>
        <path class="cls-1" d="M116.97,203.1l.11-.6,.03-.16,.15-.81,.91-4.8,.1-.55,.32-1.66,.03-.17,.15-.81,.15-.77,.79-3.3,.37-1.55,.22-.89,1.08-4.49,.65-2.97,1.57-7.5,.72-7.58-.08-7.59-.78-7.6-1.38-7.4-1.88-7.11-1.54-4.63-.72-1.92-2.3-5.66-2.31-4.32"/>
        <path class="cls-1" d="M105.57,145.38l.02-.05h0s.02-.05,.02-.05l.03-.07v-.03s.04-.07,.04-.07v-.02s0,0,0,0l.03-.06v-.02s.21-.49,.21-.49h0s.1-.25,.1-.25l.26-.64,.19-.47,.05-.13v-.02s.2-.46,.2-.46h0s.02-.05,.02-.05l.07-.16v-.04s.06-.11,.06-.11l.22-.54h0l.07-.18,.08-.2,.03-.09,.02-.05,.14-.38,.15-.41,.16-.43,.05-.15,.07-.2,.02-.05,.04-.12,.07-.18,.03-.08,.03-.08v-.04s.13-.31,.13-.31h0s.06-.15,.06-.15l.08-.21,.18-.48,.02-.04,.11-.29,.14-.39,.08-.21v-.04s.09-.21,.09-.21h0s.01-.04,.01-.04l.04-.12,.1-.26,.02-.04v-.02s.01-.02,.01-.02l.23-.62,.11-.31"/>
        <path class="cls-1" d="M103.07,148.74l.29-.38,.34-.45,.07-.09,.04-.05,.08-.1h0s.04-.06,.04-.06h0s.01-.02,.01-.02l.06-.08,.19-.26,.05-.07,.08-.11,.06-.08,.03-.04,.29-.39,.19-.25,.08-.11,.05-.06,.03-.03,.05-.07,.02-.03,.36-.48h0s.06-.09,.06-.09l.02-.02,.03-.04,.02-.03,.04-.07,.02-.04,.02-.02,.04-.07h0s.03-.06,.03-.06h0s.07-.12,.07-.12l.16-.25,.08-.13,.02-.04h0s.09-.15,.09-.15l.18-.29h0s.05-.1,.05-.1l.02-.02v-.02s.02,0,.02,0l.08-.12,.07-.12,.06-.09h0s.02-.03,.02-.03l.02-.02,.08-.14,.08-.13v-.02s.14-.22,.14-.22h0s.03-.06,.03-.06l.03-.06,.08-.12h0s.03-.06,.03-.06h0s.03-.07,.03-.07h0l.24-.39,.06-.1,.05-.09h0s.07-.12,.07-.12l.06-.1,.09-.15"/>
        <path class="cls-1" d="M107.81,141.75l.07-.28,.13-.49,.19-.74,.05-.18,.12-.47,.06-.25,.05-.21,.13-.49,.02-.09,.04-.14,.12-.47,.17-.66,.21-.81,.02-.07,.03-.1,.26-1.03v-.07s-.02-.26-.02-.26l-.08-1.46-.11-1.99h0s0-.02,0-.02l-.06-1.19-.06-1.12v-.15s-.03-.5-.03-.5l-.18-1.65-.1-.39-.14-.56-.03-.14"/>
        <path class="cls-1" d="M19.67,353.79l.23,1.15,.15,.75,.32,1.58,.13,.65,.04,.19"/>
        <path class="cls-1" d="M103.7,148.25l.09-.11,.04-.05,.04-.05,.04-.05,.05-.06h0s.03-.05,.03-.05l.02-.03,.03-.05,.2-.27,.05-.07,.11-.14,.03-.05,.05-.07,.18-.24,.12-.15,.07-.1,.15-.19,.05-.07h0s.03-.04,.03-.04l.09-.11,.05-.06,.21-.27,.1-.13,.08-.1h0s.02-.03,.02-.03l.04-.05,.1-.13,.02-.02h0s.04-.05,.04-.05v-.02s.02,0,.02,0h0s.02-.04,.02-.04l.04-.07h0s.02-.04,.02-.04h0s.06-.11,.06-.11l.1-.18,.07-.13,.34-.64v-.02s.09-.16,.09-.16l.06-.1,.08-.15,.02-.03,.15-.28v-.02s.06-.09,.06-.09l.1-.18v-.02s.04-.06,.04-.06l.03-.05,.14-.26h0l.17-.33,.13-.25,.02-.03,.03-.06,.07-.12,.05-.09,.1-.19,.08-.26,.13-.44,.43-1.4,.05-.16h0s.03-.16,.03-.16l.16-.87,.1-.54"/>
        <path class="cls-1" d="M21.06,350.47l-.36,5.33h0s-.02,.32-.02,.32l-.1,1.43-.03,.42v.15s-.06,.7-.06,.7l-.02,.29-.04,.56v.09s0,.08,0,.08v.09s-.09,8.36-.09,8.36"/>
        <path class="cls-1" d="M102.45,134.23l.3-.33,.02-.02,.06-.07,.19-.2,.16-.17,.03-.03,.22-.24h.01s0-.02,0-.02l.12-.13,.3-.32,.05-.05,.32-.35,.09-.09,.24-.26h0s.07-.08,.07-.08l.1-.11,.03-.04,.08-.08,.19-.21,.11-.12h0s.48-.64,.48-.64l.04-.05,.1-.14h.01s.05-.07,.05-.07l.42-.55,.02-.02,.04-.05,.02-.03,.13-.17v-.02s.11-.12,.11-.12l.15-.19,.12-.16,.27-.35,.03-.04,.05-.07,.45-.88,.17-.33,.07-.13h0s.02-.04,.02-.04l.04-.09,.03-.06,.06-.12,.17-.32h0s.04-.09,.04-.09h0s.03-.07,.03-.07h0s0-.02,0-.02h0s.02-.04,.02-.04l.04-.08h0s.03-.08,.03-.08v-.02s.02-.01,.02-.01l.04-.08,.04-.07,.02-.04,.04-.07,.03-.07,.02-.04,.03-.05v-.02s.03-.07,.03-.07l.06-.15,.05-.13,.05-.12,.14-.36,.23-.61,.08-.22,.05-.14,.15-.4,.04-.11,.08-.21,.02-.06,.02-.05,.03-.09,.03-.07,.06-.16v-.03s.06-.14,.06-.14l.07-.21,.16-.53v-.04s.09-.24,.09-.24l.08-.24,.06-.18h0s.15-.49,.15-.49h0s.01-.04,.01-.04v-.05s.07-.16,.07-.16l.02-.05v-.02s.08-.24,.08-.24l.05-.15v-.07s.09-.89,.09-.89l.08-.86v-.05"/>
        <path class="cls-1" d="M106.33,130.07l.08-.24,.08-.26"/>
        <path class="cls-1" d="M92.99,140.23l.59-.25h0s.31-.14,.31-.14l.07-.03,.82-.35,1.19-.51,.61-.34,.33-.19,.04-.02,.72-.4,.06-.03,.12-.07h0s.02-.01,.02-.01l.08-.04h.02s.07-.05,.07-.05l.1-.06,.08-.04,.04-.02,.05-.03h.02s.03-.03,.03-.03l.21-.12,.04-.02h.01s.01-.01,.01-.01h0s.21-.12,.21-.12l.09-.05,.15-.09,.7-.45,.2-.13,.55-.35,.16-.1,.17-.11,.04-.02,.03-.02,.82-.53,.04-.03,.17-.11,.2-.19h0s.16-.16,.16-.16l.18-.17,.49-.46,.04-.04,.15-.14,.15-.14,.08-.08,.04-.04,.05-.06,.18-.2,.05-.05h0s0,0,0,0l.04-.05h.01s.36-.42,.36-.42h0s.03-.04,.03-.04h0l.33-.37,.06-.06,.26-.29,.05-.06,.04-.04"/>
        <path class="cls-1" d="M84.17,139.39l1.43,.3,.28,.06h.02s.17,.04,.17,.04l3.56,.66,.45,.08,.36,.07,.22,.04,.13,.02"/>
        <path class="cls-1" d="M103.77,133.56l.39-.44h0s.01-.02,.01-.02l.02-.02,.33-.36,.06-.06,.26-.29,.05-.06,.04-.04,.12-.13,.23-.26,.14-.16,.6-.67,.07-.08,.05-.06,.21-.24,.05-.05,.15-.17,.15-.25,.14-.23,.56-.93,.35-.58,.06-.34,.07-.38,.03-.2,.03-.17,.05-.26"/>
        <path class="cls-1" d="M96.9,139.05l.28-.2,.14-.1,.13-.09,.44-.32,.04-.03,.09-.07,.03-.02h.01s.18-.14,.18-.14l.05-.04,.04-.03,.11-.08h0s.05-.04,.05-.04h.01s.04-.04,.04-.04l.05-.04,.2-.14,.03-.02h.02s.02-.02,.02-.02h.01s.18-.14,.18-.14l.25-.18,.58-.42"/>
        <path class="cls-1" d="M94.88,139.66l.25-.06h.05s1.09-.35,1.09-.35l.64-.2-.63,.19-.84,.25-.19,.06-.13,.04-.08,.02-.15,.05-1.02,.31-.86,.26-1.21,.24-.83,.16-.17,.03h-.37s-1.14,.02-1.14,.02"/>
        <path class="cls-1" d="M78.09,101.43l-1.05-.14-.96-.13-.44,.06-1.19,.17-.4,.06-.14,.07-1.42,.68-2.75,1.32-.05,.03-1.71,.82-.62,.3-.82,.4-1.25,.6-.55,.45-1,.82-.78,1.07"/>
        <path class="cls-1" d="M104.67,147.63v-.02s.16-.3,.16-.3l.07-.15,.17-.35,.03-.06,.08-.15,.05-.1,.05-.11,.23-.47,.08-.17"/>
        <path class="cls-1" d="M105.71,145.68l.07-.17"/>
        <path class="cls-1" d="M57.17,116.65l-.06,.13-.21,.5-.03,.07-.62,1.45-.61,1.42v.03s-.03,.04-.03,.04l-.57,1.32v.03s-.13,.27-.13,.27l-.07,.16-.08,.18-.04,.1-.33,.77-.09,.22-.04,.1-.46,1.08-.18,.42-.29,.82-.03,.07-.15,.41-.57,1.64-.21,.6-.17,.5v.03s-.06,.15-.06,.15l-.09,.25v.03s-.01,0-.01,0l-.02,.07-.09,.26-.15,.42h0s-.06,.17-.06,.17l-.14,.39-.03,.08-.42,1.2-.4,1.12"/>
        <path class="cls-1" d="M26.47,70.78v.08s.02,.08,.02,.08l.06,.74,.11,1.24,1.08,2.37-.78,3.42-.33,5.39,.04,.52,4.26,4.21,.24,.22,6,2.23,4.99,1.3"/>
        <path class="cls-1" d="M90.46,96.26l-.54-.03-1.23-.08-1.32-.08-.26-.02-1.71-.11-1.28,.77-.32,.19-2.75,1.65-.09,.05-1.69,1.01-.5,.78-.19,.3-.48,.74-.05,.07-.12,.2-.06,.09-.07,.11h0s-.03,.05-.03,.05l-.07,.11-.53,.82-.07,.11-.28,.43-.2,.3-.15,.23-.14,.22"/>
        <path class="cls-1" d="M99.24,136.89l.39-.33,.16-.13,.68-.57,.15-.13,.84-.7,.02-.02,.22-.18h.02s.29-.26,.29-.26l.17-.14,.26-.21,.32-.31,.02-.02,.07-.07,.19-.19,.16-.16,.03-.03,.22-.22,.02-.02,.19-.18,.26-.25,.04-.04,.34-.34,.07-.06,.02-.02,.21-.32,.06-.1,.09-.14"/>
        <path class="cls-1" d="M56.75,107.85h-.09s-.03,.01-.03,.01h-.09s-.96,.1-.96,.1l-.72,.07-.5,.32-.49,.31-.16,.29v.02s-.26,.45-.26,.45l-.33,.6-.24,.44v.38s.03,1.19,.03,1.19v.52s.69,1.13,.69,1.13l.1,.16,.08,.09,.5,.56,.37,.42,.07,.06,.41,.35,.65,.55,.44,.38,.96,.42h.02s0,.01,0,.01h.01s.02,.01,.02,.01l.26,.11,.22,.07h.02s.17,.07,.17,.07l.15,.05,.23,.08,.45,.15h.02s.19,.07,.19,.07l.48,.16,.5,.17,.12,.04h.04s.18,.05,.18,.05l.74,.17,.1,.02h.05s.02,.02,.02,.02l.8,.18h.02s.32,.08,.32,.08h.15s.15-.02,.15-.02l.25-.02,.54-.04h.02s.52-.04,.52-.04h.18s.03-.02,.03-.02h.1s.18,0,.18,0h.36s1.11-.02,1.11-.02h.43s.04,0,.04,0l.16,.02h.06s.13,.03,.13,.03h.06s.6,.09,.6,.09l.6,.09h.06s.04,.01,.04,.01l.65,.09,.17,.02,.21,.03h.07s.08,.02,.08,.02h.07s.09,.02,.09,.02h.02s.06,.02,.06,.02h.03s.03,.02,.03,.02h.03s.24,.08,.24,.08h.04s0,.02,0,.02h.03s0,0,0,0h.03s.06,.03,.06,.03h0s0,0,0,0l.24,.08,.46,.15h.03s.27,.09,.27,.09l.11,.04,.05,.02,.35,.11,.19,.06,.19,.06h.03s.25,.09,.25,.09l.18,.08,.15,.06,.09,.04,1.13,.46,.12,.05,.32,.13,.06,.03,1.08,.44,.23,.1,.23,.05,.46,.11,.37,.09,.17,.04,.08,.02,.22,.05,.07,.02,.16,.04h.05s1.35,.33,1.35,.33l.06,.02,.6,.14,.76,.18h.78s.18,0,.18,0h1.5s.14-.01,.14-.01h.05s.08,0,.08,0h.44s.54,0,.54,0h1.19s.45-.1,.45-.1l.84-.18,1.2-.25h.02s1.08-.23,1.08-.23l.71-.15,.12-.04,.71-.22,.23-.07,.36-.11,.18-.06,.33-.1,.47-.15,.09-.03,.68-.21h.04s.27-.1,.27-.1l.28-.07,.12-.03,.07-.02h.04s.29-.09,.29-.09l.27-.07,.06-.02h.03s1.02-.28,1.02-.28l.15-.04,.38-.1,.12-.03,1.8-.05h.09s.41-.02,.41-.02l.55,.04,.2,.02,1.34,.11h.11s1.12,.1,1.12,.1l.34,.03,1.06-.12h.1s.15-.03,.15-.03l.39-.04,.46-.05,.67-.07,.34-.04,.45-.05h.12s.03-.02,.03-.02h.07s0,0,0,0h.01s0,0,0,0h.03s0,0,0,0h.02s.01,0,.01,0h.07s.02,0,.02,0h.02s.04,0,.04,0h.01s.01,0,.01,0l.18-.02h.02s0,0,0,0h.02s.02,0,.02,0h.02s.02,0,.02,0h.02s.07-.01,.07-.01h.04s.03,0,.03,0h.01s0,0,0,0h.01s.02,0,.02,0h.05s.03,0,.03,0h.04s.12-.02,.12-.02l.53-.06h.01s.05,0,.05,0h.02s0,0,0,0h.06s0,0,0,0h.11s.16-.03,.16-.03l.29-.03h.11s0-.01,0-.01l.25-.03h.05s.16-.02,.16-.02h.07s.25-.03,.25-.03h.03s.21-.03,.21-.03h.09s.04-.01,.04-.01h.04s.02,0,.02,0h0s.02,0,.02,0h.03s.04,0,.04,0h.02s.15-.02,.15-.02l.21-.02h.04s.2-.03,.2-.03h.02s.07,0,.07,0h.1s.04-.02,.04-.02h.07s.19-.03,.19-.03h.05s.32-.04,.32-.04h.06s.05-.01,.05-.01h.08s.09-.02,.09-.02h.02s.08-.01,.08-.01l.39-.15,.06-.02,.08-.03,.14-.05,.2-.08,.25-.13h.02s.16-.09,.16-.09l.11-.06,.04-.02,.19-.1,.12-.06h.02s.11-.07,.11-.07l2.05-1.05,.78-.71,.94-.68,.85-.73,1.65-1.51"/>
        <path class="cls-1" d="M82.49,108.01l.04,.06,.02,.03,.02,.03,.03,.05,.09,.12,.06,.09,.03,.04h0s0,0,0,0h.01s0,0,0,0l.05,.02h.02s.02,.02,.02,.02"/>
        <path class="cls-1" d="M85.14,99.98l-.16,.08-.06,.03-.09,.05-.13,.07-.27,.16-.06,.03-.21,.13-.59,.35h-.02s-.22,.14-.22,.14l-.03,.02h0s-.07,.05-.07,.05l-.02,.02h-.02s0,0,0,0l-.06,.04-.14,.08-.03,.02-.55,.33h0l-.04,.05-.03,.04-.23,.28-.02,.03v.03s-.03,.05-.03,.05l-.05,.11h0s0,.01,0,.01l-.07,.16v.02s-.1,.2-.1,.2h0s-.02,.06-.02,.06l-.04,.09-.05,.13-.05,.11h0s-.05,.13-.05,.13l-.04,.1v.03s-.02,.01-.02,.01v.02s-.05,.11-.05,.11l-.04,.09v.02s-.11,.23-.11,.23v.03s-.06,.1-.06,.1v.03s-.01,.01-.01,.01l-.04,.13-.09,.28v.05s0,.03,0,.03v.02s0,0,0,0v.08s0,.09,0,.09v.03s0,.11,0,.11h0v.12s.02,.07,.02,.07v.03s.03,.11,.03,.11v.02s0,.02,0,.02v.05s.01,0,.01,0l.02,.12,.03,.14v.08s.06,.25,.06,.25l.04,.24,.03,.16,.02,.1v.05s.03,.09,.03,.09v.03s0,0,0,0l.03,.14v.02s0,.02,0,.02"/>
        <path class="cls-1" d="M92.25,97.82h-.06s-.27,.03-.27,.03l-.9,.07-.67,.05-.19,.02h-.11s-.15,.02-.15,.02h-.14s-.07,.02-.07,.02h-.03s-.02,0-.02,0h-.03s0,0,0,0h-.07s-.03,0-.03,0h-.05s-.16,.02-.16,.02l-.2,.02h-.12s-.21,.03-.21,.03l-.29,.02h-.1s-.14,.02-.14,.02l-.23,.02h-.17s-.05,.02-.05,.02l-.26,.02h-.12s-.39,.04-.39,.04h-.04s-.1,.01-.1,.01l-.07,.05-.04,.02h-.02s-.84,.56-.84,.56l-.08,.05-.3,.2-.21,.14-.06,.04-.03,.02-.08,.05-.25,.17-.07,.05-.63,.41-.05,.03-.07,.05-1.12,.73-.16,.1-1.09,.71-.35,.23-.26,.17-.11,.07h0s-.21,.14-.21,.14l-.03,.02-.34,.22"/>
        <path class="cls-1" d="M81.33,105.95l.03,.18,.03,.22v.05s.05,.14,.05,.14h0s0,.03,0,.03l.11,.32,.02,.07v.03s.05,.05,.05,.05l.03,.04,.04,.05,.02,.02,.3,.34,.03,.03,.03,.04h0s0,0,0,0h0s.01,.02,.01,.02h0s.07,.08,.07,.08h.01s.02,.03,.02,.03l.18,.21,.04,.04,.07,.08,.04,.05,.02,.03h0s.01,.02,.01,.02l.03,.04h0s.04,.05,.04,.05h0s.02,.03,.02,.03l.09,.11,.03,.03h0l.07,.08h0s.02,.02,.02,.02l.04,.05h0s.03,.03,.03,.03h0s.03,.04,.03,.04l.09,.1h0s.02,.03,.02,.03l.13,.02,.15,.02,.9,.14h.04s1.01,.17,1.01,.17h.03s.36-.1,.36-.1l.13-.06,.63-.28,1.35-.59,.09-.04"/>
        <path class="cls-1" d="M88.9,100.88l-.31-.1-.2-.06-.32-.1-.61-.13-1.06-.23-.2-.04h-.01s-.02,0-.02,0h-.01s0,0,0,0l-.1-.02h-.05s-.08-.03-.08-.03l-.16-.04h-.04s-.06-.02-.06-.02l-.1-.02h-.01s-.03,0-.03,0h-.01s0,0,0,0h-.01s-.02,0-.02,0h-.02s0,0,0,0h-.02s-.12-.03-.12-.03h-.01s-.04-.01-.04-.01l-.11-.02h0s.01,0,.01,0l.19-.03h.03s.02,0,.02,0l.15-.03h.04s.08-.02,.08-.02l.09-.02h.02s0,0,0,0h.08s.06-.03,.06-.03l.09-.03h.04s.24-.09,.24-.09l.25-.09,.14-.05"/>
        <path class="cls-1" d="M92.1,97.46l-.3,.07-.08,.02h-.03s-.03,.01-.03,.01l-.15,.03h-.06s-.78,.19-.78,.19h-.02s-.26,.06-.26,.06l-.13,.03-.23,.05-.29,.07h-.02s-.01,0-.01,0h-.06s0,.01,0,.01h0s-.08,.02-.08,.02h-.04"/>
        <path class="cls-1" d="M108.61,101.05l-.58,.09-.83-.11-2.14-.68h-.05s-.02-.02-.02-.02l-.05-.02h-.02s-.12-.05-.12-.05"/>
        <path class="cls-1" d="M101.33,98.3l-.5-.19-1.69-.63-2.07-.77-.42-.16-.24-.02h-.1s-.01,0-.01,0h-.14s-.01-.02-.01-.02l-.36-.03-.2-.02h-.08s-.36-.04-.36-.04l-.2-.02-.22-.02-.25-.02-.3-.03-1.45-.14-.18-.02-.45-.04-.8-.07-.43,.19-.05,.02-.06,.02-.23,.1-.08,.03-.85,.38-.32,.14-.13,.06-.1,.04-.17,.08-.39,.17-.46,.21-.59,.27-.17,.08-.48,.22-.55,.25h-.03s-.26,.13-.26,.13l-.2,.25-.07,.08-.37,.45"/>
        <path class="cls-1" d="M104.07,99.76l-2.42-1.78-4.58-1.28"/>
        <path class="cls-1" d="M95.32,97.1h-.12s-.08-.01-.08-.01l-.64-.05h-.12s-.17-.02-.17-.02l-.38-.03-.33-.02h-.04s-.05,0-.05,0h-.14s-.06-.01-.06-.01l-.56-.04h-.16s-.11-.02-.11-.02l-.28-.02-.38,.14-.34,.13h0l-.25,.09-.07,.03-.21,.08-.18,.07-.18,.07-.1,.04h-.04s-.74,.29-.74,.29l-.23,.09-.27,.1-.34,.13"/>
        <path class="cls-1" d="M100.39,98.55l-.29-.08-2.37-.69-1.05-.31h0s0,0,0,0h-.01s0,0,0,0h-.03s-.1-.04-.1-.04l-.28-.08h0s-.01,0-.01,0l-.33-.09-.15-.04-.07-.02-.12-.03-.2-.05h-.03s.29,.02,.29,.02h.11s.39,.05,.39,.05h.06s.22,.03,.22,.03h.12s.03,.02,.03,.02h.03s.01,0,.01,0h.03s.83,.09,.83,.09l.39,.04"/>
        <path class="cls-1" d="M87.93,107.99l.11-.17,.02-.03h0s.01-.04,.01-.04h0s.03-.07,.03-.07l.05-.09,.02-.04,.08-.15v-.02s.15-.26,.15-.26l.02-.04,.09-.17,.02-.04,.05-.09,.14-.27,.11-.2h0s.05-.1,.05-.1l.1-.2,.15-.28,.05-.1,.06-.11"/>
        <path class="cls-1" d="M74.17,105.7l-.13,.04-.85,.27-1.07,.34-.07,.02-1.42,.45-1.1,.48-.14,.06-.24,.1h-.01s-.07,.04-.07,.04l-1.25,.54-.1,.04-.5,.08-.54,.08-.37,.06"/>
        <path class="cls-1" d="M107.84,101.25l-.26,.06h-.02s-.07,.02-.07,.02l-.07,.02h-.04s-.02,.01-.02,.01l-.16,.04h-.01s-.02,0-.02,0l-.12,.03-.08,.02h-.05s-.46,.12-.46,.12l-.08,.02-.2,.05h-.02s0,0,0,0h0s-.03,0-.03,0h-.05s-.2,.06-.2,.06l-.23,.06-.03,.02"/>
        <path class="cls-1" d="M87.78,108.12l.15-.13,.11-.17,.03-.04h0s.02-.04,.02-.04l.04-.07,.06-.09,.13-.18v-.02s.18-.24,.18-.24l.03-.04,.11-.16,.03-.04,.05-.07,.29-.42,.03-.04h0s.06-.09,.06-.09l.14-.21,.14-.21"/>
        <path class="cls-1" d="M81.98,102.57l-.02,.02-.02,.02h-.01s-.02,.04-.02,.04l-.03,.04-.04,.05"/>
        <path class="cls-1" d="M81.61,105.52v-.18s-.01-.03-.01-.03v-.04s0-.1,0-.1v-.18s-.02-.14-.02-.14h0s0-.03,0-.03v-.05s0-.02,0-.02v-.11s-.01-.08-.01-.08v-.04s0-.08,0-.08v-.09s0-.03,0-.03h0s0-.03,0-.03v-.06s-.01-.14-.01-.14h0s0-.06,0-.06v-.04s0-.08,0-.08v-.07s0-.07,0-.07h0s.03-.09,.03-.09v-.02s0,0,0,0v-.03s.01,0,.01,0v-.03s.03-.07,.03-.07l.03-.09,.02-.07,.02-.07,.03-.08h0s0-.01,0-.01h0s0-.02,0-.02v-.04s.02-.01,.02-.01l.05-.17h0s.04-.13,.04-.13v-.02s0,0,0,0l.02-.07v-.02s0,.02,0,.02l-.02,.08v.02"/>
        <path class="cls-1" d="M87.57,103.06l-.1-.07-.1-.07-.21-.14h0s-.1-.07-.1-.07h0s-.01-.01-.01-.01l-.09-.06h-.01s-.05-.05-.05-.05h0s-.4-.27-.4-.27l-.09-.07-.03-.02-.02-.02h-.03s0,0,0,0l-.23-.04-.11-.02-1.13-.21-.09-.02h-.07s-.21-.05-.21-.05h0s-.06-.01-.06-.01l-.09-.02h-.03s-.04-.01-.04-.01"/>
        <path class="cls-1" d="M85.85,108.6l.28-.07h.04s.09-.08,.09-.08l.39-.28,.28-.2,.4-.29,.05-.04h.01s.09-.07,.09-.07l.11-.08,.23-.17,.02-.02,.02-.02,.14-.15,.04-.13v-.02s.06-.18,.06-.18h0l.02-.06,.03-.11,.14-.47v-.04s.04-.09,.04-.09l.05-.16,.03-.09,.06-.21,.04-.14,.08-.26v-.06s-.03-.07-.03-.07v-.06s-.04-.13-.04-.13h0l-.02-.09-.11-.53v-.04s-.01-.02-.01-.02l-.08-.35v-.06s-.08-.22-.08-.22l-.09-.3"/>
        <path class="cls-1" d="M82.38,107.89l.02,.04,.1,.18,.03,.05,.07,.13,.06,.12,.04,.08,.04,.08,.03,.05h0s.05,.09,.05,.09l.03,.06h0s.03,.06,.03,.06h0s.38,.38,.38,.38l.07,.06h.01s.06,.07,.06,.07"/>
        <path class="cls-1" d="M100.41,107.44l.26-.04h.05s.24-.04,.24-.04l.18-.03h.01s.39-.05,.39-.05h.01s.27-.04,.27-.04h.04s.29-.05,.29-.05h.02s.15-.07,.15-.07l.08-.03h.02s0-.01,0-.01h.03s.05-.03,.05-.03l.04-.02,.17-.07,.09-.04"/>
        <path class="cls-1" d="M98.11,98.68l-.07,.05h0s-.06,.05-.06,.05h-.01s-.01,.02-.01,.02l-.05,.04-.22,.16h-.02s-.04,.04-.04,.04l-.03,.02-.02,.02-.04,.03-.06,.04-.03,.02-.08,.06-.2,.14-.03,.02h0s-.07,.05-.07,.05l-.08,.06h-.01s-.02,.02-.02,.02l-.14,.1h-.01s-.65,.48-.65,.48l-.13,.1h0s-.03,.05-.03,.05h0s-.05,.07-.05,.07l-.16,.22h0s-.12,.18-.12,.18l-.05,.07-.17,.23"/>
        <path class="cls-1" d="M102.24,107.27l.11-.12,.07-.07h0"/>
        <path class="cls-1" d="M102.2,99.83l-.31-.12-2.6-.99-.29-.05h-.08s-.05-.01-.05-.01h-.08s-.09,0-.09,0h-.04s-.16,0-.16,0h-.07s-.16,0-.16,0h-.14s-.02,0-.02,0l-.08,.04h0s-.07,.04-.07,.04h-.01s-.03,.02-.03,.02h-.02s-.25,.14-.25,.14l-.06,.03h0"/>
        <path class="cls-1" d="M106.07,103.44v-.09s-.09-.7-.09-.7v-.03s-.05-.38-.05-.38v-.09s-.06-.05-.06-.05h0s0,0,0,0h0s-.02-.04-.02-.04l-.09-.1-.03-.03-.08-.1-.02-.02-.48-.59-.1-.27-.02-.06v-.02s-.02-.04-.02-.04v-.03s-.05-.09-.05-.09l-.04-.11h0s-.02-.07-.02-.07l-.07-.19h0s0-.02,0-.02h0s0-.01,0-.01v-.03s-.01,0-.01,0h0s0-.01,0-.01h0s0,0,0,0h0s-.15-.39-.15-.39l-.58-.09h-.04s-.14-.03-.14-.03l-.23-.04h-.02s-.07-.01-.07-.01h-.05s-.05-.02-.05-.02h-.08s0-.01,0-.01h-.02s-.05-.01-.05-.01h0l-.12-.02h0s-.05,0-.05,0l-.2-.03h-.01s-.07-.01-.07-.01l-.16,.03h-.02s-.12,.03-.12,.03h-.06s-.31,.2-.31,.2l-.05,.03h-.02s-.02,.03-.02,.03l-.08,.05-.06,.03h0s-.07,.05-.07,.05l-.05,.03-.03,.02-.03,.02h-.02s-.01,.01-.01,.01h-.01s0,0,0,0h0s-.01,0-.01,0h-.01s-.04,.03-.04,.03h-.02s-.04,.04-.04,.04h0s0,0,0,0l-.1,.06h0s0,0,0,0l-.04,.03h-.01s-.02,.02-.02,.02h-.01s-.07,.05-.07,.05h-.02s-.03,.03-.03,.03l-.22,.13-.05,.03h0s-.15,.09-.15,.09l-.29,.18"/>
        <path class="cls-1" d="M101.67,100.08l-.07-.02-.08-.02-.25-.07h-.04s-.03,0-.03,0h-.08s-.09-.01-.09-.01h-.02s-.04,0-.04,0h-.14s-.07-.02-.07-.02h0s-.16-.01-.16-.01"/>
        <path class="cls-1" d="M102.5,106.93h.08s.13,0,.13,0h.09s.16,0,.16,0h0l.1-.02h.04s.02-.01,.02-.01l.19-.04h0s0,0,0,0l.15-.03,.16-.03,.18-.04h.02s0,0,0,0l.06-.04,.17-.12h.01s.05-.05,.05-.05l.21-.16h.01s.02-.02,.02-.02l.03-.02h0s0-.01,0-.01h0s.04-.04,.04-.04l.46-.35,.4-.3,.19-.14,.09-.07,.04-.03,.18-.68,.05-.2,.03-.11,.02-.07v-.03s.07-.24,.07-.24v-.05s.02-.04,.02-.04h0s0-.01,0-.01h0s0-.02,0-.02l.02-.07h0s0-.02,0-.02v-.03s.02-.02,.02-.02v-.04s.06-.19,.06-.19h0s-.06-.23-.06-.23"/>
        <path class="cls-1" d="M111.28,108.41l.81,.08,.19-.02h.1s.12-.02,.12-.02l.19-.02h.08s.12-.02,.12-.02l.18-.02h.07s.02,0,.02,0h.07s.16-.02,.16-.02l.71-.07h0l.3-.03,.09-.03,.74-.21,.06-.02,.43-.12,.37-.22h.01s.19-.12,.19-.12l.06-.03"/>
        <path class="cls-1" d="M114.9,101.65l-.9-.29-.74-.15-.99-.25-.76-.38-.83,.08"/>
        <path class="cls-1" d="M108.04,101.2h.03s.01-.01,.01-.01l.53-.13,.94-.23,1.12-.15-.99,.2h-.05s-.91,.19-.91,.19h-.01s-.23,.05-.23,.05l-.15,.03-.16,.03-.09,.02h-.01s-.04,0-.04,0l-.08,.02-.12,.03-.17,.05-.08,.02h-.02s-.06,.02-.06,.02l-.07,.02h-.03s-.02,.01-.02,.01l-.16,.04h0s-.01,0-.01,0l-.11,.03-.09,.02-.05,.02-.19,.05"/>
        <path class="cls-1" d="M111.05,109.44l1.51-.65h.01s0,0,0,0h0s.15-.08,.15-.08l.23-.12,.29-.15,.15-.08"/>
        <path class="cls-1" d="M114.08,107.93l.56-.1h.02s.26-.02,.26-.02h.09s.12-.01,.12-.01l.51-.04,.13-.05,.15-.05,.12-.05,.07-.02,.18-.06h0s.08-.03,.08-.03h0s.12-.05,.12-.05l.12-.04,.64-.23,.3-.11,.16-.11,.34-.23,.02-.02,.17-.21,.33-.41,.4-.48,.02-.09,.11-.52h0s.05-.25,.05-.25v-.03s0-.01,0-.01l.08-.4-.33-1.09-.19-.31-.47-.88-1.35-.52-.59,.03-.68,.1-.56,.04-.17-.02-.27-.04"/>
        <path class="cls-1" d="M116.29,107.53h.07s.14-.08,.14-.08"/>
        <path class="cls-1" d="M112.64,109.47l.05-.41,.03-.29v-.06"/>
        <path class="cls-1" d="M127.5,111.08h.28s.3,.03,.3,.03h.23s.33,.03,.33,.03l1.78,.12,.91-.21,1.26-.5,.88-.89,.26-1.16-.22-1.23-1.07-.89-.82-.2-.92,.02-.69-.02-.59-.18-.92-.27-1.37-.12-1.59-.48-1.36-.33h-2.34s-.05,0-.05,0l-1.74,.15h-.22s-.21,.03-.21,.03l-.53,.03"/>
        <path class="cls-1" d="M118.5,112.9l.58-.25h.02s1.07-.46,1.07-.46l2.33-.58,1.47-.42,1.41,.1,1.83,.05,1.1-.23"/>
        <path class="cls-1" d="M121.8,104.79l-2.23-.11-.41,.03"/>
        <path class="cls-1" d="M67.55,108.42h-.06s-.28-.03-.28-.03l-.33-.03-.3-.03h-.16s-.12-.03-.12-.03h-.11s-.9-.1-.9-.1l-.28-.02-.33-.03h-.18s-.16-.03-.16-.03l-.24-.02-.61-.05h-.11s-.04-.01-.04-.01h-.14s-.21-.03-.21-.03h-.05s-.23-.02-.23-.02h-.34s-1.02,.03-1.02,.03l-.7,.02-1.7-.35-.73-.15-.09-.02-1.22,.27-.26,.06"/>
        <path class="cls-1" d="M85.54,99.13l-.2,.09h-.02s-.13,.07-.13,.07l-.08,.03-.05,.02-.45,.2-1.39,.61-.62,.27-.06,.03-.23,.1-.94,.41h-.02s-.2,.09-.2,.09l-1.06,.46-.07,.03-.17,.12-.17,.12-.22,.16-.03,.02h0s-.15,.1-.15,.1l-.29,.21-.03,.02-.18,.13-.22,.16-.45,.32-.13,.09-.06,.04h-.02s-.05,.05-.05,.05l-.09,.07-.05,.04-.69,.49h-.01s-.02,.02-.02,.02l-.34,.24-.18,.13-.15,.11-.35,.24h-.01s-.53,.39-.53,.39l-.42,.3-.2,.14-.63,.45-.11,.08h0"/>
        <path class="cls-1" d="M112.72,117.38l.62,.87-.51-.93"/>
        <path class="cls-1" d="M103.71,148.53l.14-.21,.02-.03,.04-.06h0s.08-.12,.08-.12h0s.06-.1,.06-.1h0s.02-.03,.02-.03l.18-.28,.1-.15,.09-.14,.02-.03,.07-.11,.28-.43,.06-.09,.15-.23"/>
        <path class="cls-1" d="M26.58,66.84l.26,.76,.65,1.33-1.01,1.86-.03,.14,.1,.77"/>
        <path class="cls-1" d="M18.33,694.05l-1.37,.36-.26,.07-1.18,.32-1.82,.49-.68,.18-.42,.17-.3,.12-.07,.03-.62,.26-.51,.21-.23,.09-.23,.1-.54,.22-.53,.22-.17,.07-.51,.21-.14,.05-.06,.02-1.48,.42-.1,.03-.9,.26-.04,.13-.12,.37-.08,.26-.02,.06-.02,.07-.08,.26-.14,.45-.02,.06-.11,.34,.37,.59,.32,.51,.02,.03,.51,.81,2.6,.17,2.75-.28"/>
        <path class="cls-1" d="M12.09,692.55h-2.94s-3.35,.02-3.35,.02l-4.29,.63,.77,3.67"/>
        <path class="cls-1" d="M2.02,697.26l-.25,1.85-.07,.51,1.62,1.26,2.99,.17"/>
        <path class="cls-1" d="M26.53,695.64l-1.95,.95-2.39,1.04-.26,.11h-.02s-.76,.6-.76,.6l-.76,.59-.06,.05-.16,.35-.21,.47-.05,.11-.06,.14v.02s-.18,.4-.18,.4l.29,.56h0s.02,.05,.02,.05l.1,.2,.29,.56,.05,.1,.03,.07,.13,.25,.06,.11,.03,.06,.6,.08,2.42,.5,3.14-.54h.02s0,0,0,0h.04s.33-.06,.33-.06"/>
        <path class="cls-1" d="M21.82,695.57l-3.82,.76-.34,.15-1.42,.64h-.01s-.19,.09-.19,.09l-.71,.32-.5,.22-.12,.06-.03,.02-.26,.12-.34,.2h-.01s-.07,.05-.07,.05l-.31,.18-.24,.14h-.02s-.43,.26-.43,.26l-.07,.04h0s-.49,.29-.49,.29l-.09,.05-.02,.03-.17,.3h0s-.27,.5-.27,.5v.02s-.26,.45-.26,.45l-.1,.17-.04,.06v.02s-.03,.04-.03,.04l.03,.04,.48,.68,.06,.08,.14,.2,.52,.75,.57,.02,2.59,.47,4.27-.62h.54"/>
        <path class="cls-1" d="M40.63,682.16l-.53,.17-1.76,.56-1.18,.37-.76,.24-2.34,.74-.32,.16-.7,.35-2.19,1.09-.36,.18-.16,.08-.39,.19-.23,.11h-.03s-.49,.26-.49,.26l-.24,.12-.69,.34-1.17,.58-.46,.23-.32,.16-.14,.07-.09,.04-2.24,.7-.62,.19-.18,.05-.63,.2-1.11,.35-.4,.12-.82,.26-.21,.07-1.25,.26-.69,.14-.73,.15-.55,.11-1.32,.27-1.6,.33-4.59,1.14"/>
        <path class="cls-1" d="M18.11,692.9l-.27,.04-3.04,.48-2,.31-.64,.1-.76,.12-.96,.15-1.71,.5-.41,.12-2.32,.68-.09,.03-1.07,.31-1.28,.57-.32,.14-.68,.31-.27,.12-.32,.14-.18,2.1"/>
        <path class="cls-1" d="M103.39,636.52l-.11-10v-.9s.46-9.99,.46-9.99l.16-3.38,.8-9.97,.4-4.97,.99-9.95,.21-2.05"/>
        <path class="cls-1" d="M107.61,277.4l-.26-9.25,.12-9.33,1.31-8.05,2.08-8.37,1.92-8.85,1.82-9.34,1.52-9.56,.78-5.74"/>
        <path class="cls-1" d="M116.31,212.33l.59-3.43,1.03-5.96,1.26-9.16,1.11-6.75"/>
        <path class="cls-1" d="M108.63,682.66l1.17-1.51,1.03-6.74-2.84-8.18-2.05-7.49-1.69-8.77-.66-9.98-.08-1.24-.12-2.24-.49-9.31-.05-1.04"/>
        <path class="cls-1" d="M17.68,683.06l-.3,.02h-.24s-.5,.04-.5,.04h-.07s-1.1,.06-1.1,.06l-1.33,.07h-.09s-.08,0-.08,0h-.08s-.16,.01-.16,.01h-.08s-5.64,.24-5.64,.24l-3.6,1.42,1.1,3.85,.69,2.22,1.78-.15,4.13,.13,3.25,.11"/>
        <path class="cls-1" d="M22.16,681.67l-1.32,.44h-.02s-3,.47-3,.47l-.4,.06-.35,.05-.67,.1-2.45,.38-.32,.09"/>
        <path class="cls-1" d="M20.84,682.11l-3.41,.28-1.04,.42"/>
        <path class="cls-1" d="M21.18,682.23h-.04s-.45,.12-.45,.12l-.18,.04-2.11,.5-.73,.17-.31,.07-.98,.23h-.05s-.57,.15-.57,.15l-.43,.1-.27,.06"/>
        <path class="cls-1" d="M68.64,648.2l-1.7,4.38-5.13,7.51-7.57,4.44-8.59,4.6-8.28,5.33"/>
        <path class="cls-1" d="M45.17,672.12l-3.12,.94-4.68,1.41-1.89,.57-8.01,3.65-5.3,2.97-.7,.39h-.01s-.31,.18-.31,.18"/>
        <path class="cls-1" d="M16.57,296.07l.34,1.64"/>
        <path class="cls-1" d="M17.68,330.89l-.2,2.27"/>
        <path class="cls-1" d="M26.85,702.49h.07s-.05,0-.05,0"/>
        <path class="cls-1" d="M27.05,200.52v.92"/>
        <path class="cls-1" d="M53.16,126.26l-.65,1.52-.45,1.06-.19,.44-.2,.48-.16,.38-.22,.51-.06,.13v.02s-.11,.24-.11,.24l-.11,.26-.11,.25h0s-.15,.35-.15,.35l-.15,.35-.18,.42"/>
        <path class="cls-1" d="M50.9,131.54l-.51,.77-.15,.23-.18,.27-.04,.06"/>
        <path class="cls-1" d="M74.9,51.18l-.03,.34v.15s-.05,.36-.05,.36h0s-.02,.26-.02,.26v.04s0,.02,0,.02l-.04,.47v.04h0"/>
        <path class="cls-1" d="M81.53,104.11h0s-.03,.16-.03,.16v.06s-.02,.01-.02,.01h0s0,.05,0,.05l-.04,.18v.03s-.04,.16-.04,.16h0s-.02,.08-.02,.08v.06s-.02,.04-.02,.04h0s-.02,.07-.02,.07v.06s-.02,.05-.02,.05"/>
        <path class="cls-1" d="M81.52,103.94l-.03,.13-.02,.07v.02s-.03,.1-.03,.1h0s-.01,.07-.01,.07v.02s-.02,.05-.02,.05l-.06,.22-.04,.16v.03s-.02,.03-.02,.03v.04s-.02,.04-.02,.04l-.02,.1h0s0,.02,0,.02"/>
        <path class="cls-1" d="M84.29,108.89l.79,.24,.25,.08"/>
        <path class="cls-1" d="M90.88,96.23h-.05s-.37,.03-.37,.03l-.62,.04-1.02,.07-1.09,.08-.27,.02-.63,.04-.72,.05-1.11,.08"/>
        <path class="cls-1" d="M96.31,96.51l-1.51-3.95-.15-.4"/>
        <path class="cls-1" d="M101.88,100.02l-.08,.02h-.04s-.07,.03-.07,.03h-.04s0,.01,0,.01h-.01s-.02,.01-.02,.01h-.04s-.02,.02-.02,.02h-.02s-.03,.01-.03,.01h0s-.07,.02-.07,.02h-.04s-.02,.02-.02,.02h-.02s0,0,0,0h0l-.09,.03h0s-.02,0-.02,0l-.08,.02-.08,.02h-.02s-.33,.1-.33,.1h0s-.07,.02-.07,.02l-.13,.04-.38,.11"/>
        <path class="cls-1" d="M104.95,100.32l-.12-.05-.04-.02"/>
        <path class="cls-1" d="M102.94,99.58l-.41-.15-1.41-.51"/>
        <path class="cls-1" d="M105.06,100.36l-.11-.04-.08-.03h0s-.07-.03-.07-.03"/>
        <path class="cls-1" d="M102.15,98.91l-.6-.37"/>
        <path class="cls-1" d="M103.66,99.7l-.34-.18-.66-.35-.16-.08-.05-.03-.3-.16-.14-.07"/>
        <path class="cls-1" d="M102.7,99.6l-.15-.05-.77-.25"/>
        <path class="cls-1" d="M103.64,99.7l-.28-.13-.43-.21h0"/>
        <path class="cls-1" d="M104.83,100.27l-.04-.02"/>
      </g>
    </g>
  </g>
</svg>