<?xml version="1.0" encoding="UTF-8"?>
<svg id="Layer_2" data-name="Layer 2" xmlns="http://www.w3.org/2000/svg" viewBox="0 0 976.22 995.28">
  <defs>
    <style>
      .cls-1 {
        fill: none;
        stroke: #000;
        stroke-linejoin: round;
        stroke-width: 3px;
      }
    </style>
  </defs>
  <g id="Layer_1-2" data-name="Layer 1">
    <g id="ViewLayer_LineSet" data-name="ViewLayer LineSet">
      <g id="strokes">
        <path class="cls-1" d="M520.57,113.07l.13-.21,1.39-2.18,.96-1.51,.05-.07,.89-1.4,2.2-5.06,1.05-4.57,.09-.41,.09-.39"/>
        <path class="cls-1" d="M534.98,66.72l.2-3.99,.81-5.43,.15-5.96-.1-2.27-.99-7.77-3.48-9.37-.52-1.58-4.76-8.8-1.93-3.56-6.97-7.17-1.39-1.43-8.94-4.49-3.35-1.68-9.91-1.32-2.88-.38-9.87,1.6-2.54,.41-8.77,4.81-2.71,1.49-7.06,7.08-1.8,1.8-5.33,8.46-1.69,2.69-1.23,3.96-1.95,6.26"/>
        <path class="cls-1" d="M525.21,149.98l-.28-.7-.97-2.38h0s0,0,0,0l-.55-1.33-.71-1.73v-.04s-.86-6.77-.86-6.77v-8.1s.5-8.66,.5-8.66l.56-8.93,.19-2.22"/>
        <path class="cls-1" d="M528.73,93.99l-.05,.12-.39,.97-.64,1.61-.23,.59,.15-.62,.07-.27,.3-1.24,.31-1.28v-.04s.06-.21,.06-.21l.51-2.06,.06-.24,.16-.64,.03-.18,.15-.99,.04-.25,.17-1.13,.04-.27h0l.26-1.76,.3-2.03,.23-1.54v-.09s.02-.06,.02-.06l.1-.72,.02-.11v-.03s.04-.28,.04-.28v-.08s.02-.04,.02-.04"/>
        <path class="cls-1" d="M527.25,98.08l.72-1.26,1.56-1.98,1.09-.3,1.35-.37,.82-.22"/>
        <path class="cls-1" d="M530.26,83.37l.06-.65v-.13s.02-.08,.02-.08l.06-.64,.03-.36,.02-.24v-.09s.01-.05,.01-.05l.12-.97,.02-.15,.06-.52,.03-.24,.09-.69,.03-.2,.06-.48,.03-.25,.24-1.88,.02-.11,.02-.17v-.08s.33-2.58,.33-2.58l.07-.55-.02-1.21-.02-1.21"/>
        <path class="cls-1" d="M533.08,76.82l.12-.15,.27-.33,.03-.04,.18-.22,.27-.34,.33-.42,.13-.49,.09-.33,.07-.26,.02-.06,.42-1.04,.06-.14h0s.03-.12,.03-.12l.09-.29,.03-.11,.82-.94,.04-.05h0s.03-.04,.03-.04l.16-.19,.2-.23,.2-.28,.07-.1,.7-.98h0s.11-.19,.11-.19l.16-.27,.24-.4,.17-.43,.1-.24"/>
        <path class="cls-1" d="M536.7,67.48h-.03s-1.01-.27-1.01-.27l-.26-.07-.44-.11h-.03s-.24-.07-.24-.07h0s-.04-.01-.04-.01h-.04s0-.01,0-.01h-.03s-.13-.04-.13-.04l-.11-.03-.09-.02h-.06"/>
        <path class="cls-1" d="M536.41,66.35l-.58,.15-.85,.22h-.05s-.3,.09-.3,.09h-.02s-.09,.03-.09,.03"/>
        <path class="cls-1" d="M530.62,94.54l2.91,.92,.49-1.62,1.97-3.25,1.78-2.04,1.3-3.45,.92-3.78,1.01-4.04,.47-4.04-.2-3.25-.68-2.33-1.39-.7-2.05-.97-1.31,.53"/>
        <path class="cls-1" d="M531.89,85.15l-.06-.21-.23-.83-.04-.15-.02-.06,.03-.07,.06-.16,.3-.78,.53-1.34,.09-1.07v-.02s0-.03,0-.03l.02-.29,.03-.32,.12-1.45v-.04s0-.02,0-.02v-.03s.06-.9,.06-.9v-.17s.03-.3,.03-.3l.04-.63v-.05s0-.07,0-.07l.08-.09,.39-.42,.02-.03,.13-.14"/>
        <path class="cls-1" d="M538.21,83.69l.03-.31,.22-2.07,.06-.59v-.11s.08-.61,.08-.61v-.03"/>
        <path class="cls-1" d="M538.6,80l.16-1.02,.28-1.78v-.04s.02-.07,.02-.07v-.07s0-.47,0-.47l.02-2.05v-.24"/>
        <path class="cls-1" d="M575.33,372.09l-.12-.85-1.31-8.89-1.8-9.59-.81-9.99,.16-10v-.42s.86-9.96,.86-9.96l.04-.52,.16-10v-.35s1.12-9.63,1.12-9.63l3.7-7.68,2.24-8.25,1.58-9.04,.79-7.53,.98-3.92,.16-.63,.08-.34,.42-1.68,.13-.52"/>
        <path class="cls-1" d="M576.34,704.76l.47-3.91,1.21-9.93,.09-.72,.48-9.99,.23-4.83,.59-9.98,.3-5.06,1.48-9.89,.83-5.55,1.54-9.88,1-6.43,1.69-9.86,1.16-6.72,2.04-9.79,1.57-7.54,2.31-9.73,1.96-8.25,2.14-9.77,2.12-9.67,1.95-9.81,1.95-9.81,.27-1.35,1.12-9.94,1.12-9.94,.22-1.96-.31-9.99-.31-9.99-.05-1.64-1.91-9.82-1.83-9.42-1.71-9.85-1.4-8.09-.78-9.97-.35-4.45-1.2-9.93-.5-4.12-2.36-9.72-.49-2.01-3.5-9.37-.22-.6-4.27-8.82-4.09-8.26-3.36-8.63-2.34-8.54"/>
        <path class="cls-1" d="M582.91,265.49l.4-1.03,2.89-5.08,2.24-2.91,.64-.83,.24-.31,.68-.88"/>
        <path class="cls-1" d="M554.69,158.48l-3.38-.78-4.57-.39-4.33-.85-4.88-1.64-4.7-2.29-4.62-2.4-1.18-.9"/>
        <path class="cls-1" d="M916.27,188.73l-6.25-1.1-7.6-1.24-7.35-1.44-6.66-1.3-5.1-1.12-4.61-1.22-6.12-1.16-8.48-.32-10-.11h-.82s-9.99-.39-9.99-.39l-.93-.03-9.95-1.02-1.43-.15-9.95-.99-1.44-.15-9.92-1.25-1.61-.2-9.91-1.35-1.87-.26-9.94-1.07-2.16-.23-9.91-1.35-.41-.05-9.92-1.26-2.5-.32-10-.08-2.77-.02-9.95,.97-.78,.08-8.33,1.11-6.13,.46-6.77,.13-8.01,.4-10,.16-2.39,.04-10-.3-4.51-.14-9.98-.56-4.64-.26-9.94-1.09-5-.55-9.81-1.92-3.53-.69-9.7-2.44-1.33-.33-9.79-2.04-.19-.04-8.5-1.34-7.42-1.15-7.22-.52-5.8-1.08-7.57-1.71-7.38-.15-7.12,.5-6.33,.87-5.32,.43-.52,.07-3.18,.43-.66,.09"/>
        <path class="cls-1" d="M588.45,256.47l.98-1.07,5.94-5.49,5.83-8.17,5.75-6.76,8.1-4.49,8.89-2.85,9.75-.99,10-.27,1.58-.04,9.95-.98,2.47-.24,9.99-.53,2.77-.15,9.96-.84,3.75-.32,9.94-1.11,3.99-.44,9.71-.37,8.98,.32,7.87,.53,7.71,.31,7.49-.54,9.64-.29,9.94-1.13,.37-.04,9.88-1.52,1.14-.18,9.94-1.13,2.04-.23,9.95-1.05,1.41-.15,9.91-1.32,1.3-.17,9.87-1.63,1.12-.18,9.88-1.53,1.1-.17,9.89-1.5,1.06-.16,9.88-1.57,1.63-.26,9.88-1.55,.11-.02,7.98-.55h.08s.1-.01,.1-.01"/>
        <path class="cls-1" d="M491.5,544.08l.02,.49,.06,1.24,.06,1.22,.31,6.52,.92,9.96,.34,3.66,1.54,9.88,1.55,9.88,.05,.35,1.22,9.93,.88,7.15,1.35,9.91,.97,7.17,.81,9.97,.53,6.48,.29,10,.17,5.78,.4,9.99,.21,5.27,.42,9.99,.21,5.07,1.35,9.91,1.36,10,2.52,9.68,1.31,5.04,2.24,9.75,1.43,6.24,1.07,9.94,.39,3.68,.03,.31v.07s.28,2.57,.28,2.57"/>
        <path class="cls-1" d="M570.14,954.77l-.86-2.98-2.98-9.13-.16-10-.06-3.52-1.65-9.86-.45-2.68,.57-9.98,.31-5.57,1.6-9.87,1-6.17,1.81-9.84,1.45-7.88,1.61-9.87,1.61-9.87,.05-.28,1.45-9.89,1.45-9.89,.34-2.33,1.25-9.92,1.25-9.92,.19-1.51,.85-9.96,.85-9.96,.04-.44,.02-10v-8.91s-.97-9.95-.97-9.95l-.75-7.58-1.16-9.93-.8-6.88-.35-9.99-.21-5.91-.46-9.99-.16-3.44"/>
        <path class="cls-1" d="M515.47,748.2l.02,.4-.12,10-.09,7.8,.07,10,.07,10v.87s.83,9.97,.83,9.97l.73,8.86,1.7,9.85,1.7,9.86,.21,1.21,1.81,9.83,1.81,9.83,.36,1.96,1.75,9.85,1.35,7.56,1.38,9.9,1.22,8.7,1.31,9.91,.64,4.83"/>
        <path class="cls-1" d="M530.12,151.79l-1.93-1.59-.05-.04-.07-.06-1.05-.86-1.35-1.12-2.99-4.34"/>
        <path class="cls-1" d="M877.86,207.3h.02s.97,.32,.97,.32l2.99,.96,1.26,.4h.04s0,.01,0,.01h0s.25,.08,.25,.08l.57,.18,.25,.08,.23,.07,.14,.06,.06,.02h.02s.57,.25,.57,.25l1.57,.65,3.49,1.04,5.07,.07,5.64-.83"/>
        <path class="cls-1" d="M867.74,205.63l4.42,.46,4.41,2,6.18,1.48,2.48,.17"/>
        <path class="cls-1" d="M936.2,202.11l1.04-.11,.22-.02,.8-.09h.11s.1-.02,.1-.02l.76-.08,.67-.07,.33-.04,.43-.05h.04s.75-.09,.75-.09l.23-.02,.89-.1,.88-.12,.34-.04,.19-.03,.33-.04,.7-.09,.49-.07,1.01-.13h.05s.24-.04,.24-.04h.07s.61-.03,.61-.03l.81-.03h.06s0,0,0,0l1.21-.04h.37s.14-.02,.14-.02h.31s.28,.01,.28,.01h.08s.49,.01,.49,.01l1.1,.02h.13s.34,0,.34,0h.63s0,.01,0,.01h.63s.29,.02,.29,.02l.77-.06h.06s.63-.05,.63-.05h.17s.14-.02,.14-.02h.15s.04-.01,.04-.01h.06s.15-.02,.15-.02l.91-.07h.17s.45,0,.45,0h.55s.07,0,.07,0h.03s.09,0,.09,0h.29s.67,0,.67,0h.26s.64,0,.64,0h4.57s.11,0,.11,0l.43-.1,1.06-.26,.6-.15,.71-.17,.08-.02,.34-.08,.62-.24,.83-.33,.14-.05,.27-.18,.28-.19,.2-.14,.03-.02"/>
        <path class="cls-1" d="M970.43,199l.3-.19,.32-.2,.18-.11h0s.06-.04,.06-.04l.15-.1,.8-.75,.09-.09,.36-.34,.02-.04,.18-.33,.2-.37,.1-.19,.35-.64-.02-.1v-.02s-.03-.12-.03-.12l-.02-.09-.08-.43-.08-.43-.09-.52-2.27-.51-2.78-.19-2.54-.1-2.12-.28-3.44-.25-3.93-.26-4.44-.56-3.44-.5-4.22-.3-7.21-.15-5.72-.12-5.07-.89-6.28-.88-3.49-.18-3.32-.17-.58-.03"/>
        <path class="cls-1" d="M933.62,199.31l-.46-.1-.65-.15-.37-.08h-.35s-.04,0-.04,0h-.16s-.43,0-.43,0h-.04s-.48,0-.48,0h-.05s-.17,0-.17,0l-1.79-.03h-.21s-.18-.02-.18-.02h-.04s-.48-.03-.48-.03h-.14s-.74-.05-.74-.05l-.48-.03h-.17s-.3-.03-.3-.03l-.49-.03-2.64-.14-.33-.02h-.01l-1.56-.09-.28-.02-1.34-.08-.54-.03-.34-.02-1.02-.06-.27-.06-.78-.17-2.03-.45-.45-.1-.11-.02-.92-.2-.24-.26-1.65-1.78"/>
        <path class="cls-1" d="M906.49,209.21l-.45,.21-.67,.31-.87,.18-.11,.02-.42,.09-.55,.12-.9,.19-.31,.07-1.2,.26,.8-.24,.12-.04,.4-.12,.58-.17,.96-.29,.1-.03,.99-.29,.16-.05,.13-.04,.34-.05,.44-.07,.14-.02,.31-.05,.33-.05,.99-.15,.27-.04,1.09-.17h.01s.83-.01,.83-.01h.97s1.04-.03,1.04-.03h.2s.74-.01,.74-.01h.92s.33-.02,.33-.02l.47,.06h0s0,0,0,0l.52,.07,.24,.03,.39,.05h.03s.84,.12,.84,.12l.14,.02,1.13,.15h.1s.22,.04,.22,.04l1.3,.15,.55,.07,.76,.09,.36,.04,.37,.04,.17,.02h.36s.28,.01,.28,.01l.77,.02h.33s.85,.02,.85,.02l1.11,.02h.69s.59,.02,.59,.02h.1s.66-.13,.66-.13h.05s.76-.17,.76-.17l.27-.06,.48-.1h.04s.77-.17,.77-.17l.36-.07,.15-.03,.14-.03h.04s.62-.14,.62-.14l.28-.16,.52-.3,.16-.09,.74-.42,.42-.24,.21-.12,.28-.16h.02s.4-.59,.4-.59l.3-.44"/>
        <path class="cls-1" d="M936.19,202.37l.83-.08,.51-.05,.73-.07h.11s1.49-.15,1.49-.15l.29-.03,.91-.09,.5-.03,2.22-.12,2.11-.12h.23s.37,.02,.37,.02h.26s.64,.03,.64,.03l.64,.02,1.49,.05h.17s.26,.02,.26,.02h.04s1.83,.06,1.83,.06l.58,.02h.23s.33,.02,.33,.02l1.76,.05,1.01,.03h.14s0,0,0,0h.03s1.4-.06,1.4-.06l.89-.04h.02s.53-.02,.53-.02h.33s.11,0,.11,0h0s1.03,.07,1.03,.07h.02s.04,0,.04,0l1.52,.1,4.3,.04,3.32-.8,.67-.18,1.46-.74,.94-.65,1.03-1.24h0"/>
        <path class="cls-1" d="M973.53,198.44l.48-.52,.71-1.71-.42-1.83-.96,.03"/>
        <path class="cls-1" d="M935.92,204.7l2.89,.31,6,.13,2.78-.19,2.43,.04,3.65,.22,2.89-.41,1.61-.76,.47-.32,.92-.79,.72-1.01"/>
        <path class="cls-1" d="M905.7,210.24l1.78,.04h2.08s2.7-.57,2.7-.57l1.3-.25h4.14s1.89-.04,1.89-.04"/>
        <path class="cls-1" d="M920.14,209.48l1.61,.43,2.61,.54,1.95-.03,1.73,.24,2.53,.42,2.73-.03,1.54-.39,.73-.26,.73-.52,.54-.46,.74-1.05-.06-1.3-.6-.81-2-.35"/>
        <path class="cls-1" d="M934.02,207.01l.18-.22,.35-.42,.06-.08,.08-.1,.03-.03,.04-.05,.1-.13h0s.05-.07,.05-.07h0s0-.01,0-.01l.99-1.21h.01s.07-.1,.07-.1l.05-.06v-.08s.03-.34,.03-.34l.02-.24v-.07s.06-.84,.06-.84v-.04s.04-.56,.04-.56v-.21s.01,0,.01,0v-.05s0-.09,0-.09v-.14s0-.05,0-.05h0s-.01-.23-.01-.23v-.17s-.03-.37-.03-.37v-.06s-.01-.15-.01-.15v-.04s0-.1,0-.1h0s-.05-.05-.05-.05l-.12-.1-.19-.16-.03-.02-.08-.06-.32-.26-.12-.1-.16-.07-.16-.07h-.02s-.21-.1-.21-.1l-.12-.05-.21-.09-.31-.14-.24-.11-.07-.03"/>
        <path class="cls-1" d="M935.05,199.91l-.14-.11-.03-.02-.23-.17-.12-.09-.8-.19h-.02s-.07,0-.07,0l-.47-.03-.61-.04h-.06s-.21-.02-.21-.02h-.1s-.17-.02-.17-.02h-.16"/>
        <path class="cls-1" d="M914.67,208.79h.03"/>
        <path class="cls-1" d="M531.5,887.09l.27,4.62,.45,7.68,.25,4.35-1.58,9.87-1.02,6.39-.1,10-.03,3.46,1.6,9.85"/>
        <path class="cls-1" d="M553.09,991.61l2.08,.8,2.81-.1,1.32-1.44,.93-1.09h0s.23-.28,.23-.28l.28-.32,.06-.07,.02-.02,.02-.02,.52-.61-.18-.24-.25-.35-.32-.45-.23-.32-.67-.93-.58-.81-.22-.32-.13-.19-.41-.58-.2-.28-1.09-1.55-.34-.48-.38-.54"/>
        <path class="cls-1" d="M575.93,985.3l1.03,.18,2.33-.39,.43-.11,2.23-3.34,.12-2.14"/>
        <path class="cls-1" d="M568.92,987.77l.37,1.29,1.21,.68,2.3-.61,.77-.41,2.32-3.08,.06-.34v-.04s0,0,0,0l.2-1.13v-.03s.01-.03,.01-.03l.03-.19,.08-.44,.12-.64,.07-.38,.02-.11,.04-.23,.09-.78"/>
        <path class="cls-1" d="M532.39,963.48l-.31,1.47-2.07,9.78-.1,.49-.73,3.83,2.54,2.87,.47,2.88,1.45,3.54,4.33,4.17,4.95-.5"/>
        <path class="cls-1" d="M548.12,985.82l-.57-.85-.12-.17-.55-.81-.78-1.16-.35-.52-1.35-2-.08-.11"/>
        <path class="cls-1" d="M549.36,987.32l-.13-.15-.73-.89-.33-.4"/>
        <path class="cls-1" d="M550.79,990.04l2.31,1.56-2.14-1.58-.04-.03-.37-.27-.33-.24-1.8-1.47"/>
        <path class="cls-1" d="M560.24,989.79l3.47,1.61,2.28-.04,.74-.74,2.18-2.85,.16-.21,.05-.07-.04-.51h0s-.04-.6-.04-.6l-.02-.33v-.14s-.06-.78-.06-.78v-.19s-.05-.49-.05-.49l-.02-.26v-.15s-.05-.43-.05-.43l-.08-.82"/>
        <path class="cls-1" d="M582.69,977.55l-.61,1.94-.1-.76-.03-.22-.16-1.18-.2-1.47h0s-.28-2.08-.28-2.08l-.09-.7"/>
        <path class="cls-1" d="M542.92,992l1.48-1.06,3.07-2.24,.94-.68h0s.01-.02,.01-.02l.26-.19,.25-.19,.42-.31-.42,.31-.26,.19-.26,.19h-.01s0,.02,0,.02l-.94,.68-2.98,2.17-.06,.04-.03,.02h-.02s0,.02,0,.02l-1.45,1.05"/>
        <path class="cls-1" d="M577.99,976.22l-.41,.89-.41,.89-.32,.71-.22,.49"/>
        <path class="cls-1" d="M583.06,974.85l-.37,2.7-.4-1.2-.26-.79-.82-2.47-.66-1.57-.15-.36-.07-.17-.46-1.1-.07-.17"/>
        <path class="cls-1" d="M571.83,957.77l5.98,8.01,.15,.2,2.78,5.01,2.32,3.85-2.37-3.72-.05-.08-.57-.9-.27-.42-2.14-2.67-.51-.64-.49-.61"/>
        <path class="cls-1" d="M573.29,960.35l-1.46-2.58-1.69-2.99-.07-.12-.28-.49-.47-.83-1.63-2.89-1.34-2.36-.97-1.72"/>
        <path class="cls-1" d="M532.01,934.79l-.27,3.39-.4,5.13-.21,2.67,.17,10v.59s.25,2.22,.25,2.22l.53,6.16"/>
        <path class="cls-1" d="M532.74,78.32l.09-.13,.08-.24,.41-1.16,.04-.1,.13-.36,.02-.05"/>
        <path class="cls-1" d="M454.77,95.41l.17,.66,.16,.62,.02,.1,.51,1.97,1.72,5.07,1.74,4.05,.36,.84h0s.18,.43,.18,.43h0s1.75,2.84,1.75,2.84l1.68,2.72"/>
        <path class="cls-1" d="M459.08,107.88l1.08,5.94,.88,9.05,.29,8.76-.04,7.9-.3,2.81-.25,2.29-.05,.46-.07,.68v.09s-.07,.6-.07,.6"/>
        <path class="cls-1" d="M449.94,33.8l-2.78,7.54-.73,8.29-.16,1.98,.13,6.56,.73,6.64"/>
        <path class="cls-1" d="M447.11,64l.02,.71v.1s.06,2.77,.06,2.77"/>
        <path class="cls-1" d="M449.38,75.17v.02s.05,.14,.05,.14l.15,.47,.11,.33,.26,.79,.07,.2v.04s.07,.18,.07,.18l.09,.27v.04s.1,.25,.1,.25l.06,.18,.09,.29,.04,.13"/>
        <path class="cls-1" d="M444.59,68.58l.2,.62,.4,.78,.12,.24,.02,.03,.23,.4,.57,.98,.1,.17,.11,.16,.05,.07,.46,.67,.14,.2,.46,.67h0s.4,.5,.4,.5h0s.19,.24,.19,.24l.1,.13,.4,.51,.17,.21,.03,.04"/>
        <path class="cls-1" d="M447.99,68.01h-.03s0,0,0,0h-.04s0,0,0,0h0s-.26,.02-.26,.02l-.32,.03h-.13s0,.01,0,.01l-.28,.03-.35,.03-.64,.06"/>
        <path class="cls-1" d="M447.43,67.7h-.03s0-.02,0-.02l-.2-.1h0s-.62-.31-.62-.31l-.54-.26"/>
        <path class="cls-1" d="M446.57,67.28l-1.21-.84-2.15,.85-1.35,.94-.31,2.27-.06,3.18,.56,4.14,1.13,4.2,.99,3.68,1.21,3.37,1.56,2.26,1.79,3.34,.66,1.56,2.86-.66"/>
        <path class="cls-1" d="M450.87,82.62l.07,.22,.03,.07,.27,.79,.08,.23,.22,.66,.18,.55,.03,.08v.04s.02,.01,.02,.01l.05,.14,.04,.12,.02,.05,.13,.38,.16,.49,.02,.05-.06,.51v.07s-.32,2.68-.32,2.68l-.09,.8"/>
        <path class="cls-1" d="M450.32,78.09v.22s-.02,.16-.02,.16v.07s0,.06,0,.06l-.02,.34-.03,.45v.13s-.03,.32-.03,.32v.02s.12,1.51,.12,1.51v.16s.1,1.08,.1,1.08l.03,.29,.42,.77,.37,.69,.16,.3,.28,.51-.07,.28-.02,.07v.03s-.02,.04-.02,.04l-.06,.22-.14,.54"/>
        <path class="cls-1" d="M453.18,94.38l.58,.72,.08,.1,.21,.26,.12,.15,.95,1.18"/>
        <path class="cls-1" d="M450.26,95.52l2,.05,1.9,.05"/>
        <path class="cls-1" d="M444.1,74.85l.05,2.32v.51s.02,.16,.02,.16v.04s0,0,0,0l.2,1.52,.19,1.46,.06,.46v.06s.16,1.11,.16,1.11l.21,1.59,.04,.33"/>
        <path class="cls-1" d="M394,260.86l.02,.03,.07,.14,2.44,4.94,2.21,6.48,1.49,7.22,1.83,9.06,2.59,8.42,2.76,7.42-.02,8.56,.54,9.25"/>
        <path class="cls-1" d="M407.93,322.14v.03s.02,.21,.02,.21v.03s.02,.27,.02,.27l.68,9.95,.24,9.98-1.29,9.76-2.04,9.63-1.36,9.91-.03,.25-1.37,9.63-2.57,8.21-3.91,8.87-4.05,8.85-3.24,9.46-.1,.3-2.34,9.72-.31,1.28-1.47,9.89-.57,3.83-1.13,9.93-.5,4.35-1.75,9.85-1.15,6.47-1.51,9.89-1.51,9.89-.13,.87-.45,9.99-.45,9.99-.07,1.48,.97,9.95,.97,9.95,.12,1.27,1.69,9.86,1.69,9.86,.21,1.21,2.07,9.78,2.03,9.6,2.16,9.76,1.79,8.1,2.09,9.78,1.61,7.53,1.65,9.86,1.18,7.03,1.51,9.89,.98,6.47,1.28,9.92,.74,5.72,.65,9.98,.35,5.3,.54,9.98,.27,4.97,1.36,9.91,.55,3.98,.07,.49"/>
        <path class="cls-1" d="M371.7,237.8l.58,.6,1.39,1.44,4.69,4.86,.08,.11,6.15,7.88,.17,.22,5.53,4.18,3.8,3.93"/>
        <path class="cls-1" d="M457.95,149.16l-3.23,2.52-4.27,2.18-4.14,2.3-4.46,2.04-4.6,1.39-4.75,.85-4.53,1.29-1.06,.25"/>
        <path class="cls-1" d="M281.68,224.11l9.92,1.25,3.42,.43,9.95,1.02,3.93,.4,9.96,.87,2.95,.26,9.99,.32,2.1,.07,9.95,.96,1.56,.15,9.34,1.57,9.09,2.91,8.17,4.55,6.4,5.94"/>
        <path class="cls-1" d="M466.49,734.21l.17-.74,.17-.75,2.22-9.75,.93-4.08,2.86-9.58,1.48-4.95,1.57-9.88,1.57-9.87,.41-9.99,.21-5.12,.14-10,.07-5.19,.55-9.98,.32-5.79,.97-9.95,.62-6.39,1.43-9.9,1.07-7.42,1.7-9.85,1.23-7.11,1.61-9.87,1.61-9.87,.1-.6,1.17-9.93,.46-3.9,.49-6.71"/>
        <path class="cls-1" d="M404.06,704.58l-.5,10.03-.64,9.98-.36,5.64-1.12,9.94-.77,6.82-.91,9.96-.69,7.48-.05,10-.04,8.84,.84,9.97,.84,9.96,.03,.41,1.24,9.92,1.24,9.92,.2,1.63,1.54,9.88,1.54,9.88,.4,2.58,1.73,9.85,1.73,9.85,.08,.45,1.88,9.82,1.54,8.05,1.61,9.87,1.03,6.31,.32,9.99,.18,5.45-1.53,9.88-.35,2.26,.27,10,.1,3.55-2.06,6.21"/>
        <path class="cls-1" d="M448.41,898.65l2.19-9.76,1.26-5.62,1.48-9.89,1.08-7.24,1.54-9.88,1.54-9.88,.16-1.06,1.89-9.82,1.89-9.82,.33-1.75,1.9-9.82,1.9-9.82,.17-.85,.82-9.97,.76-9.29-.13-10-.11-8.4-.4-9.99-.31-7.85,.3-10,.16-5.22"/>
        <path class="cls-1" d="M427.56,162.06l-.64-.07-4.66-.47-6.05-.93-6.35-.6-6.84-.07-7.52,.77-5.17,.17-7.14,.97-8.2,1.53-9.67,1.91-9.74,2.29-1.5,.35-9.7,2.42-2.36,.59-9.83,1.87-4.11,.78-9.94,1.06-5.13,.55-9.99,.43-4.79,.21-10,.18-4.55,.08-10-.26-2.6-.07-7.85-.71-6.88-.59-6.78-.56-8.08-1.25-9.97-.82-.63-.05-10,.13-2.61,.04-9.92,1.23-2.32,.29-9.88,1.57-.34,.05-9.92,1.23-2.26,.28-9.91,1.36-2.11,.29-9.91,1.32-1.89,.25-9.94,1.08-1.78,.19-9.98,.71-1.1,.08-9.99,.4-1.93,.08-9.99,.49-1.21,.06-8.8,.68-6.3,1.16-4.97,1.05-5.47,1.05-6.87,1.17-7.5,1.15-7.75,.94-6.33,1.07"/>
        <path class="cls-1" d="M460.99,142.35l-.62,3.03-2.42,3.78-.13,.2-.65,1.01"/>
        <path class="cls-1" d="M109.86,208.57l.28,.04h.04s8.12,1.06,8.12,1.06l9.87,1.61,.2,.03,9.91,1.35,.87,.12,9.9,1.44,1.83,.27,9.89,1.5,1.03,.15,9.89,1.48,1.05,.16,9.92,1.28,1.2,.16,9.96,.95,1.32,.12,9.98,.68,2.05,.14,9.9,1.39,1.22,.17,9.94,1.14,.59,.07,9.1,.11,8.16,.1,7.88-.19,8.16-.34h9.4s9.99,.54,9.99,.54h.18s.16,.02,.16,.02"/>
        <path class="cls-1" d="M41.14,210.15l.07,.1,.32,.44,.26,.37,.45,.26,.11,.06,.05,.03,.24,.14,.22,.13h.02s.71,.43,.71,.43l.33,.2,.3,.18,.15,.09,.09,.05,.15,.03,.31,.05,.3,.05,.88,.15,.5,.09,2.25,.39,5.15-.07,3.96-.61,2.45-.54,.74-.16,.24-.05,.29-.06,.32-.07h.24s.26-.03,.26-.03h.03s.09,0,.09,0l.31-.02,.8-.05h.17s.78-.05,.78-.05l1.65-.09,1-.06h.11s.38,.04,.38,.04h.17s1.1,.11,1.1,.11l1.03,.09,1.13,.1,1.12,.28,.32,.08,1.46,.36,1.15,.28,.82,.17,.09,.02,.15,.03,.76,.15,.71,.14,1.4,.28,.6,.12,.11,.02,.22,.04,.9,.18,5.26,.18,3.75-.95,.19-.08,.09-.04,.07-.03,.38-.16,1.34-.56,.33-.14h.04s.7-.21,.7-.21l.5-.14,.08-.02,.12-.03h.02s2.03-.58,2.03-.58l1.9-.54,.89-.25,.52-.15"/>
        <path class="cls-1" d="M62.6,200.05l-.04,.6"/>
        <path class="cls-1" d="M90.26,213.15l3.74-.57,6.53-1.37,4.7-1.99,4.95-.6"/>
        <path class="cls-1" d="M4.94,202.34l.07,.06,.15,.12,.5,.41,.12,.05,.68,.28,.52,.21,.36,.15,.24,.07,1.15,.32,1.67,.46,.08,.02h2.18s.66-.02,.66-.02h1.29s.2-.01,.2-.01h.12s.06,0,.06,0h.19s.38,0,.38,0h.3s0,0,0,0h.22s.16,0,.16,0h.9s.29,0,.29,0h.86s.26,0,.26,0h.02s.58,.03,.58,.03h.05s.15,.01,.15,.01h.21s.32,.02,.32,.02h.17s.82,.05,.82,.05h.04s.17,0,.17,0h.29s1.01-.04,1.01-.04l.34-.02,1.27-.07,.3-.02,.76-.04h.26s.07-.02,.07-.02h.17s.13-.02,.13-.02l.75-.04,.6-.03,.47-.02h.15s.38-.03,.38-.03h.11s.67-.04,.67-.04h.05s.67,.04,.67,.04l.84,.06h.06s.34,.03,.34,.03l.49,.03,.25,.02,.33,.02,1.29,.09,.65,.07,.48,.05h.11s.73,.09,.73,.09l.43,.04h.02s.95,.1,.95,.1l.37,.04h.13s.43,.06,.43,.06l.47,.05,.37,.04,1.14,.12"/>
        <path class="cls-1" d="M64.05,190.91l-1.83,.1-2.34,.12-3.41,.18-6.36,1.01-5.29,.9-5.83,.28-7.3,.36-4.24,.37-3.47,.6-4.55,.72-3.84,.36-3.27,.36-2.07,.33-2.46,.15-2.65,.19-2.08,.56-.07,.02-.14,.49-.07,.24-.05,.19-.07,.26h0s-.12,.45-.12,.45l.11,.26,.19,.46,.09,.22,.16,.39,.14,.35,.1,.1,.3,.3,.38,.39,.22,.23,.24,.25,.13,.08,.18,.11,.24,.15,.14,.09"/>
        <path class="cls-1" d="M62.24,211.79l.68,.2,.3,.09,.35,.12h0s.08,.03,.08,.03l2.62,.92,3.81,.37,4.8,.29h4.87s.39-.01,.39-.01"/>
        <path class="cls-1" d="M65.66,197.94l-.18,.24-1.48,1.89-.23,.3-1.05,.24-.14,.03h-.01s-.86,.2-.86,.2l-2.41,.55-.27,.06-.23,.05h-.03s-.67,.16-.67,.16"/>
        <path class="cls-1" d="M3.07,197.49H1.83s-.33,1.84-.33,1.84l.71,1.8,1.15,1.46,.26,.3,.86,.73,1.39,.73,.72,.37,3.32,.91,4.3-.08,1.2-.1h.09s.04-.01,.04-.01l.5-.04,.71-.06h.17s.25,0,.25,0h.2s.36,.02,.36,.02l1.87,.06h.09s.08,0,.08,0h.26s.2,0,.2,0l2.15-.11,.3-.02h.08s.27-.02,.27-.02h.23s1.86-.11,1.86-.11l.53-.03h.04s.06,0,.06,0h.05s.02,0,.02,0l.15-.02,2.22-.27,.22-.03,.45-.05,.39-.05,.58-.07,2.01,.13,2,.13,.78,.05,.66,.06,1.01,.1,.75,.07,.34,.03,.58,.05,.31,.03,1.07,.1"/>
        <path class="cls-1" d="M15.42,205.44l.46,.69,1.01,.84,.46,.34,1.68,.85,2.94,.44,4.39-.15h2.38s3.09,.21,3.09,.21l5.1-.08,.81-.15,.5-.09,.41-.07,.19-.04h.01s.45-.08,.45-.08l.17-.03"/>
        <path class="cls-1" d="M60.4,212.16l1.87,.07h1.4"/>
        <path class="cls-1" d="M37.74,208.43l-.16,.23,.02,1.36,.75,1.04,.5,.46,.74,.55,.74,.34,1.64,.51,2.83,.2,1.78-.15"/>
        <path class="cls-1" d="M59.19,201.57h-.15s-.13,.02-.13,.02l-.25,.02-.57,.05-.39,.03-.78,.07-1.1,.09-.88,.07-.69,.06-.37,.03-.36,.02h-.27s-.12,.02-.12,.02h-.11s-1.71,.09-1.71,.09l-1.04,.05-.58,.03-.36,.02h-.05s-.28,.02-.28,.02l-.75,.04h-.02s-.66,.03-.66,.03h-.23s-.4-.01-.4-.01l-1.62-.1h-.08s-.43-.03-.43-.03h-.24s-.04-.02-.04-.02h-.03s-.13,0-.13,0l-.28-.02-.39-.02-.16,.04-.13,.03-.43,.11-.18,.05-.26,.06-.4,.1"/>
        <path class="cls-1" d="M56.9,201.76l-1.06,.07-.92,.06-.61,.04-.8,.05-.39,.02-1.82,.14"/>
        <path class="cls-1" d="M39.49,204.03v.1s-.02,.18-.02,.18l-.02,.27v.06s-.04,.43-.04,.43v.03s0,.02,0,.02v.16s-.02,.09-.02,.09h0s-.02,.26-.02,.26l.02,.43v.03s.05,1.01,.05,1.01v.07s.02,.39,.02,.39v.07s0,0,0,0v.05s0,0,0,0h0s0,.03,0,.03v.05s0,.03,0,.03v.21s.01,.09,.01,.09h0s0,.02,0,.02l.32,.39,.06,.07,.18,.21,.19,.23h0s.12,.16,.12,.16l.64,.77,.1,.12,.05,.06,.08,.1,.31,.38"/>
        <path class="cls-1" d="M44.05,202.35l-.22,.02-.35,.03-.21,.02-.45,.04h-.15s-.32,.04-.32,.04l-.21,.02h-.04s-.07,0-.07,0"/>
        <path class="cls-1" d="M42.03,202.52l-.86,.23-.16,.12-.27,.2-.31,.24-.06,.04-.02,.02-.18,.14-.1,.08-.12,.09h0l-.14,.1-.06,.05-.15,.11-.12,.09,.12-.09,.15-.11,.07-.05,.15-.11h0s.12-.09,.12-.09l.1-.07,.2-.14,.05-.04,.04-.03,.09-.06,.19-.09,.23-.12,.08-.04,.06-.03,.58-.29,.25-.12,.07-.04"/>
        <path class="cls-1" d="M408.02,312.15v.95s-.02,1.28-.02,1.28l-.07,7.77v.24l.04,.3"/>
        <path class="cls-1" d="M449.27,963.24l.19-5.6,.04-1.98-.28-10-.07-2.43,1.67-9.86,.18-1.06-.47-9.99-.14-2.98-1.55-9.88-.87-5.55-.08-.47,.07-.88,.21-2.65,.03-.35v-.02s.25-3.15,.25-3.15l.76-9.53"/>
        <path class="cls-1" d="M420.99,989.03l-.4,.74,.05,.05,.89,.87,.36,.35,.36,.35,.03,.03,2.41,2.36,2.87-.2,2.11-1.19,2.45-2.42,.19-.27,.77-1.07"/>
        <path class="cls-1" d="M407.86,960.14l-5.09,6.23-3.2,5.06-1.69,4.26,1.18,3.36,.93,2.85,.83,2.08,2.24,3.01,.42,.38,2.13,.49,1.22-.71,.03-1.06"/>
        <path class="cls-1" d="M406.05,983.5l.1,.27,.11,.27,.06,.16,.04,.15,.15,.53,.05,.18,.11,.4,.04,.13,.04,.15,.1,.36,.58,2.09,2.52,2.52,.67,.4,2.11,.46,1.07-.91,.25-1.09"/>
        <path class="cls-1" d="M432.07,987.08l-.4,.61-.03,.04,.85,.53,.44,.28,.03,.02,.11,.07,.56,.35,5.21,3.26,5.47-.07,4.05-4.89,1.21-3.81,.58-2.7,.02-.07,.07-.33"/>
        <path class="cls-1" d="M436.77,979.62l-1.1,1.75-.51,.82-.63,1.01-.71,1.14h0s-.78,1.25-.78,1.25"/>
        <path class="cls-1" d="M425.06,981.99l-.36,.6-1.09,1.8-.03,.05-.4,.66-.12,.2-.58,.96-.36,.68"/>
        <path class="cls-1" d="M413.6,984.34v.33s.03,.28,.03,.28l.02,.58,.06,.76,.02,.19,.04,.44v.1s.04,.37,.04,.37l.05,.61v.07s.04,.44,.04,.44l.02,.23,.06,.75,.07,.08,2.53,2.96,.94,.6,2.16-.08,2.61-1.63"/>
        <path class="cls-1" d="M450.16,980.78l2.69-3.27-.87-3.67-2.48-9.69-.23-.91-.3-1.15"/>
        <path class="cls-1" d="M414.81,946.06l-.39,.8-1.05,2.12-4.43,8.97-1.09,2.21-.33,.66"/>
        <path class="cls-1" d="M447.85,74.07h0s.13,.45,.13,.45l.02,.07,.23,.8,.07,.29,.22,.89,.04,.17,.49,.72h0s.08,.13,.08,.13l.08,.12,.08,.14,.31,.55,.49,.88,.14,.24"/>
        <path class="cls-1" d="M405.62,981.22l-.85-1.68-.48-.95"/>
        <path class="cls-1" d="M413.59,983.75h0s-.58-1.06-.58-1.06l-.87-1.58"/>
        <path class="cls-1" d="M432.31,989.71l1.33-.72"/>
        <path class="cls-1" d="M447.96,903.92v-1.35"/>
        <path class="cls-1" d="M448.17,899.92l.23-1.27,1.32-7.14,1.27-6.91"/>
        <path class="cls-1" d="M548.4,988.02l2.38,2.03-3.32-1.34"/>
        <path class="cls-1" d="M902.21,210.41l3.49-.16h.09"/>
      </g>
    </g>
  </g>
</svg>