<?xml version="1.0" encoding="UTF-8"?>
<svg id="Layer_2" data-name="Layer 2" xmlns="http://www.w3.org/2000/svg" viewBox="0 0 175.46 988.92">
  <defs>
    <style>
      .cls-1 {
        fill: none;
        stroke: #000;
        stroke-linejoin: round;
        stroke-width: 3px;
      }
    </style>
  </defs>
  <g id="Layer_1-2" data-name="Layer 1">
    <g id="ViewLayer_LineSet" data-name="ViewLayer LineSet">
      <g id="strokes">
        <path class="cls-1" d="M36.97,54.47l.02,1.12v.41s.01,.34,.01,.34l.24,.78,.05,.16"/>
        <path class="cls-1" d="M123.95,104.18l4.8-6.8,6.24-7.81,1.46-1.82,4.53-8.91,.73-1.43,2.18-9.76,1.68-7.52-.23-10-.13-5.82-.81-3.95-3.78-9.26-.58-1.41-2.65-3.94-6.92-7.22-1.31-1.37-4.09-3.25-8.58-5.14-2.43-1.46-4.66-1.94-9.64-2.67-3.85-1.07-3.98-.06-10-.03-6.72-.02-9.37,3.49-9.15,3.4-1.57,1.1-7.3,6.83-3.36,3.15-1.56,1.47-5.34,8.46-.9,1.42-.97,2.17-2.84,9.03-.27,2.87-.68,7.27"/>
        <path class="cls-1" d="M121.4,121.67l-.07-.37,.04-9.03,2.58-8.09,.05-.17"/>
        <path class="cls-1" d="M24.74,83.7l.76,.1,.28,.04,.15,.02,.49,.07,.11,.05,.23,.1,.33,.15,.76,.35,.1,.05h0l.53,.38,.1,.07,.07,.05,.12,.09,.09,.06,.18,.13"/>
        <path class="cls-1" d="M32.61,44.9l-1.12,7.92,.14,6.21-1.74,4.72-2.93,3.96-2.84,3.84-3.04,3.86-2.83,4.38,1.18,4.59,3.46,2.07,2.07,.88,1.67,1.22"/>
        <path class="cls-1" d="M27.35,90.31l-.72-1.74h0s-.01-.03-.01-.03h0s0,0,0,0v.03s.01,0,.01,0l.3,.7,.42,.98v.06s0,0,0,0l.04,1.68-.39,2.07-.13,2.01-.02,.28,.07,.18"/>
        <path class="cls-1" d="M37.9,58.24l-.2-.31-.41-.65,.41,.61,.19,.29v.06s.04,.29,.04,.29l.02,.21v.1s.07,.52,.07,.52v.07s.03,.15,.03,.15l.02,.13v.1s.05,.25,.05,.25l.05,.32,.07,.48,.11,.49,.16,.74-.05,.16-.08,.25-.17,.5-.05,.14-.08,.25-.08,1.16-.05,.68-.03,.38-.03,.41-.13,.69v.02s-.01,.04-.01,.04l-.33,1.75"/>
        <path class="cls-1" d="M84.97,86.02l1.24,.36,.11,.03,.06,.02,.21,.06,1.56,.45,.1-.06,.18-.11,.67-.4,.07-.04,.35-.21,.54-.32,1.33-.8,.26-.15,.37-.22,.7-.77,.08-.09,.65-.71,.15-.16,.08-.09,.7-.78,.05-.06,.04-.04h0l.14-.15h.01s.07-.09,.07-.09l.06-.06,.18-.19,.09-.1,.05-.06,.08-.09,.13-.15,.26-.29,.34-.38,.07-.13,.62-1.27,.1-.21,.07-.14,.61-1.25,.31-.63,.07-.14,.07-.15,.15-.31,.17-.35,.02-.04,.21-.42,.13-.26h0s.33-1.34,.33-1.34l.05-.2,.02-.09,.03-.12,.25-1.01,.3-1.23,.21-.87v-.17s.02-.07,.02-.07l.19-3.17,.06-1.04-.09-.46-.04-.18-.37-1.82-.03-.12-.32-1.55-.08-.22-.69-1.87-.59-1.58-.05-.04-1.35-1.09-.04-.03-.76-.61-.62-.5-.61,.03-.98,.05-1.12,.06h-.26s-.58,.24-.58,.24l-.66,.25-.34,.13-.66,.25-.13,.05-.42,.32-1.09,.84-.31,.24"/>
        <path class="cls-1" d="M92.48,64.01l.27,.84,.04,.11,.03,.08v.02s.06,.17,.06,.17l.13,.41,.04,.2,.06,.33,.1,.53,.1,.53,.17,.69,.07,.28h0s.02,.1,.02,.1l.18,.74v.02s.09,.37,.09,.37l.15,.6v.03s.09,.34,.09,.34v.04s.1,.4,.1,.4"/>
        <path class="cls-1" d="M90.38,59.36l.45,.33,.41,.3,.07,.06,.07,.06,.06,.04,.18,.14,.37,.28"/>
        <path class="cls-1" d="M65.78,183.69h0s-.08,.11-.08,.11l-.8,1.07-.12,.16-1.08,1.43-.52,.69-1.79,2.39-.21,.28-.39,.52-1.37,1.83-.23,.31-.72,.96-.3,.41-.29,.39-.17,.22-.05,.07-5.97,8.02-.99,1.32-1.96,2.53-6.33,7.74-.85,1.03-6.15,7.88-.92,1.18-6.33,7.74-.7,.86-5.13,6.52-5.36,8.44-.06,.09-1.28,2.77-2.13,6.04-.83,3.88,.07,9.51,2.93,8.01,4.24,6.34,1.82,1.87,.37,.38,.81,.83,1.16,1.18,.46,.47h0s.29,.3,.29,.3l.46,.47,.38,.39,.19,.2h0s0,0,0,0l.14,.15,.18,.19,.52,.53"/>
        <path class="cls-1" d="M90.86,153.74l-.06,.12-.17,.34-.12,.24-.03,.06-.61,1.25-.49,1.01-.17,.34-.02,.04h0s-.02,.05-.02,.05l-.56,1.14-.75,1.54-.17,.34-.28,.57-.08,.17-.29,.84-.18,.52"/>
        <path class="cls-1" d="M71.94,165.88l-.2,.6-.28,.83v.02s-.16,.45-.16,.45v.02s-.01,.02-.01,.02v.03s-1.3,3.89-1.3,3.89l-4.33,5.57-3.81,7.83-4.09,9.12-.13,.28"/>
        <path class="cls-1" d="M161.62,250.28l-.02-.32-.03-.59v-.04s0-.2,0-.2l.06-1.81v-.03l.16-1.55,.11-.99,.48-4.51,.2-1.91,.06-.6,.05-.48v-.07s.03-.18,.03-.18l.03-.25,.25-2.34-.21-3.55,.13-10v-.59s-1.15-9.93-1.15-9.93l-.13-1.1-1.91-9.82-.11-.58-2.54-9.49-2.98-8.99-3.5-7.63-3.3-5.87"/>
        <path class="cls-1" d="M138.63,385.18l-1.25-4.03-.02-.07-1.62-5.21-.1-.32-.4-1.29-.13-.43-.02-.07-.2-.65-.3-8.87v-.23s-.12-3.21-.12-3.21v-.27s-.02-.27-.02-.27l-.02-.51,.46-3.18,.16-1.13,.21-1.43,.05-.36,.83-5.72,.08-.54,.04-.3,1.05-4.29,.18-.72,1.49-6.06,.21-.84,.41-1.58,.52-2,.83-3.19,1.39-5.36,.14-.52,.04-.17,.49-1.73,.57-2.03,.48-1.71,1.69-5.98,.15-.52,.23-.83,.58-2,.12-.42,.13-.45,1.66-5.72,.58-2,.02-.05,.29-1.01,.03-.11,.1-.33,.16-.54"/>
        <path class="cls-1" d="M135.05,535.51l.73-1.07,1.19-1.76,.12-.18,.7-1.03,.59-.87,1.74-2.58,1.51-2.23,2.37-3.5,6.38-6.13,2.79-2.87,4.89-8.72,.43-.76,3.21-9.47,.18-.53,2.28-9.74,.59-2.5,.76-9.97,.26-3.42-.97-9.95-.38-3.95-2.29-9.73-.94-4.01-3.18-8.78-.41-1.13-.13-.37-.42-1.17-.16-.44"/>
        <path class="cls-1" d="M5.95,385.06l-.96,2.82-1.19,6.63-.24,4.07-1.05,9.94-.18,1.67-.17,10-.02,1.36,1.22,9.92,.22,1.82,1.98,9.8,.54,2.68,1.49,5.92,1.79,7.12"/>
        <path class="cls-1" d="M23.96,473.92l-.76,3.57-.67,3.14-.42,1.99-.15,.71-.11,.53-.06,.27-.3,1.42-.09,.41-.03,.15-.02,.12-.1,.47-.09,.44v.02s-.02,.08-.02,.08v.04s-.44,2.03-.44,2.03l-1.88,9.82-1.3,6.8-.88,9.96-.71,7.95,.09,10,.09,9.26,1,9.95,.93,9.3,1.67,9.86,1.5,8.83,2.21,9.75,2.01,8.85,2.6,9.66,2.2,8.15,2.92,9.56,2.22,7.27,3.3,9.44,2.24,6.41,2.59,9.66,2.09,7.81,1.73,9.85,.9,5.14,1.9,9.82,.98,5.06,4,9.16,1.88,4.3,4.9,8.72,2.15,3.83,5.71,8.21,1.29,1.85,3.29,9.44,1.03,2.94,1.76,9.84,.9,5.06,1.27,9.92,.83,6.48,1.53,9.88,1.4,9.04,1.59,9.87,1.59,9.87,.06,.37,1.49,9.89,1.49,9.89,.11,.71,1.42,9.9,1.42,9.9,.26,1.8,.98,9.95,.68,6.96,.46,4.66v1.05s0,.7,0,.7v10s0,.2,0,.2v1.07s0,1.82,0,1.82v3.77s-.18,1.5-.18,1.5l-.98,8.17-.33,2.78-.2,1.64-.19,1.58-1.01,3.54-.32,1.12-1.09,3.81-.51,1.77-1.07,3.72-.3,.45-.5,.74-1.6,2.37-.89,1.32-3.66,5.43-1.7,1.13-4.16,2.77-.06,.04-1.45,.96-1.61,1.07-1.11,.74-2.28,1.3-2.75,1.56-1.87,1.06-2.32,1.32-2.93,1.67-.16,.09-3.5,2.3-1.71,1.12-.45,.29-.22,.14-.19,.12-2.81,1.84-.34,.22-.26,.17-.88,.58-.75,.49-.14,.09-.8,.53-.06,.04"/>
        <path class="cls-1" d="M37.65,986.18l9.98,.61,2.65,.16,3.23,.13,8.98-.81,9.86-1.64,4.21-.7,9.86-1.66,4.47-.75,9.93-1.18,3.68-.44,9.99-.33,2.87-.09,9.87-.33,5.73-.53,4-.71,4.8-1.67,1.37-1.35,4.61-5.35,1.33-9.69-3.14-9.49-.76-2.28-.62-2.47-.71-2.81-.41-1.62-.53-2.11-.49-1.95-.15-.95-.55-3.45-.54-3.39-.12-.77-.66-4.09-.17-3.58-.48-9.99-.15-3.06,.42-9.99,.31-7.44,.86-9.96,.74-8.57,1.07-9.94,1.07-9.94,.1-.88,1.42-9.9,1.42-9.9,.34-2.38,1.15-9.93,1.15-9.93,.26-2.23,.19-10,.19-10,.03-1.62-1.17-9.93-1.17-9.93-.09-.77-.7-2.65-1.01-3.84-.93-3.53-.84-3.18-.8-3.03-.69-2.6-.74-2.27-.45-1.37-1.49-4.55-.75-2.3-.66-2.03-1.26-3.85-.49-1.51-2.74-7.03-.26-.67-1.27-3.26-.03-.07-2.16-5.55-.15-1.49-.73-7.25-.12-1.21v-.07s-.62-6.14-.62-6.14l-.85-8.23v-.05s-.05-.48-.05-.48l-.06-.57-.06-.59-.64-6.26v-.32s-.05-.98-.05-.98l-.36-9.99-.14-3.84,.46-9.99,.25-5.41,.93-9.96,.52-5.57,.62-9.98,.39-6.3,.03-10,.02-6.53,.1-10,.08-7.66,.1-5.46,.17-10,.04-2.35,.02-1.34,.37-1.76,.08-.4,.18-.84,2.04-9.79,1.21-5.83,.09-.42,.04-.2,.26-1.18,.5-2.27,.91-4.14,.87-3.95"/>
        <path class="cls-1" d="M22.17,471.21l-.02,1.27-.11,6.6-.06,3.48v.78"/>
        <path class="cls-1" d="M24.71,291.59l.6,7.77-4.12,9.11-.53,1.18-2.83,9.59-.5,1.7-2.37,9.71-.52,2.15-2.15,9.77-.47,2.12-1.48,9.89-.45,3.02-.92,9.96-.51,5.53-2.04,9.79-.46,2.19-.28,1.35"/>
        <path class="cls-1" d="M135.7,195.21l.08-.18,.14-.29h0s.16-.34,.16-.34h0s0-.02,0-.02l.13-.27,.08-.16,.1-.21,.08-.17v-.02s.07-.13,.07-.13v-.02s.2-.4,.2-.4l.02-.04h0s.08-.19,.08-.19l.02-.03,.03-.07v-.03s.06-.11,.06-.11l.32-.67,.07-.15,.08-.17,.05-.09,.45-.94,.04-.09,.03-.07,.15-.31,.02-.04,.05-.14,.16-.44,.79-2.18,.04-.11,.07-.19,.03-.09,.44-1.22,.09-.24,.11-.31,.07-.19,.22-.61,.03-.1,.12-.32,.09-.25h0s.03-.09,.03-.09l.19-.52,.31-.84,.18-.48"/>
        <path class="cls-1" d="M132.08,200.52l.4-.58,.46-.68,.54-.79,.33-.48,.66-.97,.14-.2,.55-.81,.14-.2,.12-.18,.24-.35,.05-.08,.26-.39h0s.2-.3,.2-.3h0s.06-.09,.06-.09l.1-.14,.04-.05,.04-.07,.13-.19v-.02h.01s.07-.11,.07-.11h0s.04-.05,.04-.05l.04-.06v-.02s.07-.09,.07-.09l.31-.46,.05-.08,.05-.07,.17-.25,.04-.06h0s0,0,0,0l.11-.17,.3-.46h0s.03-.05,.03-.05l.12-.18,.05-.08,.04-.06,.03-.04,.12-.18v-.02s.05-.05,.05-.05l.17-.25,.41-.61"/>
        <path class="cls-1" d="M138.82,190.53l.07-.24,.11-.43,.15-.57,.14-.51,.3-1.11,.04-.16,.06-.24v-.03s.03-.07,.03-.07l.3-1.1,.05-.2,.07-.26,.07-.27v-.03s.04-.11,.04-.11l.08-.29,.09-.32,.21-.78,.43-1.59,.14-.53,.04-.65,.07-1.18,.02-.39,.05-.92,.11-2.11-.13-1.74v-.19s-.02-.08-.02-.08l-.08-1.13-.08-1.08-.03-.43-.06-.83-.04-.6-.14-1.03-.08-.53-.12-.88-.13-.95v-.04s-.03-.16-.03-.16l-.04-.27-.03-.11"/>
        <path class="cls-1" d="M7.58,451.7l1.8,7.78,2.97,9.55,.54,1.73,3.86,9.22,.21,.51,3.95,6.53,.21,.24"/>
        <path class="cls-1" d="M132.87,200.5l.03-.05,.53-.76,.45-.64,.38-.55,.57-.82,.19-.27,.42-.61,.1-.14,.05-.07h0s.02-.04,.02-.04l.02-.03,.02-.02,.13-.18h0s0-.02,0-.02h0s.03-.05,.03-.05l.11-.16,.07-.1"/>
        <path class="cls-1" d="M127.57,184.92l.27-.19,.42-.29,.37-.26,.56-.39,.2-.14,.41-.29,.16-.11,.06-.04,.04-.03,.13-.09,.24-.17,.12-.09,.48-.34,.72-.51h0s.15-.21,.15-.21l.38-.51,.66-.9,.66-.9,.02-.03,.06-.08,.21-.28,.83-1.12,.21-.28,.09-.12"/>
        <path class="cls-1" d="M137.15,174.31l.02-.04,.08-.22,.23-.64,.11-.31,.02-.05h0s.07-.21,.07-.21l.04-.1,.05-.15v-.04s.03-.06,.03-.06l.03-.08,.04-.12,.18-.51,.05-.14,.08-.23,.03-.09,.22-.6"/>
        <path class="cls-1" d="M116.21,190.32l1.74-.52,1.66-.49,2.32-1.09,.35-.16,.16-.08,.21-.1,1.32-.62,.78-.51,1.92-1.25,.06-.04,.06-.04,.69-.45,.1-.06-.73,.55-.06,.05-.07,.05-1.75,1.32-.41,.3-1.83,.79-.31,.13-.3,.13-2.5,1.07"/>
        <path class="cls-1" d="M140.32,166.74l.02-.06,.07-.18,.05-.13h0s0-.03,0-.03l.03-.08,.28-.69,.07-.16,.04-.1,.31-.75,.03-.06h0s.01-.04,.01-.04l.02-.05,.09-.21,.03-.07,.07-.16v-.03s.45-1.08,.45-1.08l.16-.38,.05-.13h0s.13-.33,.13-.33v-.02s0-.02,0-.02l.19-.84v-.03s.09-.39,.09-.39l.07-.3,.02-.1,.04-.17v-.06s.02-.04,.02-.04h0s0-.02,0-.02v-.03s.02-.05,.02-.05l.03-.12,.5-2.25,.12-4.11,.05-3.44"/>
        <path class="cls-1" d="M138.37,171.88l.13-.55,.1-.44,.06-.24,.03-.12,.02-.07,.1-.41,.04-.17"/>
        <path class="cls-1" d="M135.64,174.48l.24-.4,.55-.9,.62-1.02,.05-.08,.1-.17,.03-.05,.19-.31,.04-.07h0s.06-.1,.06-.1l.03-.05,.07-.12h0s.06-.1,.06-.1l.3-.49,.06-.11,.2-.33,.12-.2,.06-.11,.06-.1,.05-.09,.03-.05,.03-.05h0s0-.03,0-.03h0l.05-.09h0s.02-.04,.02-.04h0s.13-.23,.13-.23l.02-.04,.02-.03,.07-.12,.04-.07,.08-.13,.02-.04h0s0,0,0,0l.07-.11h0s0-.02,0-.02l.09-.14v-.02s.09-.13,.09-.13l.08-.14,.21-.35h0s0-.01,0-.01l.03-.05,.07-.12,.06-.1h0s.09-.15,.09-.15l.07-.12h0s.04-.08,.04-.08l.2-.34,.09-.14h0s0,0,0,0l-.08,.17-.18,.38-.04,.09-.02,.04v.03s-.13,.25-.13,.25v.02s-.02,.02-.02,.02l-.1,.21-.03,.06-.02,.04-.02,.03h0s-.1,.21-.1,.21l-.12,.25-.1,.2v.02s-.09,.17-.09,.17l-.2,.42-.05,.1h0s-.03,.07-.03,.07l-.1,.21-.02,.04h0s-.03,.08-.03,.08l-.05,.11-.09,.2h0s-.01,.03-.01,.03h0s-.01,.04-.01,.04v.02s-.01,0-.01,0l-.13,.28-.04,.09-.05,.1-.24,.5-.04,.08-.13,.27-.06,.14-.13,.28h0s0,.02,0,.02l-.03,.06-.02,.04-.08,.16-.03,.06-.03,.06-.03,.07-.07,.14-.03,.05h0s-.17,.33-.17,.33l-.38,.75-.58,1.14-.11,.22-.54,1.07-.22,.42-.1,.2-.17,.33-.22,.43,.68-1.03,.15-.23,.72-1.09,.39-.59,.2-.3h0s.11-.24,.11-.24l.04-.08,.21-.43,.1-.19,.04-.08,.07-.14,.02-.03,.12-.24,.02-.05,.04-.09,.06-.12,.31-.62v-.02s.03-.04,.03-.04l.02-.04v-.03s0,.03,0,.03l-.02,.04-.02,.04h0s-.3,.65-.3,.65l-.07,.16-.04,.09-.02,.04-.12,.26v.03s-.08,.15-.08,.15l-.05,.1-.08,.18-.23,.49-.31,.67-.29,.65-.52,1.16-.5,1.12"/>
        <path class="cls-1" d="M143.46,395.18l-1.11-2.29-2.26-4.68-.23-.47-.34-.71-.07-.14-.83-1.71-.29-.6"/>
        <path class="cls-1" d="M158,431.74l-1.02-3.42-3.22-9.47-1.01-2.96-3.96-9.18-.94-2.18-4.12-9.11-.23-.51"/>
        <path class="cls-1" d="M144.7,162.54l-1.96-2.69"/>
        <path class="cls-1" d="M133.9,200.1l.3-.56,.36-.68,.45-.85,.18-.34,.08-.15,.05-.09h0s0,0,0,0l.02-.05,.03-.05v-.03s.48-.87,.48-.87h0s.01-.03,.01-.03l.24-.45,.21-.39h0s.11-.22,.11-.22l.04-.07h0s.02-.03,.02-.03"/>
        <path class="cls-1" d="M133.67,201.96l.08-.21,.07-.19,.41-1.15,.2-.55,.3-.83,.34-.93,.15-.41,.06-.16,.02-.05,.03-.08,.04-.09"/>
        <path class="cls-1" d="M135.15,197.95l.08-.22,.15-.43"/>
        <path class="cls-1" d="M78.12,153.36l-1.03,2.19-.52,1.11-.14,.3-.61,1.29-.08,.16-.91,1.92-.54,1.15v.03s-.86,1.79-.86,1.79l-.74,1.57-.33,.71v.04s-.18,.59-.18,.59l-.38,1.37-.17,.63h0s-.1,.37-.1,.37l-.1,.36h0s-.61,2.23-.61,2.23l-.37,1.35-.03,.11-.03,.1-.6,2.19-.4,1.44-.1,.35-.25,.91-.06,.21-.03,.11-.07,.24-.22,.8-.02,.06-.02,.06h0s-.03,.1-.03,.1l-.08,.28v.02s-.07,.22-.07,.22v.02s-.2,.68-.2,.68l-.06,.23-.09,.32-.11,.38-.04,.15-1.31,5.15-.44,1.72-.58,2.29-.47,1.84"/>
        <path class="cls-1" d="M135.42,197.1l.02-.03h0s.01-.02,.01-.02l.04-.07,.11-.21,.22-.39h0s0-.01,0-.01l.25-.45,.22-.38h0s.12-.22,.12-.22l.04-.07h0s.02-.03,.02-.03l.12-.27,.05-.13"/>
        <path class="cls-1" d="M132.85,201.14v-.02s.27-.4,.27-.4l.53-.83,.39-.61,.38-.6,.52-.82,.05-.09,.14-.21,.28-.44h0s.02-.03,.02-.03l.02-.03h0s.01-.03,.01-.03l.05-.08,.14-.26,.18-.33h0s0,0,0,0l.25-.46,.05-.09,.17-.3h0s.15-.29,.15-.29h0s.12-.22,.12-.22l.02-.03v-.03s.08-.12,.08-.12h0s.04-.07,.04-.07l.05-.1,.08-.15,.06-.11,.06-.1v-.02s.11-.19,.11-.19l.2-.37,.09-.16,.33-.6,.1-.18"/>
        <path class="cls-1" d="M70.67,140.29l-.27,.02-.54,.05-.94,.09-.64,.06-.73,.37-.68,.35-.04,.02v.02s-.86,1.54-.86,1.54l-.48,.87,.02,.56,.02,.49,.06,1.47v.21s.01,.13,.01,.13l.1,.16,.96,1.55,.4,.35,.06,.05,.1,.09,.11,.1,.1,.09,.68,.61,.78,.75,.12,.11,.12,.12,.88,.84,.23,.08,.61,.21,.9,.3h.04s.11,.05,.11,.05l.87,.28,1.65,.54,.78,.26,.57,.05,2.35,.22h.02s.24-.03,.24-.03h.02s.12-.01,.12-.01h.02s.97-.11,.97-.11h.09s.37-.05,.37-.05l.43-.05,.24-.03,.43-.06h.11s.06-.02,.06-.02l.15-.02h.03s.3-.04,.3-.04l.3-.04,1.39-.19,.17-.02h.01s.29,.02,.29,.02h.11s1.33,.1,1.33,.1l.44,.03h.07s.07,.01,.07,.01l.84,.06,.77,.06h.05s.18,.02,.18,.02h.07s.05,.02,.05,.02l.58,.15,.33,.08,.34,.08,.16,.04h.05s0,.01,0,.01l1.07,.26,.37,.09,.09,.02h.01s.1,.03,.1,.03h.02s.16,.05,.16,.05h.03s.02,.01,.02,.01h.05s.07,.03,.07,.03l.09,.03h.04s.02,.02,.02,.02h0s.26,.1,.26,.1l.19,.07,.15,.05,.08,.03,.3,.11,.31,.11h.04s.32,.13,.32,.13l.15,.05h0s.47,.17,.47,.17h.03s.03,.02,.03,.02l.13,.05,.58,.21,.8,.29,.13,.04,.21,.08,.05,.02,.79,.13,.15,.02,.55,.09,.25,.04,.59,.1,.48,.08,.23,.04,.94,.15,.94,.15,.18,.03,1.23,.2h.18s.71-.02,.71-.02h.05s2.06-.05,2.06-.05h.51s.51-.03,.51-.03l.86-.02,.79-.02h.42s.09-.01,.09-.01h.45s.16-.05,.16-.05l1.84-.46,.36-.09,1.99-.5,.93-.23,.28-.07,1.43-.45,1.8-.57,.11-.03,.73-.23,.18-.06,.08-.02,1.05-.26,1.17-.29,.59-.15,.63-.16,.62-.04,.99-.07,.46-.03h.01s0,0,0,0l.44-.03h.14s.23-.03,.23-.03h.4s.34,.02,.34,.02h.09s.3,0,.3,0h.59s.3,.02,.3,.02h.05s.11,0,.11,0h.25s.19,.01,.19,.01h.4s.52,.02,.52,.02h.23s.53,.02,.53,.02h.08s.22,0,.22,0h.05s.17-.03,.17-.03l.29-.06h.05s.11-.03,.11-.03l.28-.06h.05s0-.01,0-.01h0l.1-.02,.15-.03h.08s.47-.11,.47-.11l.26-.05h.01s.22-.05,.22-.05h.05s.16-.04,.16-.04l.12-.02,.13-.03,.2-.04h.04s0,0,0,0h.03s.22-.05,.22-.05l.27-.05h.03s.02,0,.02,0h.07s.02-.02,.02-.02h.05s0,0,0,0h.09s.01-.01,.01-.01h.01s0,0,0,0h.08s.05-.02,.05-.02h.06s.16-.03,.16-.03h.05s.35-.05,.35-.05h.03s.43-.06,.43-.06h.03s.12-.02,.12-.02l.22-.03,.42-.05,.39-.05h.01s.03,0,.03,0h0s.06,0,.06,0h.02s.03,0,.03,0l.3-.04,.14-.02h0s.03,0,.03,0l.14-.02h.01s.01,0,.01,0l.16-.02h.1s.21-.04,.21-.04l.14-.02,1.27-.16,1.03-.13,.8-.1,.35-.04h0l.51-.06h.04s.35-.05,.35-.05h.02s.64-.23,.64-.23l.19-.07,.09-.03h.03s.21-.11,.21-.11l.08-.04,.35-.16,.23-.11,.05-.02h0s2.83-1.31,2.83-1.31l.82-.64"/>
        <path class="cls-1" d="M102.38,131.39l-.33,.71h0s-.02,.04-.02,.04l-.03,.07-.12,.26-.19,.44v.03s-.13,.27-.13,.27l-.4,.9-.03,.06v.03s-.45,.99-.45,.99l-.71,1.61-.18,.4"/>
        <path class="cls-1" d="M116.7,124.2l-.41,.03h-.04s-1.28,.1-1.28,.1l-.31,.02h-.1s-.27,.03-.27,.03h0s-.74,.06-.74,.06h-.03s-.99,.08-.99,.08l-.29,.02h-.07s-.15,.02-.15,.02h-.12s-.02,0-.02,0h-.11"/>
        <path class="cls-1" d="M115.62,132.45l-.29-.65-.6-1.37-.05-.12-.07-.15-.19-.82-.04-.17-.15-.63-.04-.15-.09-.4-.29-.42-.06-.09v-.02s-.09-.11-.09-.11l-.07-.1-.04-.06-.02-.02-.03-.04-.03-.05v-.02s-.04-.03-.04-.03l-.05-.07h0s-.08-.12-.08-.12l-.22-.32-.03-.04-.14-.21-.38-.56v-.02s-.15-.21-.15-.21l-.23-.33-.08-.11-.02-.03h0s-.02-.04-.02-.04l-.04-.06v-.02s-.07-.08-.07-.08l-.05-.07-.04-.05-.03-.04-.03-.04v-.02s-.02-.01-.02-.01l-.11-.16-.05-.07-.18-.19-.02-.02"/>
        <path class="cls-1" d="M102.22,128.2v.16s.02,.39,.02,.39h0s.02,.44,.02,.44v.22s.02,.29,.02,.29v.08s0,.06,0,.06h0s.03,.62,.03,.62l.03,.74,.02,.19v.02s0,.02,0,.02v.08s.02,.06,.02,.06l.02,.2v.02s0,.05,0,.05v.05s.01,.08,.01,.08v.11s.05,.21,.05,.21v.08s.1,.51,.1,.51l.05,.32v.03s.02,.08,.02,.08v.02s.05,.26,.05,.26v.04s.04,.18,.04,.18"/>
        <path class="cls-1" d="M116.45,123.89l-.26,.06-1.24,.29-.67,.15"/>
        <path class="cls-1" d="M136.42,127.93l-.17-.3-.11-.07"/>
        <path class="cls-1" d="M123.49,124l-.4-.1-.14-.02-.72-.1"/>
        <path class="cls-1" d="M112.58,126.44l-.36-.46-.04-.05-.12-.15"/>
        <path class="cls-1" d="M102.25,128.75l-1.51,.7-1.5,1.15-.23,.18-.49,.37-1.07,.88-.66,.54-2.23,1.82-1.29,1.06h0"/>
        <path class="cls-1" d="M126.49,122.6l-3.5-.84-1.59-.09h-.14s-.36-.03-.36-.03h-.06s-.01,0-.01,0l-.54-.03-1.36-.08h-.07s-.23-.02-.23-.02l-1.81-.1-1.35-.07h-.13s-.03,0-.03,0l-.25,.12-.36,.18-2.49,1.22-.78,.38-.54,.26"/>
        <path class="cls-1" d="M102.49,127.18l-.29,.61v.09s.02,.29,.02,.29v.02s.01,.16,.01,.16l.02,.38h0s.03,.44,.03,.44v.22s.03,.28,.03,.28v.09s0,.06,0,.06h0s.04,.6,.04,.6v.18s.03,.27,.03,.27v.04"/>
        <path class="cls-1" d="M114.9,123.36h-.03s-.35,.15-.35,.15l-1.33,.53-.2,.08h-.04s-1.06,.43-1.06,.43h-.02"/>
        <path class="cls-1" d="M93.27,135.44l-.87,.42h-.01s-3.07,1.5-3.07,1.5l-.25,.12-.22,.11-2.55,1.29-.67,.34-.94,.21-1.01,.22-1.25,.28"/>
        <path class="cls-1" d="M114.47,127.94l-.44-.48-.02-.02-.24-.27-.04-.05-.05-.05-.05-.05-.02-.02h-.01s-.03-.04-.03-.04l-.03-.03-.02-.02-.09-.1-.3-.33-.03-.03-.17-.19"/>
        <path class="cls-1" d="M110.63,123.77v-.02s-.02-.02-.02-.02h0s0-.02,0-.02l-.04-.06v-.02s-.03-.04-.03-.04l-.04-.07-.02-.03v-.02s-.34-.58-.34-.58l-.34-.59-.47-.07h-.03s-2.08-.31-2.08-.31l-2.11,1.05-.38,.19-.17,.09-.1,.05-.19,.2-.24,.26-.58,.63-.02,.03-.08,.08-.12,.13-.16,.17"/>
        <path class="cls-1" d="M104.26,123.49l-.76,.5-.29,.54-.14,.27-.04,.77v.07s0,.02,0,.02v.07s-.02,.36-.02,.36v.04s0,.01,0,.01h0s-.02,.32-.02,.32l-.02,.42-.02,.31"/>
        <path class="cls-1" d="M111.98,125.3l-.06-.12-.05-.1h0s-.01-.04-.01-.04v-.03s-.05-.06-.05-.06h0s-.01-.04-.01-.04l-.02-.03-.03-.07-.03-.07-.02-.04-.03-.05v-.03s-.03-.03-.03-.03h0s-.07-.15-.07-.15l-.07-.14h0s-.07-.16-.07-.16v-.02s-.08-.14-.08-.14h0s-.09-.18-.09-.18l-.09-.08-.04-.04-.17-.14-.07-.06-.74-.61"/>
        <path class="cls-1" d="M112.2,128.03l-.02-.17-.02-.12v-.07s-.01-.02-.01-.02v-.06s.01-.05,.01-.05h0s0-.04,0-.04v-.05s.02-.18,.02-.18h0s0-.07,0-.07v-.06s0-.02,0-.02v-.05s0-.03,0-.03l-.04-.47v-.11s-.03-.29-.03-.29v-.07s-.01-.09-.01-.09v-.16s-.02-.07-.02-.07v-.06s-.01-.06-.01-.06v-.04s0-.06,0-.06v-.07s-.01-.08-.01-.08v-.17s-.11-.14-.11-.14l-.02-.03-.02-.03-.02-.03-.04-.06h0s-.02-.04-.02-.04"/>
        <path class="cls-1" d="M129.05,121.9l-.31,.04-.85,.27-.53-.03-.88,.41-.41,.19-.05,.02-.21,.1-.03,.02-.29,.14-.34,.16-.13,.06-.46,.21-.09,.04-.06,.03-.1,.05-.61,.29-.13,.06-.08,.04-.04,.02h0s-.01,0-.01,0h0s-.02,.01-.02,.01l-.06,.03-.05,.02-.34,.16-.26,.13-.09,.04-.12,.19-.15,.24-.16,.26-.03,.05-.03,.05-.2,.31-.05,.07h0s-.06,.1-.06,.1l-.09,.15h-.01s-.25,.42-.25,.42h0s0,.01,0,.01l-.17,.27-.06,.07-.04,.04-.07,.08-.18,.19-.12,.13-.33,.35-.11,.12-.14,.15-.14,.15-.22,.24"/>
        <path class="cls-1" d="M131.54,134.86l.02-.35,.04-.84,.28-.57,.14-.29,.09-.19,.5-1.03"/>
        <path class="cls-1" d="M131.25,132.46l.04-.03,.25-.15,.13-.08h.02s.61-.38,.61-.38l.08-.05,.22-.18,.18-.14,.11-.09h0l.46-.36,.06-.05h.01s.06-.05,.06-.05l.07-.05,.14-.11h0s.02-.02,.02-.02"/>
        <path class="cls-1" d="M136.58,122.35l.49,.64-.05,1.69-.17,.8-.71,2.07h0l-.09,.27h0s-.05,.16-.05,.16h0s0,.03,0,.03l-.04,.04-.09,.1h0s0,0,0,0h-.01s0,.02,0,.02l-.02,.03-.03,.03h0s0,0,0,0l-.05,.06-.04,.04h0s0,.01,0,.01l-.02,.02h-.01s-.04,.06-.04,.06l-.02,.02h-.01s-.05,.07-.05,.07l-.02,.03-.46,.52-.09,.1-.03,.04-.35,.3-.05,.05-.19,.17-.04,.03-.1,.17-.09,.16h0s-.34,.62-.34,.62l.35-.6h0s.09-.17,.09-.17l.12-.21"/>
        <path class="cls-1" d="M136.65,122.79l-.07-.44-.2-1.29-.45-1.33-2.24-.84-2.43,1.65-.81,.54-.65,.5-.07,.05h-.02"/>
        <path class="cls-1" d="M129.81,121.57l-.29,.1-.46,.24-.16,.08h-.03s-.62,.33-.62,.33l-.04,.02-.17,.09-.12,.06-.19,.1-.41,.22-.2,.11-.11,.06-.09,.05h-.02s-.05,.03-.05,.03l-.17,.09h0s-.35,.19-.35,.19"/>
        <path class="cls-1" d="M148.61,125.4l-1.3,.24-1.83,.32-1.39-.08-3.54,.53-1.67,.39-2.12,1-.35,.14h-.02s-.11,.06-.11,.06l-.06,.02h0s-.09,.04-.09,.04h-.03s-.09,.05-.09,.05l-.15,.06h0s0,0,0,0"/>
        <path class="cls-1" d="M143.78,139.91l.25-.82,.12-.38,.13-.45,.06-.05,.51-.41,.05-.04,.36-.3,.02-.02,.18-.15,.71-.58,.15-.12,.42-.34,.1-.08"/>
        <path class="cls-1" d="M146.08,136.31h.05s.28-.06,.28-.06l.29-.06h.08s.08-.03,.08-.03h.04s.58-.12,.58-.12l.22-.04,.37-.18,.99-.48,.31-.15,.62-.3,.22-.17,.02-.02h.02s0-.02,0-.02h.01s.03-.04,.03-.04h0s.8-.63,.8-.63l.81-.53,1.25-.69,.9-1.01,1.36-1.55,.58-1.79-.27-1.62,.02-.76-.51-1.19-1.71-1.15-2.4,.88-.7,.37-.34,.18-.17,.11h0s-.12,.08-.12,.08h-.02s-.02,.03-.02,.03l-.46,.28-.16,.1"/>
        <path class="cls-1" d="M149.26,125.35l-.65,.05-1.12,.33-.1,.03-1.49,.44-.15,.04h-.04"/>
        <path class="cls-1" d="M150.41,124.98l-1.16,.37-.42,.14-.11,.03-.1,.03-1.01,.24-.17,.04-.35,.08-1.11,.27-.07,.02-.16,.04h-.04s-.72,.23-.72,.23l-.33,.1-.25,.08"/>
        <path class="cls-1" d="M163.04,134.63l-.98-.15-2.09-.24-3.2-.35-2.71,.36-3.7,.43h-.01s-.1,.01-.1,.01"/>
        <path class="cls-1" d="M150.76,145.83l.23-.1,.29-.12,2.75-1.17"/>
        <path class="cls-1" d="M153.11,144.72l.91-.28,2.66-.82,2.33-.69"/>
        <path class="cls-1" d="M158.96,142.93h.06s2.07,.04,2.07,.04l2.88-.12,1.74-.57,1.45-.16,1.74-.1,2.2-.84,1.01-.41,1.33-1.19,.53-1.57-.13-1.93-1.4-1.36-1.2-.08-1.36,.24-2.02,.07h-.12s-.55,.02-.55,.02h-.35s-.18,.02-.18,.02l-1.17,.05"/>
        <path class="cls-1" d="M167.85,134.95l-1.24-.17-3.57-.14-.61-.02h-.26s-.1-.01-.1-.01l-.4-.02"/>
        <path class="cls-1" d="M84.8,139.99l-1.29-.03-1.02-.02h-.06s-.77-.02-.77-.02h-.31s-1,0-1,0h-1.81s-.23-.01-.23-.01l-1.78,.09-1.96,.1"/>
        <path class="cls-1" d="M75.61,140.23l-.68-.09-.36-.05-.27-.04-1.02-.14-.84-.11-1.65,.42-.13,.03-.26,.07"/>
        <path class="cls-1" d="M143.72,149.06l.56-.16,2.23-.64,.17-.05,.12-.04,.24-.07,1.36-.39,1.09-.58,1.78-1.52"/>
        <path class="cls-1" d="M138.08,191.97h0l-.11,.27-.19,.47-.03,.07-.1,.18-.33,.6-.09,.16-.2,.37-.1,.19v.02s-.07,.1-.07,.1l-.06,.11-.08,.14-.05,.1-.03,.05v.02s-.08,.13-.08,.13h0s-.02,.04-.02,.04l-.12,.23h0s0,0,0,0l-.15,.28h0s-.21,.39-.21,.39v.02s-.07,.11-.07,.11l.05-.09v-.02s.22-.41,.22-.41h0s.15-.31,.15-.31h0l.02-.03,.12-.23,.07-.13h0s.03-.06,.03-.06v-.02s.08-.14,.08-.14l.05-.1,.05-.11h0s.05-.12,.05-.12v-.02s.15-.27,.15-.27l.16-.31,.05-.09,.03-.06,.29-.57,.26-.5,.08-.14,.03-.05h0s.12-.24,.12-.24h0l.1-.19,.09-.17,.56-1.09,.08-.23,.24-.7,.55-1.58,.09-.25,.09-.25,.05-.25,.24-1.26,.15-.77,.05-.27,.08-.4"/>
        <path class="cls-1" d="M142.67,160.11l.23,.34,.05,.07,.25,.37,1.89,2.76,2.21,3.23-2.61-4.34-1.81-2.23-.14-.17-.04-.05-.02-.03"/>
        <path class="cls-1" d="M144.95,163.65h-.01s-.52-.54-.52-.54l-.02-.02-.11-.11-.28-.28-1.11-1.12-.44-.44"/>
        <path class="cls-1" d="M149.2,298.91l.46-1.06,.25-.58,1.17-3.47,1.02-3.01v-.04s.57-1.65,.57-1.65l1.38-4.07,.18-.53"/>
        <path class="cls-1" d="M28.91,100.46l-.05,.11v.02s0,0,0,0v.02s-.98,2.29-.98,2.29l-.09,.24,.43,2.66,1.79,3.05,.23,4.2,.11,7.84,1.32,1.22,4.57,4.24,.34,.32"/>
        <path class="cls-1" d="M58.91,133.9l.03,.05,.02,.03h0s3.05,4.73,3.05,4.73l2.54,5.82,2.28,6.42,2.03,6.41,1.87,6.16"/>
        <path class="cls-1" d="M27.26,97.37l-.27-.66-.06-.19,.06,.16,.02,.05,.08,.2,.17,.45,.5,1.28,1.09,1.96"/>
        <path class="cls-1" d="M71.29,167.85l-.55-4.33,.45,3.38,.12,.9"/>
        <path class="cls-1" d="M24.6,973.56l-2.72,1.27-.34,.16-1.14,.53-.63,.29-1.4,.66-.31,.15-.54,.3-.32,.17-1.01,.55-.64,.35-.03,.02-.86,.47-.12,.07-.21,.11-1.3,.71-.1,.06-.33,.18-.72,.3-1.02,.43-.75,.32-.37,.16-.23,.1-.14,.67-.06,.29-.04,.18-.04,.19-.02,.08-.02,.11-.17,.8-.1,.5,.18,.24,.61,.79,.08,.11,.8,1.03,.46,.48,3.54,.08,2.96-.5"/>
        <path class="cls-1" d="M15.25,972.04l-.44,.05-6,.64-1.72,.18-5.59,1.56,1.57,5.86,1,.55"/>
        <path class="cls-1" d="M23.49,971.58l-1.69,.54-3.31,1.05-1.99,.63-.89,.28-1.66,.53-1.84,.79-.52,.22-1.51,.65-2.12,.92-.75,.32-2,1.38-.99,.69-.04,.41-.07,.67v.12s-.02,.11-.02,.11l-.18,1.68,.74,.85,1.86,1.53,3.3-.07"/>
        <path class="cls-1" d="M36.88,976.12l-2.49,1.73-3.53,1.75-.11,.05-.06,.05-.26,.24-1.76,1.59-.16,.32-.23,.47-.06,.12-.16,.31-.35,.7,.11,.2,.07,.12,.31,.55,.32,.56,.3,.53,.08,.13,.19,.34,.08,.14,.17,.04,.97,.23h.03s3.19,.58,3.19,.58l3.55-.67,.23-.05,.1-.02,.15-.03h0l.84-.16"/>
        <path class="cls-1" d="M30.07,975.68l-1.48,.61-3.4,1.41-.12,.06-2.15,1.1-1.11,.57-.13,.07-.77,.39-.12,.06-.28,.14-.09,.07-.09,.06-.05,.04-.08,.06-.27,.19-.88,.62-.21,.15-.29,.21-.23,.16-.12,.09-.18,.13h0s-.44,.32-.44,.32l-.04,.09-.4,.85-.05,.11-.02,.05-.06,.13-.16,.33-.04,.08-.19,.41-.02,.05-.09,.2,.56,.77,.19,.27,.31,.42,.77,1.05,1.04,.03,3.43,.39,5.93-1.11,1.61-.02"/>
        <path class="cls-1" d="M34.41,963.93l-9.39,3.52-8.45,2.49-7.76,2.79"/>
        <path class="cls-1" d="M54.13,955.59l-.42,.14-.46,.15-.84,.27-2.26,.73-1.8,.58-1.32,.43-.75,.24-1.09,.35-.88,.44-1.13,.57-1.48,.75-.54,.27-1.42,.72-.93,.47-.48,.24-.39,.2-1.56,.79-1.97,1-.55,.28"/>
        <path class="cls-1" d="M92.57,64.67l.06,.15,.41,1.02"/>
        <path class="cls-1" d="M138.14,350.15l-.23,1.28-1.8,9.84-.18,1.01,.03,10v3.49s3.06,9.52,3.06,9.52l.54,1.7,3.94,7.94-3.41-6.72"/>
        <path class="cls-1" d="M31.65,122.11l5.13,4.96,8.95,2.24,8.01,1.53,5.24,3.17"/>
        <path class="cls-1" d="M154.86,285.72l1.71-7.18,1.29-5.41,1.89-9.82,.34-1.78,.45-2.8,.79-4.99,.55-3.43"/>
        <path class="cls-1" d="M137.9,351.43l2.42-9.7,.29-1.15,2.56-9.67,.77-2.91,2.45-9.69,.75-2.99,.8-3.02,2.45-9.69,.78-3.09,2.68-9.63,.86-3.1,1.85-8.24"/>
        <path class="cls-1" d="M130.3,576.97l.53-9.99,.3-5.69,2.16-9.77,1.81-8.2,2.62-9.65,.75-2.76,3.17-5.13"/>
        <path class="cls-1" d="M147.19,761.93l-.95-9.04-2.29-9.73-1.93-8.23-3.07-9.52-2.35-7.28-3.69-9.3-2.63-6.62-1.26-9.92-.83-6.49-.9-8.14"/>
        <path class="cls-1" d="M160.54,258.73l1.53-9.31,.97-9.95,.02-.18-.27-1.96-.04-.57"/>
        <path class="cls-1" d="M5,957.74l.95,3.81,.68,2.71,2.38-.25,5.23-.2,7.92-.32,8.14-.69,6.08,.13"/>
        <path class="cls-1" d="M19.23,952.5l-2.43,.38-7.76,1.34-4.76,2.15,1.66,5.19"/>
        <path class="cls-1" d="M94.09,875.26l-.11,6.37-1.21,9.93-.62,5.06-2.84,9.59-1.14,3.86-5.83,8.13-1.3,1.81-8.74,4.86-1.74,.97-8.87,4.62-3.01,1.57-8.5,5.27-2.96,1.84-2.5,1.05-8.96,4.45-1.59,.79-8.67,5-6.28,2.07-1.56,.51"/>
        <path class="cls-1" d="M144.55,945.6l1.07-5.55-2.88-9.57-.53-1.74-2-7.86"/>
        <path class="cls-1" d="M21.72,286.33l2.22,3.54"/>
        <path class="cls-1" d="M22.9,287.55l.94,2.11,.09,.21,.77,1.72,.95,2.12,.06,.14,.5,1.13,.09,.21,1.34,3.01"/>
        <path class="cls-1" d="M37.1,986.19h.55s-.22-.06-.22-.06"/>
        <path class="cls-1" d="M37.76,66.72l-.32,.81"/>
        <path class="cls-1" d="M66.59,182.48l-.16,.24-.65,.98v.02s-.1,.14-.1,.14l-.57,.85-.72,1.07-.15,.23-2.61,3.9-1.1,1.65"/>
        <path class="cls-1" d="M68.2,180.65l-.13,.34-1.35,3.44-1.68,4.26-.49,1.24"/>
        <path class="cls-1" d="M68.25,179.77l-.87,1.42-.61,1-.18,.29-.2,.32-.24,.4-.07,.11-.09,.14-.4,.66-.1,.17-3.13,5.12-.04,.06-.2,.33"/>
        <path class="cls-1" d="M68.66,178.97l-.14,.27v.02s-.28,.52-.28,.52l-.54,1.04-.07,.13-.11,.21h0s-.39,.75-.39,.75l-.39,.75-3.2,6.15v.02s-.17,.31-.17,.31v.02"/>
        <path class="cls-1" d="M93.99,70.03l-.07,.98"/>
        <path class="cls-1" d="M102.9,126.01l-.4,1.17-.02,.06-.08,.23-.03,.1"/>
        <path class="cls-1" d="M103.03,125.57l-.03,.08-.1,.35-.25,.84-.02,.07-.03,.1-.02,.06-.04,.13"/>
        <path class="cls-1" d="M102.29,129.7l-.3,.23-.89,.67"/>
        <path class="cls-1" d="M136.13,128.05l-.06-.03-.07-.04"/>
        <path class="cls-1" d="M136.22,128.01l-.07-.11"/>
        <path class="cls-1" d="M150.37,134.67l-.07-.02"/>
      </g>
    </g>
  </g>
</svg>