<?xml version="1.0" encoding="UTF-8"?>
<svg id="Layer_2" data-name="Layer 2" xmlns="http://www.w3.org/2000/svg" viewBox="0 0 287.1 197.9">
  <defs>
    <style>
      .cls-1 {
        fill: #1a1a1a;
      }
    </style>
  </defs>
  <g id="logo_1" data-name="logo 1">
    <g>
      <g>
        <g>
          <path d="M141.9,169.53c-33.49,0-60.73-27.25-60.73-60.73s27.24-60.73,60.73-60.73,60.73,27.24,60.73,60.73-27.25,60.73-60.73,60.73Zm0-117.47c-31.28,0-56.73,25.45-56.73,56.73s25.45,56.73,56.73,56.73,56.73-25.45,56.73-56.73-25.45-56.73-56.73-56.73Z"/>
          <path d="M141.9,158.53c-27.42,0-49.73-22.31-49.73-49.73s22.31-49.73,49.73-49.73,49.73,22.31,49.73,49.73-22.31,49.73-49.73,49.73Zm0-97.47c-26.32,0-47.73,21.41-47.73,47.73s21.41,47.73,47.73,47.73,47.73-21.41,47.73-47.73-21.41-47.73-47.73-47.73Z"/>
        </g>
        <g>
          <path d="M73.17,175.42c-1.13,2.41-3.52,3.97-6.15,4.93-5.32,1.95-11.35,.23-15.01-4.04-2.07-2.45-3.19-5.51-3.37-8.59-.19-3.08,.53-6.23,2.25-8.91,1.71-2.68,4.39-4.61,7.25-5.69,2.87-1.1,5.96-1.44,8.97-1.07,3.06,.39,5.76,1.53,8.3,2.79,5.04,2.61,9.53,5.86,13.77,9.29,18.01,14.57,33.04,18.81,39.7,20.03,.34,.06,.28,.55-.07,.56-18.86,.93-36.61-13.42-40.73-16.45-4.38-3.18-10.19-8.4-14.9-10.66-2.35-1.09-4.77-2-7.14-2.22-2.4-.23-4.86,.13-7.05,1.04-2.2,.91-4.05,2.4-5.41,4.22-1.36,1.81-2.19,4.15-2.18,6.51,0,6.2,7.53,10.94,12.99,7.64,3.68-2.22,4.73-6.99,3.05-10.78,1.77,.37,3.93,2.32,4.55,3.08,1.24,1.52,1.95,3.48,1.86,5.45-.05,1.07-.29,2.01-.69,2.86Z"/>
          <path d="M83.11,174.73c-.02-.2-.18-.36-.38-.38-.23-.02-.43,.15-.45,.38-.34,4.1-2.14,7.83-4.83,10.67-2.69,2.84-6.18,4.9-9.83,6.03-.91,.28-1.84,.5-2.76,.63-.93,.12-1.91,.18-2.87,.21-1.93,.04-3.86-.12-5.79-.46-3.84-.71-7.64-1.94-11.29-3.61-3.67-1.64-7.29-3.59-10.94-5.61-3.69-1.94-7.41-4-11.41-5.63-2-.82-4.09-1.57-6.31-2.01-2.21-.43-4.56-.56-6.85-.12-2.33,.49-4.45,1.58-6.1,3.19-3.62,3.59-3.75,9.85-1.46,14.17,1.39,2.63,3.94,4.54,6.79,5.32,3.35,.91,7.74,.39,9.7-2.83,.62-1.02,.93-2.23,.91-3.42-.01-.84-.27-2.09-1.23-3.06-3.33,4.78-10.72,6.75-14.69,1.96-2.79-3.38-1.92-8.24,1.59-10.69,1.55-1.09,3.09-1.64,4.9-1.74,1.86-.14,3.74,.16,5.58,.74,1.84,.56,3.66,1.35,5.46,2.26,3.61,1.85,7.17,3.92,10.76,6.06,3.64,2.07,7.31,4.21,11.29,5.96,3.98,1.7,8.18,3.14,12.62,3.66,4.42,.56,9.03,.33,13.36-1.34,2.12-.81,4.08-1.93,5.88-3.26,1.78-1.34,3.42-2.89,4.74-4.69,2.69-3.55,4.09-8.09,3.62-12.38Z"/>
          <path d="M39.46,176.07c-3.34-1.28-6.58-2.7-9.84-3.99-3.25-1.29-6.52-2.47-9.81-3.31-3.3-.78-6.63-1.28-9.9-.95-3.29,.25-6.47,1.41-9.52,3.26-.12,.07-.28,.04-.36-.09-.06-.09-.05-.21,.02-.29,2.21-2.91,5.69-4.94,9.43-5.69,3.75-.73,7.6-.35,11.14,.65,3.57,.95,6.9,2.44,10.07,4.14,3.16,1.72,6.17,3.65,9.02,5.82,.11,.09,.13,.25,.05,.36-.07,.09-.19,.12-.3,.08Z"/>
        </g>
        <g>
          <path d="M213.93,175.42c1.13,2.41,3.52,3.97,6.15,4.93,5.32,1.95,11.35,.23,15.01-4.04,2.07-2.45,3.19-5.51,3.37-8.59,.19-3.08-.53-6.23-2.25-8.91-1.71-2.68-4.39-4.61-7.25-5.69-2.87-1.1-5.96-1.44-8.97-1.07-3.06,.39-5.76,1.53-8.3,2.79-5.04,2.61-9.53,5.86-13.77,9.29-18.01,14.57-33.04,18.81-39.7,20.03-.34,.06-.28,.55,.07,.56,18.85,.93,36.61-13.42,40.73-16.45,4.38-3.18,10.19-8.4,14.9-10.66,2.35-1.09,4.77-2,7.14-2.22,2.4-.23,4.86,.13,7.05,1.04,2.2,.91,4.05,2.4,5.4,4.22,1.36,1.81,2.19,4.15,2.18,6.51,0,6.2-7.53,10.94-12.99,7.64-3.68-2.22-4.73-6.99-3.05-10.78-1.77,.37-3.93,2.32-4.55,3.08-1.24,1.52-1.95,3.48-1.86,5.45,.05,1.07,.29,2.01,.69,2.86Z"/>
          <path d="M203.98,174.73c.02-.2,.18-.36,.38-.38,.23-.02,.43,.15,.45,.38,.34,4.1,2.14,7.83,4.83,10.67,2.69,2.84,6.18,4.9,9.83,6.03,.91,.28,1.84,.5,2.76,.63,.93,.12,1.91,.18,2.87,.21,1.93,.04,3.86-.12,5.79-.46,3.84-.71,7.64-1.94,11.29-3.61,3.67-1.64,7.29-3.59,10.94-5.61,3.69-1.94,7.41-4,11.41-5.63,2-.82,4.09-1.57,6.31-2.01,2.21-.43,4.56-.56,6.85-.12,2.33,.49,4.45,1.58,6.1,3.19,3.62,3.59,3.75,9.85,1.46,14.17-1.39,2.63-3.94,4.54-6.79,5.32-3.35,.91-7.74,.39-9.7-2.83-.62-1.02-.93-2.23-.91-3.42,.01-.84,.27-2.09,1.23-3.06,3.33,4.78,10.72,6.75,14.69,1.96,2.79-3.38,1.92-8.24-1.59-10.69-1.55-1.09-3.09-1.64-4.9-1.74-1.86-.14-3.74,.16-5.58,.74-1.84,.56-3.66,1.35-5.46,2.26-3.61,1.85-7.17,3.92-10.76,6.06-3.64,2.07-7.31,4.21-11.29,5.96-3.98,1.7-8.18,3.14-12.62,3.66-4.42,.56-9.03,.33-13.36-1.34-2.12-.81-4.08-1.93-5.88-3.26-1.78-1.34-3.42-2.89-4.74-4.69-2.69-3.55-4.09-8.09-3.62-12.38Z"/>
          <path d="M247.64,176.07c3.34-1.28,6.58-2.7,9.84-3.99,3.25-1.29,6.52-2.47,9.81-3.31,3.3-.78,6.63-1.28,9.9-.95,3.29,.25,6.47,1.41,9.52,3.26,.12,.07,.28,.04,.36-.09,.06-.09,.05-.21-.02-.29-2.21-2.91-5.69-4.94-9.43-5.69-3.75-.73-7.6-.35-11.14,.65-3.57,.95-6.9,2.44-10.07,4.14-3.16,1.72-6.17,3.65-9.02,5.82-.11,.09-.13,.25-.05,.36,.07,.09,.19,.12,.3,.08Z"/>
        </g>
        <g>
          <path d="M70.69,113.96c-.35-1.06,.52-3.27,2.43-3.24-.02-.25,0-.55,.16-.86,.23-.47,.63-.68,.77-.74-5.65-.94-4.76,4.25-4.76,4.25l-6.29-2.61c-.3,4.15-2.76,5.68-2.76,5.68,0,0,7.65,2.55,10.08,2.72,2.42,.17,2.3-1.4,2.38-4.29,.08-2.89,1.87-2.47,1.87-2.47-2.25-1.28-3.87,1.57-3.87,1.57Z"/>
          <path d="M73.73,94.83c-1.53-3.7-.06-4.34-.06-4.34-2.61,.32-3.1,3.49-3.1,3.49-1.33-3.21,1.29-4.67,1.29-4.67-.46-1.78,.98-2.21,.98-2.21-5.34-.81-5.35,5.19-5.12,7.75-2.98,3.34-6.3,2.13-8.51,5.99-.2-1.5-2.05-3.42-3.29-4.29-1.24-.87-2.67-1.41-4.02-2.09-1.35-.68-2.35-1.53-3.13-2.82,.65,.78,1.75,1.09,2.75,.95,1.01-.13,1.73-.88,2.67-1.28,2-.84,.43,2.04,.43,2.04,3.66-1.5,3.91-4.68,1.7-5.53-2.21-.85-5.02,4.08-4.68-.43,.26-3.49,3.08-2.9,4.34-2.46,.55,.19,1.18,.08,1.58-.34,1.04-1.07-.3-2.65-.3-2.65,1.02-.94,.08-2.13,.08-2.13l-8.42-2.3c.96-5.74-7.72-2.68-9.57-7.14-.39,3.3,1.53,3.83,1.53,3.83-12.37,.26-11.1,15.94-11.1,15.94,.89-5.48,4.21-7.27,4.21-7.27-4.97,6.12,3.83,12.25-2.04,19.01,3.48-.87,4.74-4.05,5.03-4.97-.77,2.62,.08,5.44,.87,8.07,.82,2.72,1.55,5.72,.38,8.31-1,2.23-3.2,3.64-4.79,5.49-.33,.39-.64,.79-.91,1.22-.69,.76-1.33,1.55-1.93,2.38-.72,.99-1.38,2.04-1.96,3.18-.14,.28-.29,.58-.41,.87l-.35,.76c-.23,.5-.47,1-.72,1.47-.51,.94-1.1,1.79-1.79,2.48-.17,.17-.35,.33-.54,.49-.18,.15-.36,.28-.56,.41-.39,.25-.8,.46-1.23,.61-.86,.31-1.76,.39-2.54,.22-.78-.17-1.45-.6-1.98-1.28-.53-.67-.9-1.56-1.06-2.5-.08-.47-.1-.95-.07-1.43,.01-.24,.03-.46,.08-.71,.04-.25,.1-.49,.16-.74,.27-.98,.71-1.96,1.27-2.9,1.12-1.9,2.71-3.62,4.3-5.48,.79-.93,1.58-1.9,2.29-2.95,.71-1.05,1.33-2.2,1.8-3.39,.51-1.35,.82-2.75,.96-4.16,.16-.17,.3-.39,.41-.68,.96-2.38,.5-5.66-.38-7.98-.9-2.38-2.54-4.47-4.61-5.95-.25-.18-.58,.11-.42,.39,.48,.86,.71,1.88,.77,2.87,.08,1.57-.22,3.14-.39,4.7-.17,1.57-.18,3.21,.46,4.65,.41,.93,1.53,2.07,2.6,2.38-.27,1.05-.65,2.07-1.13,3.02-.99,2.03-2.55,3.71-4.22,5.39-1.66,1.68-3.5,3.4-4.97,5.57-.74,1.08-1.37,2.29-1.8,3.61-.1,.33-.2,.67-.27,1.01-.08,.34-.14,.71-.18,1.07-.07,.72-.06,1.45,.03,2.17,.19,1.44,.67,2.88,1.6,4.13,.46,.63,1.04,1.19,1.7,1.65,.67,.46,1.43,.8,2.21,.99,1.57,.39,3.16,.22,4.57-.25,.71-.24,1.38-.56,2.01-.96,.31-.2,.62-.41,.91-.65,.28-.23,.55-.47,.8-.72,.87-.86,1.57-1.82,2.16-2.81,.06,1.23,.2,2.46,.39,3.65,.29,1.81,.55,3.63,.49,5.47-.09,2.91-3.2,4.91-3.2,4.91-.94,.62-1.06,1.64-1.06,2.76,0,1.52,.5,3.16,.55,4.42,.09,2.13-1.36,2.21-1.4,4.63s1.79,2.55,3.49,2.55,1.91,1.91,1.91,1.91c1.36-2.76-1.45-5.19-1.45-5.19,2.47,.64,2.72,2.64,2.72,2.64,2.38,.04,2.51,1.83,2.51,1.83,.47-3.19-1.87-4.97-1.87-4.97,2.38,.13,2.69,2.19,2.69,2.19,.96,.15,1.3,1.17,1.3,1.17,.13-.74,.16-1.39,.13-1.96-.1-1.75-1.36-3.21-3.05-3.66l-2.86-.76c-.6-6.8,2.13-7.4,2.13-7.4,0,0,8.01-3.47,8.08-10.97,.09-9.78,6.17-12.95,6.17-12.95,13.61-5.61,12.03-10.91,12.25-12.18-7.76,.19-11.1-5.66-11.1-5.66,7.23,4.25,11.61,3.61,11.61,3.61,2.73-.15,8.75-5.19,10.3-6.52,2.68-.12,4.27-2.35,2.9-5.66Z"/>
          <path d="M72.4,136.03c.82-.98,1.81-.32,1.81-.32-.5-.56-.99-.99-1.46-1.32-1.44-1-3.37-.92-4.76,.13-3.32,2.51-8.16,3.48-12.1,1.82,0,0,1.28-4.42,2.04-8.42,.77-4-1.45-6.29-7.23-5.02-5.78,1.28-6.12,9.27-6.12,9.27,4.25,1.96,6.38,.77,6.38,.77-.94,2.21,.51,4.93,.51,4.93,0,0-1.02,3.57,2.89,4.17,1.35,.21,2.76-.09,4.06-.44,1.37-.37,2.8-1.2,4.25-.82,1.47,.39,1.81,1.63,2.88,2.51,1.88,1.53,3.11,.17,4.16-1.16,1.05-1.34,2.69-.32,2.69-.32-1.33-2.78-4.97-2.07-4.97-2.07,2.03-1.54,3.75-.51,3.75-.51,1.51-1.85,2.99-.84,2.99-.84-2.22-2.34-5.07-1.61-5.07-1.61,1.57-1.79,3.31-.75,3.31-.75Z"/>
        </g>
        <g>
          <path d="M213.28,113.96c.35-1.06-.52-3.27-2.43-3.24,.02-.25,0-.55-.16-.86-.23-.47-.63-.68-.77-.74,5.65-.94,4.76,4.25,4.76,4.25l6.29-2.61c.3,4.15,2.76,5.68,2.76,5.68,0,0-7.65,2.55-10.08,2.72-2.42,.17-2.3-1.4-2.38-4.29-.08-2.89-1.87-2.47-1.87-2.47,2.25-1.28,3.87,1.57,3.87,1.57Z"/>
          <path d="M210.24,94.83c1.53-3.7,.06-4.34,.06-4.34,2.61,.32,3.1,3.49,3.1,3.49,1.33-3.21-1.29-4.67-1.29-4.67,.46-1.78-.98-2.21-.98-2.21,5.34-.81,5.35,5.19,5.12,7.75,2.98,3.34,6.3,2.13,8.51,5.99,.2-1.5,2.05-3.42,3.29-4.29,1.24-.87,2.67-1.41,4.02-2.09,1.35-.68,2.35-1.53,3.13-2.82-.65,.78-1.75,1.09-2.75,.95-1.01-.13-1.73-.88-2.67-1.28-2-.84-.43,2.04-.43,2.04-3.66-1.5-3.91-4.68-1.7-5.53,2.21-.85,5.02,4.08,4.68-.43-.26-3.49-3.08-2.9-4.34-2.46-.55,.19-1.18,.08-1.58-.34-1.04-1.07,.3-2.65,.3-2.65-1.02-.94-.08-2.13-.08-2.13l8.42-2.3c-.96-5.74,7.72-2.68,9.57-7.14,.39,3.3-1.53,3.83-1.53,3.83,12.37,.26,11.1,15.94,11.1,15.94-.89-5.48-4.21-7.27-4.21-7.27,4.97,6.12-3.83,12.25,2.04,19.01-3.48-.87-4.74-4.05-5.03-4.97,.77,2.62-.08,5.44-.87,8.07-.82,2.72-1.55,5.72-.38,8.31,1,2.23,3.2,3.64,4.79,5.49,.33,.39,.64,.79,.91,1.22,.69,.76,1.33,1.55,1.93,2.38,.72,.99,1.38,2.04,1.96,3.18,.14,.28,.29,.58,.41,.87l.35,.76c.23,.5,.47,1,.72,1.47,.51,.94,1.1,1.79,1.79,2.48,.17,.17,.35,.33,.54,.49,.18,.15,.36,.28,.56,.41,.39,.25,.8,.46,1.23,.61,.86,.31,1.76,.39,2.54,.22,.78-.17,1.45-.6,1.98-1.28,.53-.67,.9-1.56,1.06-2.5,.08-.47,.1-.95,.07-1.43-.01-.24-.03-.46-.08-.71-.04-.25-.1-.49-.16-.74-.27-.98-.71-1.96-1.27-2.9-1.12-1.9-2.71-3.62-4.3-5.48-.79-.93-1.58-1.9-2.29-2.95-.71-1.05-1.33-2.2-1.8-3.39-.51-1.35-.82-2.75-.96-4.16-.16-.17-.3-.39-.41-.68-.96-2.38-.5-5.66,.38-7.98,.9-2.38,2.54-4.47,4.61-5.95,.25-.18,.58,.11,.42,.39-.48,.86-.71,1.88-.77,2.87-.08,1.57,.22,3.14,.39,4.7,.17,1.57,.18,3.21-.46,4.65-.41,.93-1.53,2.07-2.6,2.38,.27,1.05,.65,2.07,1.13,3.02,.99,2.03,2.55,3.71,4.22,5.39,1.66,1.68,3.5,3.4,4.97,5.57,.74,1.08,1.37,2.29,1.8,3.61,.1,.33,.2,.67,.27,1.01,.08,.34,.14,.71,.18,1.07,.07,.72,.06,1.45-.03,2.17-.19,1.44-.67,2.88-1.6,4.13-.46,.63-1.04,1.19-1.7,1.65-.67,.46-1.43,.8-2.21,.99-1.57,.39-3.16,.22-4.57-.25-.71-.24-1.38-.56-2.01-.96-.31-.2-.62-.41-.91-.65-.28-.23-.55-.47-.8-.72-.87-.86-1.57-1.82-2.16-2.81-.06,1.23-.2,2.46-.39,3.65-.29,1.81-.55,3.63-.49,5.47,.09,2.91,3.2,4.91,3.2,4.91,.94,.62,1.06,1.64,1.06,2.76,0,1.52-.5,3.16-.55,4.42-.09,2.13,1.36,2.21,1.4,4.63s-1.79,2.55-3.49,2.55-1.91,1.91-1.91,1.91c-1.36-2.76,1.45-5.19,1.45-5.19-2.47,.64-2.72,2.64-2.72,2.64-2.38,.04-2.51,1.83-2.51,1.83-.47-3.19,1.87-4.97,1.87-4.97-2.38,.13-2.69,2.19-2.69,2.19-.96,.15-1.3,1.17-1.3,1.17-.13-.74-.16-1.39-.13-1.96,.1-1.75,1.36-3.21,3.05-3.66l2.86-.76c.6-6.8-2.13-7.4-2.13-7.4,0,0-8.01-3.47-8.08-10.97-.09-9.78-6.17-12.95-6.17-12.95-13.61-5.61-12.03-10.91-12.25-12.18,7.76,.19,11.1-5.66,11.1-5.66-7.23,4.25-11.61,3.61-11.61,3.61-2.73-.15-8.75-5.19-10.3-6.52-2.68-.12-4.27-2.35-2.9-5.66Z"/>
          <path d="M211.57,136.03c-.82-.98-1.81-.32-1.81-.32,.5-.56,.99-.99,1.46-1.32,1.44-1,3.37-.92,4.76,.13,3.32,2.51,8.16,3.48,12.1,1.82,0,0-1.28-4.42-2.04-8.42-.77-4,1.45-6.29,7.23-5.02,5.78,1.28,6.12,9.27,6.12,9.27-4.25,1.96-6.38,.77-6.38,.77,.94,2.21-.51,4.93-.51,4.93,0,0,1.02,3.57-2.89,4.17-1.35,.21-2.76-.09-4.06-.44-1.37-.37-2.8-1.2-4.25-.82-1.47,.39-1.81,1.63-2.88,2.51-1.88,1.53-3.11,.17-4.16-1.16-1.05-1.34-2.69-.32-2.69-.32,1.33-2.78,4.97-2.07,4.97-2.07-2.03-1.54-3.75-.51-3.75-.51-1.51-1.85-2.99-.84-2.99-.84,2.22-2.34,5.07-1.61,5.07-1.61-1.57-1.79-3.31-.75-3.31-.75Z"/>
        </g>
      </g>
      <path d="M169.35,46.85l14.94-28.98c-1.78,.14-3.39,1.04-4.73,2.18-.52,.44-.97,.91-1.4,1.41-.39-1.2-1.52-2.08-2.86-2.09-1.63-.01-3.03,1.35-3.05,2.99-.02,1.69,1.34,3.07,3.03,3.07,.06,0-.54,1.27-1.02,2.02-1.58,2.44-3.39,4.01-6,4.01-3.47,0-6.28-2.81-6.28-6.28,0-1.02,.19-2.64,.94-4.11,.32-.62,.9-1.04,1.56-1.27,1.37-.48,2.35-1.78,2.35-3.31,0-2.16-1.96-3.87-4.2-3.44-1.35,.26-2.44,1.34-2.72,2.68-.18,.86-.04,1.67,.31,2.35,.32,.62,.44,1.32,.26,2-.98,3.8-3.95,6.73-7.34,6.67-6.03-.09-7.84-4.8-8.02-8.69,.84,.39,1.82,.54,2.85,.33,1.82-.38,3.26-1.89,3.54-3.73,.4-2.69-1.56-5.01-4.12-5.21,.02-.28,.04-.57,.04-.86,0-3.42-1.49-6.48-3.85-8.6-2.36,2.12-3.85,5.18-3.85,8.6,0,.29,.01,.58,.04,.86-2.56,.2-4.52,2.52-4.12,5.21,.28,1.84,1.71,3.35,3.54,3.73,1.03,.21,2.01,.06,2.85-.33-.18,3.9-1.99,8.6-8.02,8.69-3.38,.05-6.35-2.88-7.34-6.67-.17-.67-.06-1.38,.26-2,.35-.68,.49-1.5,.31-2.35-.28-1.35-1.37-2.42-2.72-2.68-2.24-.43-4.2,1.27-4.2,3.44,0,1.53,.98,2.83,2.35,3.31,.66,.23,1.24,.65,1.56,1.27,.74,1.46,.94,3.08,.94,4.11,0,3.47-2.81,6.28-6.28,6.28-2.61,0-4.42-1.56-6-4.01-.48-.75-1.09-2.02-1.02-2.02,1.69,0,3.05-1.38,3.03-3.07-.02-1.63-1.42-3-3.05-2.99-1.33,0-2.46,.88-2.86,2.09-.43-.5-.89-.97-1.4-1.41-1.34-1.13-2.95-2.04-4.73-2.18l14.45,27.76c7.62-3.09,15.93-4.81,24.64-4.81,9.8,0,19.09,2.17,27.45,6.03Z"/>
    </g>
    <g>
      <path d="M165.09,125.74c-3.37,4.37-12.31,9.27-23.84,9.27-16.35-.03-27.23-10.09-27.23-26.3s10.67-26.12,27.65-26.12c7.92,0,15.63,1.75,19.86,3.9l.14,12.36h-.6c-2.71-9.79-9.54-13.22-17.22-13.23-11.78,0-18.09,8.9-18.09,23.53s5.83,22.81,16.43,22.83c5.3,0,10.51-2.57,12.09-7.12l.11-11.01c.01-2.1-1.38-3.28-3.7-3.28h-1.13v-.72h20.22v.72h-1.08c-2.33,0-3.64,1.17-3.59,3.26l-.02,11.9Z"/>
      <path d="M165.09,125.74c-3.37,4.37-12.31,9.27-23.84,9.27-16.35-.03-27.23-10.09-27.23-26.3s10.67-26.12,27.65-26.12c7.92,0,15.63,1.75,19.86,3.9l.14,12.36h-.6c-2.71-9.79-9.54-13.22-17.22-13.23-11.78,0-18.09,8.9-18.09,23.53s5.83,22.81,16.43,22.83c5.3,0,10.51-2.57,12.09-7.12l.11-11.01c.01-2.1-1.38-3.28-3.7-3.28h-1.13v-.72h20.22v.72h-1.08c-2.33,0-3.64,1.17-3.59,3.26l-.02,11.9Z"/>
      <path className="cls-1" d="M165.09,125.74c-3.37,4.37-12.31,9.27-23.84,9.27-16.35-.03-27.23-10.09-27.23-26.3s10.67-26.12,27.65-26.12c7.92,0,15.63,1.75,19.86,3.9l.14,12.36h-.6c-2.71-9.79-9.54-13.22-17.22-13.23-11.78,0-18.09,8.9-18.09,23.53s5.83,22.81,16.43,22.83c5.3,0,10.51-2.57,12.09-7.12l.11-11.01c.01-2.1-1.38-3.28-3.7-3.28h-1.13v-.72h20.22v.72h-1.08c-2.33,0-3.64,1.17-3.59,3.26l-.02,11.9Z"/>
    </g>
  </g>
</svg>